<svg xmlns="http://www.w3.org/2000/svg" version="1.2" height="86.4" viewBox="0 0 144.02845 64.8" width="192.038"><desc>Fritzing breadboard generated by brd2svg</desc><path d="M7.228 64.8a7.2 7.2 0 0 1-7.2-7.2v-18l1.44-1.44V26.64L.028 25.2v-18a7.2 7.2 0 0 1 7.2-7.2h129.6a7.2 7.2 0 0 1 7.2 7.2v50.4a7.2 7.2 0 0 1-7.2 7.2H7.228m4.408-37.928a.992.992 0 1 0 1.984 0 .992.992 0 1 0-1.984 0zm0 11.056a.992.992 0 1 0 1.984 0 .992.992 0 1 0-1.984 0zM133.71 59.58a3.118 3.118 0 0 0 6.237 0 3.118 3.118 0 1 0-6.237 0zm0-54.18a3.118 3.118 0 0 0 6.237 0 3.118 3.118 0 1 0-6.237 0zm-9.099 55.8a1.417 1.417 0 1 0 2.835 0 1.417 1.417 0 1 0-2.835 0zm-7.2 0a1.417 1.417 0 1 0 2.835 0 1.417 1.417 0 1 0-2.835 0zm-7.2 0a1.417 1.417 0 1 0 2.835 0 1.417 1.417 0 1 0-2.835 0zm-7.2 0a1.417 1.417 0 1 0 2.835 0 1.417 1.417 0 1 0-2.835 0zm-7.2 0a1.417 1.417 0 1 0 2.835 0 1.417 1.417 0 1 0-2.835 0zm-7.2 0a1.417 1.417 0 1 0 2.835 0 1.417 1.417 0 1 0-2.835 0zm-7.2 0a1.417 1.417 0 1 0 2.835 0 1.417 1.417 0 1 0-2.835 0zm-7.2 0a1.417 1.417 0 1 0 2.835 0 1.417 1.417 0 1 0-2.835 0zm-7.2 0a1.417 1.417 0 1 0 2.835 0 1.417 1.417 0 1 0-2.835 0zm-7.2 0a1.417 1.417 0 1 0 2.835 0 1.417 1.417 0 1 0-2.835 0zm-7.2 0a1.417 1.417 0 1 0 2.835 0 1.417 1.417 0 1 0-2.835 0zm-7.2 0a1.417 1.417 0 1 0 2.835 0 1.417 1.417 0 1 0-2.835 0zm-7.2 0a1.417 1.417 0 1 0 2.835 0 1.417 1.417 0 1 0-2.835 0zm-7.2 0a1.417 1.417 0 1 0 2.835 0 1.417 1.417 0 1 0-2.835 0zm-7.2 0a1.417 1.417 0 0 0 2.835 0 1.417 1.417 0 1 0-2.835 0zm-7.2 0a1.417 1.417 0 0 0 2.835 0 1.417 1.417 0 1 0-2.835 0zm28.8-57.6a1.417 1.417 0 1 0 2.835 0 1.417 1.417 0 1 0-2.835 0zm7.2 0a1.417 1.417 0 1 0 2.835 0 1.417 1.417 0 1 0-2.835 0zm7.2 0a1.417 1.417 0 1 0 2.835 0 1.417 1.417 0 1 0-2.835 0zm7.2 0a1.417 1.417 0 1 0 2.835 0 1.417 1.417 0 1 0-2.835 0zm7.2 0a1.417 1.417 0 1 0 2.835 0 1.417 1.417 0 1 0-2.835 0zm7.2 0a1.417 1.417 0 1 0 2.835 0 1.417 1.417 0 1 0-2.835 0zm7.2 0a1.417 1.417 0 1 0 2.835 0 1.417 1.417 0 1 0-2.835 0zm7.2 0a1.417 1.417 0 1 0 2.835 0 1.417 1.417 0 1 0-2.835 0zm7.2 0a1.417 1.417 0 1 0 2.835 0 1.417 1.417 0 1 0-2.835 0zm7.2 0a1.417 1.417 0 1 0 2.835 0 1.417 1.417 0 1 0-2.835 0zm7.2 0a1.417 1.417 0 1 0 2.835 0 1.417 1.417 0 1 0-2.835 0zm7.2 0a1.417 1.417 0 1 0 2.835 0 1.417 1.417 0 1 0-2.835 0zM3.685 7.2a3.543 3.543 0 1 0 7.087 0 3.543 3.543 0 1 0-7.087 0zm0 50.4a3.543 3.543 0 1 0 7.087 0 3.543 3.543 0 1 0-7.087 0zm10.36-34.554a1.134 1.134 0 1 0 2.268 0 1.134 1.134 0 1 0-2.267 0zm0 18.708a1.134 1.134 0 1 0 2.268 0 1.134 1.134 0 1 0-2.267 0zM5.968 22.195a1.276 1.276 0 0 0 2.551 0 1.276 1.276 0 1 0-2.551 0zm0 20.41a1.276 1.276 0 0 0 2.551 0 1.276 1.276 0 1 0-2.551 0z"/><g transform="translate(-1.262)"><title>layer 21</title><title>text:USB</title><text font-size="3.341" x="63.57" y="9.59" font-family="OCRA" text-anchor="middle" fill="#fff" stroke-width="0">USB</text><title>text:RST</title><text font-size="3.341" x="19.29" y="58.19" font-family="OCRA" text-anchor="middle" fill="#fff" stroke-width="0">RST</text><title>text:NC</title><text font-size="3.341" x="33.69" y="58.55" font-family="OCRA" text-anchor="middle" fill="#fff" stroke-width="0">NC</text><title>text:3V</title><text font-size="3.341" x="26.85" y="58.55" font-family="OCRA" text-anchor="middle" fill="#fff" stroke-width="0">3V</text><title>text:NC</title><text font-size="2.673" font-family="OCRA" text-anchor="middle" fill="#fff" stroke-width="0" transform="rotate(-90 56.753 -.593)">NC</text><title>text:ADC</title><text font-size="3.341" x="49.89" y="58.55" font-family="OCRA" text-anchor="middle" fill="#fff" stroke-width="0">ADC</text><title>text:14</title><text font-size="2.673" x="73.289" y="7.816" font-family="OCRA" text-anchor="middle" fill="#fff" stroke-width="0">14</text><title>text:2</title><text font-size="2.673" x="115.77" y="7.816" font-family="OCRA" text-anchor="middle" fill="#fff" stroke-width="0">2</text><title>text:13</title><text font-size="2.673" x="87.689" y="7.816" font-family="OCRA" text-anchor="middle" fill="#fff" stroke-width="0">13</text><title>text:15</title><text font-size="2.673" x="94.89" y="7.816" font-family="OCRA" text-anchor="middle" fill="#fff" stroke-width="0">15</text><title>text:0</title><text font-size="2.673" x="102.09" y="7.816" font-family="OCRA" text-anchor="middle" fill="#fff" stroke-width="0">0</text><title>text:SCK</title><text font-size="2.673" x="94.89" y="59.296" font-family="OCRA" text-anchor="middle" fill="#fff" stroke-width="0">SCK</text><title>text:MO</title><text font-size="2.673" x="102.45" y="59.296" font-family="OCRA" text-anchor="middle" fill="#fff" stroke-width="0">MO</text><title>text:MI</title><text font-size="2.673" x="109.65" y="59.296" font-family="OCRA" text-anchor="middle" fill="#fff" stroke-width="0">MI</text><title>text:5</title><text font-size="2.673" x="123.87" y="3.316" font-family="OCRA" text-anchor="middle" fill="#fff" stroke-width="0">5</text><title>text:4</title><text font-size="2.673" x="130.89" y="3.316" font-family="OCRA" text-anchor="middle" fill="#fff" stroke-width="0">4</text><title>text:RX</title><text font-size="2.673" x="116.85" y="59.296" font-family="OCRA" text-anchor="middle" fill="#fff" stroke-width="0">RX</text><title>text:TX</title><text font-size="2.673" x="123.69" y="59.296" font-family="OCRA" text-anchor="middle" fill="#fff" stroke-width="0">TX</text><title>text:BAT</title><text font-size="3.341" x="48.81" y="9.23" font-family="OCRA" text-anchor="middle" fill="#fff" stroke-width="0">BAT</text><title>text:12</title><text font-size="2.673" x="80.49" y="7.816" font-family="OCRA" text-anchor="middle" fill="#fff" stroke-width="0">12</text><title>text:16</title><text font-size="2.673" x="109.29" y="7.816" font-family="OCRA" text-anchor="middle" fill="#fff" stroke-width="0">16</text><title>text:GND</title><text font-size="3.341" x="41.61" y="58.55" font-family="OCRA" text-anchor="middle" fill="#fff" stroke-width="0">GND</text><title>text:#0</title><text font-size="3.341" font-family="OCRA" text-anchor="middle" fill="#fff" stroke-width="0" transform="rotate(-90 15.88 -2.2)">#0</text><title>text:EN</title><text font-size="3.341" x="55.65" y="9.23" font-family="OCRA" text-anchor="middle" fill="#fff" stroke-width="0">EN</text><title>text:CHPD</title><text font-size="2.673" font-family="OCRA" text-anchor="middle" fill="#fff" stroke-width="0" transform="rotate(-90 96.353 -36.413)">CHPD</text><title>text:RST</title><text font-size="3.341" x="28.29" y="39.47" font-family="OCRA" text-anchor="middle" fill="#fff" stroke-width="0">RST</text><title>text:CHG</title><text font-size="3.341" x="17.49" y="50.99" font-family="OCRA" text-anchor="middle" fill="#fff" stroke-width="0">CHG</text><title>text:NC</title><text font-size="2.673" font-family="OCRA" text-anchor="middle" fill="#fff" stroke-width="0" transform="rotate(-90 59.993 -3.833)">NC</text><title>text:NC</title><text font-size="2.673" x="69.69" y="58.576" font-family="OCRA" text-anchor="middle" fill="#fff" stroke-width="0">NC</text><title>text:NC</title><text font-size="2.673" x="74.73" y="58.576" font-family="OCRA" text-anchor="middle" fill="#fff" stroke-width="0">NC</text><title>text:NC</title><text font-size="2.673" x="81.21" y="59.296" font-family="OCRA" text-anchor="middle" fill="#fff" stroke-width="0">NC</text><title>text:SCL</title><text font-size="2.673" x="124.41" y="8.176" font-family="OCRA" text-anchor="middle" fill="#fff" stroke-width="0">SCL</text><title>text:SDA</title><text font-size="2.673" x="131.97" y="8.176" font-family="OCRA" text-anchor="middle" fill="#fff" stroke-width="0">SDA</text><title>text:huzzah!</title><text font-size="3.341" font-family="OCRA" text-anchor="middle" fill="#fff" stroke-width="0" transform="rotate(-90 27.04 5.36)">huzzah!</text><title>element:C2</title><title>package:0805-NO</title><path stroke="#fff" stroke-width=".864" stroke-linecap="round" d="M63.57 18.9h-2.88"/><title>element:C3</title><title>package:0805-NO</title><path stroke="#fff" stroke-width=".864" stroke-linecap="round" d="M32.61 31.68V28.8"/><g><title>element:C6</title><title>package:0805-NO</title><path stroke="#fff" stroke-width=".864" stroke-linecap="round" d="M22.776 28.066h2.88"/></g><g><title>element:C7</title><title>package:0603-NO</title></g><g><title>element:C8</title><title>package:0805-NO</title><path stroke="#fff" stroke-width=".864" stroke-linecap="round" d="M43.452 28.97h-2.88"/></g><g><title>element:CHG</title><title>package:CHIPLED_0805_NOOUTLINE</title><title>polygon</title><path d="M8.85 48.96l-1.44 1.08v-2.16l1.44 1.08m-1.152-.864v1.728-1.728m.432.324v1.08-1.08" fill="none" stroke="#fff" stroke-width=".432" stroke-linecap="round"/></g><g><title>element:D3</title><title>package:CHIPLED_0805_NOOUTLINE</title><title>polygon</title><path d="M10.11 15.66l-1.44 1.08v-2.16l1.44 1.08m-1.152-.864v1.728-1.728m.432.324v1.08-1.08" fill="none" stroke="#fff" stroke-width=".432" stroke-linecap="round"/></g><g><title>element:D4</title><title>package:SOD-123</title><path stroke="#fff" stroke-width=".576" stroke-linecap="round" d="M54.524 13.504h-4.949M49.575 9.536h4.949M52.9 11.52l-1.701 1.134M51.199 12.654v-2.268M51.199 10.386L52.9 11.52"/><title>polygon</title><path d="M52.333 11.52l-.85.567v-1.134l.85.567h-.85.85" fill="none" stroke="#fff" stroke-width=".576" stroke-linecap="round"/></g><g><title>element:IC1</title><title>package:QFN24_4MM_SMSC</title><path stroke="#fff" stroke-width=".576" stroke-linecap="round" d="M52.047 52.109h.992M53.039 51.117v.992M42.693 52.109H41.7M41.7 52.109v-.992M53.039 41.763v-.992M53.039 40.771h-.992M42.693 40.771l-.993.992"/><circle r=".36" cy="42.84" cx="38.73" fill="none" stroke="#fff" stroke-width=".576"/></g><g><title>element:JP1</title><title>package:1X16_ROUND</title></g><g><title>element:JP3</title><title>package:1X12_ROUND</title></g><g><title>element:Q1</title><title>package:SOT23-3</title><path stroke="#fff" stroke-width=".576" stroke-linecap="round" d="M71.597 44.104h1.701M73.298 44.104v-2.268M67.062 44.104h-1.701M65.361 44.104v-2.268"/></g><g><title>element:Q2</title><title>package:SOT23-3</title><path stroke="#fff" stroke-width=".576" stroke-linecap="round" d="M67.062 20.336h-1.701M65.361 20.336v2.268M71.597 20.336h1.701M73.298 20.336v2.268"/></g><g><title>element:R1</title><title>package:0603-NO</title></g><g><title>element:R2</title><title>package:0603-NO</title></g><g><title>element:R3</title><title>package:0603-NO</title></g><g><title>element:R4</title><title>package:0603-NO</title></g><g><title>element:R5</title><title>package:_0603MP</title><path stroke="#fff" stroke-width=".576" stroke-linecap="round" d="M69.33 34.2v1.44"/></g><g><title>element:R6</title><title>package:0603-NO</title></g><g><title>element:R7</title><title>package:0603-NO</title></g><g><title>element:R8</title><title>package:0603-NO</title></g><g><title>element:R9</title><title>package:0603-NO</title></g><g><title>element:R10</title><title>package:0603-NO</title></g><g><title>element:R11</title><title>package:_0603MP</title><path stroke="#fff" stroke-width=".576" stroke-linecap="round" d="M58.17 41.04h-1.44"/></g><g><title>element:SJ1</title><title>package:SOLDERJUMPER_CLOSEDWIRE</title><path stroke="#fff" stroke-width=".576" stroke-linecap="round" d="M33.69 34.2h7.92"/><path d="M32.97 39.24a.72.72 0 0 0 .72.72M41.61 39.96a.72.72 0 0 0 .72-.72M42.33 34.92a.72.72 0 0 0-.72-.72M33.69 34.2a.72.72 0 0 0-.72.72" fill="none" stroke="#fff" stroke-width=".576"/><path stroke="#fff" stroke-width=".576" stroke-linecap="round" d="M32.97 34.92v4.32M42.33 34.92v4.32M41.61 39.96h-7.92"/></g><g><title>element:SW2</title><title>package:BTN_KMR2_4.6X2.8</title><path stroke="#fff" stroke-width=".576" stroke-linecap="round" d="M32.254 40.847v11.906M23.606 52.753V40.847"/></g><g><title>element:U$7</title><title>package:ADAFRUIT_5MM</title></g><g><title>element:U$9</title><title>package:FEATHERLOGO</title></g><g><title>element:U$13</title><title>package:PCBFEAT-REV-040</title></g><g><title>element:U$15</title><title>package:ADAFRUIT_3.5MM</title></g><g><title>element:U$23</title><title>package:HUZZAHLOGO</title></g><g><title>element:U$31</title><title>package:MOUNTINGHOLE_2.5_PLATED</title><circle r="5.669" cy="7.2" cx="8.49" fill="none" stroke="#fff" stroke-width=".576"/></g><g><title>element:U$32</title><title>package:MOUNTINGHOLE_2.5_PLATED</title><circle r="5.669" cy="57.6" cx="8.49" fill="none" stroke="#fff" stroke-width=".576"/></g><g><title>element:U$34</title><title>package:FIDUCIAL_1MM</title></g><g><title>element:U$35</title><title>package:FIDUCIAL_1MM</title></g><g><title>element:U2</title><title>package:SOT23-5</title><path stroke="#fff" stroke-width=".576" stroke-linecap="round" d="M49.422 26.997h4.535M49.422 17.643h4.535M48.713 23.454v-2.268"/></g><g><title>element:U3</title><title>package:SOT23-5</title><path stroke="#fff" stroke-width=".576" stroke-linecap="round" d="M53.957 27.363h-4.535M53.957 36.717h-4.535M54.666 30.906v2.268"/></g><g><title>element:X1</title><title>package:JSTPH2</title><path stroke="#fff" stroke-width=".576" stroke-linecap="round" d="M25.512 1.576h12.756M43.228 11.497v11.339M43.228 22.836h-2.409M40.819 22.836v-7.087M40.819 15.749H36.85M26.929 15.749h-3.968M22.961 15.749v7.087M22.961 22.836h-2.41M20.551 22.836V11.497"/></g><g><title>element:X2</title><title>package:ESP-12E</title><path stroke="#fff" stroke-width=".36" stroke-linecap="round" d="M144.7 9.723v45.354M144.7 55.077H76.669M76.669 55.077V9.723M76.669 9.723H144.7M122.59 15.392v34.016M122.59 49.408H80.071M80.071 49.408V15.392M80.071 15.392h42.519"/><title>text:Antenna</title><text font-size="4.176" font-family="OCRA" text-anchor="middle" fill="#fff" stroke-width="0" transform="rotate(-90 82.791 -50.675)">Antenna</text></g><g><title>element:X4</title><title>package:4UCONN_20329_V2</title><path stroke="#fff" stroke-width=".36" stroke-linecap="round" d="M17.008 25.313v2.268M17.008 37.219v2.268M4.252 21.628H1.701M1.701 21.628v21.544M1.701 43.172h2.551"/></g></g><path fill="#333" d="M64.1 41.836h7.937v2.268H64.1zM64.1 20.336h7.937v2.268H64.1z"/><path fill="#9a916c" d="M62.994 14.45v3.514h-4.252V14.45zM62.994 19.835v3.515h-4.252v-3.515zM35.799 32.366h-3.515v-4.252h3.515zM30.413 32.366h-3.515v-4.252h3.515zM20.83 32.516v-3.515h4.251v3.515zM20.829 27.13v-3.515h4.252v3.515zM36.317 47.297v3.118h-2.835v-3.118zM36.317 52.115v3.118h-2.835v-3.118zM42.877 24.52v3.515h-4.252V24.52zM42.877 29.906v3.515h-4.252v-3.515zM5.593 47.26v3.402H2.19V47.26zM11.546 47.259v3.402H8.144v-3.402zM6.853 13.96v3.402H3.45V13.96zM12.806 13.959v3.402H9.404v-3.402zM47.528 9.535v3.968H43.56V9.535zM58.016 9.536v3.968h-3.968V9.536z"/><rect height=".794" x="40.567" y="42.5" ry=".198" rx=".198" width="2.268" fill="#9a916c" transform="rotate(180 41.07 42.897)"/><rect height=".794" x="40.567" y="43.917" ry=".198" rx=".198" width="2.268" fill="#9a916c" transform="rotate(180 41.07 44.314)"/><rect height=".794" x="40.567" y="45.334" ry=".198" rx=".198" width="2.268" fill="#9a916c" transform="rotate(180 41.07 45.731)"/><rect height=".794" x="40.567" y="46.752" ry=".198" rx=".198" width="2.268" fill="#9a916c" transform="rotate(180 41.07 47.149)"/><rect height=".794" x="40.567" y="48.169" ry=".198" rx=".198" width="2.268" fill="#9a916c" transform="rotate(180 41.07 48.566)"/><rect height=".794" x="40.567" y="49.586" ry=".198" rx=".198" width="2.268" fill="#9a916c" transform="rotate(180 41.07 49.983)"/><rect height=".794" x="42.693" y="51.712" ry=".198" rx=".198" width="2.268" fill="#9a916c" transform="rotate(-90 43.196 52.74)"/><rect height=".794" x="44.11" y="51.712" ry=".198" rx=".198" width="2.268" fill="#9a916c" transform="rotate(-90 44.613 52.74)"/><rect height=".794" x="45.527" y="51.712" ry=".198" rx=".198" width="2.268" fill="#9a916c" transform="rotate(-90 46.03 52.74)"/><rect height=".794" x="46.945" y="51.712" ry=".198" rx=".198" width="2.268" fill="#9a916c" transform="rotate(-90 47.448 52.74)"/><rect height=".794" x="48.362" y="51.712" ry=".198" rx=".198" width="2.268" fill="#9a916c" transform="rotate(-90 48.865 52.74)"/><rect height=".794" x="49.779" y="51.712" ry=".198" rx=".198" width="2.268" fill="#9a916c" transform="rotate(-90 50.283 52.74)"/><rect height=".794" x="50.644" y="49.586" ry=".198" rx=".198" width="2.268" fill="#9a916c"/><rect height=".794" x="50.644" y="48.169" ry=".198" rx=".198" width="2.268" fill="#9a916c"/><rect height=".794" x="50.644" y="46.752" ry=".198" rx=".198" width="2.268" fill="#9a916c"/><rect height=".794" x="50.644" y="45.334" ry=".198" rx=".198" width="2.268" fill="#9a916c"/><rect height=".794" x="50.644" y="43.917" ry=".198" rx=".198" width="2.268" fill="#9a916c"/><rect height=".794" x="50.644" y="42.5" ry=".198" rx=".198" width="2.268" fill="#9a916c"/><rect height=".794" x="49.779" y="40.374" ry=".198" rx=".198" width="2.268" fill="#9a916c" transform="rotate(90 50.282 40.14)"/><rect height=".794" x="48.362" y="40.374" ry=".198" rx=".198" width="2.268" fill="#9a916c" transform="rotate(90 48.865 40.14)"/><rect height=".794" x="46.945" y="40.374" ry=".198" rx=".198" width="2.268" fill="#9a916c" transform="rotate(90 47.448 40.14)"/><rect height=".794" x="45.527" y="40.374" ry=".198" rx=".198" width="2.268" fill="#9a916c" transform="rotate(90 46.03 40.14)"/><rect height=".794" x="44.11" y="40.374" ry=".198" rx=".198" width="2.268" fill="#9a916c" transform="rotate(90 44.613 40.14)"/><rect height=".794" x="42.693" y="40.374" ry=".198" rx=".198" width="2.268" fill="#9a916c" transform="rotate(90 43.196 40.14)"/><path fill="#9a916c" d="M42.565 42.897h7.087v7.087h-7.087z"/><circle r="1.897" cy="61.2" cx="126.028" fill="none" stroke="#9a916c" stroke-width=".959"/><circle r="1.897" cy="61.2" cx="118.828" fill="none" stroke="#9a916c" stroke-width=".959"/><circle r="1.897" cy="61.2" cx="111.628" fill="none" stroke="#9a916c" stroke-width=".959"/><circle r="1.897" cy="61.2" cx="104.428" fill="none" stroke="#9a916c" stroke-width=".959"/><circle r="1.897" cy="61.2" cx="97.228" fill="none" stroke="#9a916c" stroke-width=".959"/><circle r="1.897" cy="61.2" cx="90.028" fill="none" stroke="#9a916c" stroke-width=".959"/><circle r="1.897" cy="61.2" cx="82.828" fill="none" stroke="#9a916c" stroke-width=".959"/><circle r="1.897" cy="61.2" cx="75.628" fill="none" stroke="#9a916c" stroke-width=".959"/><circle r="1.897" cy="61.2" cx="68.428" fill="none" stroke="#9a916c" stroke-width=".959"/><circle r="1.897" cy="61.2" cx="61.228" fill="none" stroke="#9a916c" stroke-width=".959"/><circle r="1.897" cy="61.2" cx="54.028" fill="none" stroke="#9a916c" stroke-width=".959"/><circle r="1.897" cy="61.2" cx="46.828" fill="none" stroke="#9a916c" stroke-width=".959"/><circle r="1.897" cy="61.2" cx="39.628" fill="none" stroke="#9a916c" stroke-width=".959"/><circle r="1.897" cy="61.2" cx="32.428" fill="none" stroke="#9a916c" stroke-width=".959"/><circle r="1.897" cy="61.2" cx="25.228" fill="none" stroke="#9a916c" stroke-width=".959"/><circle r="1.897" cy="61.2" cx="18.028" fill="none" stroke="#9a916c" stroke-width=".959"/><circle r="1.897" cy="3.6" cx="46.828" fill="none" stroke="#9a916c" stroke-width=".959"/><circle r="1.897" cy="3.6" cx="54.028" fill="none" stroke="#9a916c" stroke-width=".959"/><circle r="1.897" cy="3.6" cx="61.228" fill="none" stroke="#9a916c" stroke-width=".959"/><circle r="1.897" cy="3.6" cx="68.428" fill="none" stroke="#9a916c" stroke-width=".959"/><circle r="1.897" cy="3.6" cx="75.628" fill="none" stroke="#9a916c" stroke-width=".959"/><circle r="1.897" cy="3.6" cx="82.828" fill="none" stroke="#9a916c" stroke-width=".959"/><circle r="1.897" cy="3.6" cx="90.028" fill="none" stroke="#9a916c" stroke-width=".959"/><circle r="1.897" cy="3.6" cx="97.228" fill="none" stroke="#9a916c" stroke-width=".959"/><circle r="1.897" cy="3.6" cx="104.428" fill="none" stroke="#9a916c" stroke-width=".959"/><circle r="1.897" cy="3.6" cx="111.628" fill="none" stroke="#9a916c" stroke-width=".959"/><circle r="1.897" cy="3.6" cx="118.828" fill="none" stroke="#9a916c" stroke-width=".959"/><circle r="1.897" cy="3.6" cx="126.028" fill="none" stroke="#9a916c" stroke-width=".959"/><path fill="#9a916c" d="M71.894 40.56h-2.268v-2.55h2.268zM66.508 40.56H64.24v-2.55h2.268zM69.202 46.513h-2.268v-2.551h2.268zM64.241 23.879h2.268v2.551h-2.268zM69.627 23.879h2.268v2.551h-2.268zM66.934 17.926h2.268v2.551h-2.268zM72.757 12.577H69.64V9.742h3.118zM67.938 12.577H64.82V9.742h3.118zM13.7 51.503h3.118v2.835H13.7zM18.519 51.503h3.118v2.835h-3.118zM72.757 16.537H69.64v-2.835h3.118zM67.938 16.537H64.82v-2.835h3.118zM72.037 32.377H68.92v-2.835h3.118zM67.218 32.377H64.1v-2.835h3.118zM64.774 33.786h2.268v2.268h-2.268zM69.094 33.786h2.268v2.268h-2.268zM65.18 52.223h3.118v2.835H65.18zM69.999 52.223h3.118v2.835h-3.118zM46.46 14.423h3.118v2.835H46.46zM51.279 14.423h3.118v2.835h-3.118zM60.486 24.832v3.118H57.65v-3.118zM60.486 29.65v3.119H57.65V29.65zM73.117 51.097H70v-2.835h3.118zM68.298 51.097H65.18v-2.835h3.118zM17.286 1.072V4.19H14.45V1.072zM17.286 5.89V9.01H14.45V5.89zM57.322 37.746v2.268h-2.268v-2.268zM57.322 42.066v2.268h-2.268v-2.268zM40.204 39.348h-3.312v-4.536h3.312zM35.884 39.348h-3.312v-4.536h3.312z"/><path fill="#9a916c" d="M37.288 37.368h-1.8v-.576h1.8zM30.212 51.335v2.551h-2.55v-2.55zM30.212 39.713v2.551h-2.551v-2.55zM25.677 51.335v2.551h-2.551v-2.551zM25.676 39.713v2.55h-2.55v-2.55z"/><circle r="4.263" cy="7.2" cx="7.228" fill="none" stroke="#9a916c" stroke-width="1.44"/><circle r="4.263" cy="57.6" cx="7.228" fill="none" stroke="#9a916c" stroke-width="1.44"/><rect height="2.835" x="30.472" y="6.503" ry="1.417" rx="1.417" width="2.835" fill="#9a916c" transform="rotate(90 31.259 7.29)"/><rect height="2.835" x="117.726" y="30.243" ry="1.417" rx="1.417" width="2.835" fill="#9a916c" transform="rotate(90 118.513 31.03)"/><path fill="#9a916c" d="M52.413 25.792v-1.559h3.402v1.559zM52.413 23.1v-1.56h3.402v1.56zM52.412 20.406v-1.559h3.402v1.56zM45.042 20.407v-1.56h3.402v1.56zM45.042 25.792v-1.559h3.402v1.56zM48.444 28.568v1.559h-3.402v-1.56zM48.444 31.26v1.56h-3.402v-1.56zM48.444 33.954v1.559h-3.402v-1.56zM55.814 33.954v1.559h-3.402v-1.56zM55.815 28.568v1.559h-3.402v-1.559zM26.376 14.049h2.835v13.039h-2.835zM32.046 14.049h2.835v13.039h-2.835zM18.722 10.647V1.009h4.535v9.638zM37.998 10.647V1.009h4.535v9.638zM121.045 8.306v5.669h-3.402V8.306zM115.375 8.306v5.669h-3.402V8.306zM109.706 8.306v5.67h-3.402v-5.67zM104.037 8.306v5.669h-3.402v-5.67zM98.367 8.306v5.669h-3.402v-5.67zM92.698 8.306v5.67h-3.402v-5.67zM87.03 8.305v5.67h-3.403v-5.67zM81.36 8.305v5.67h-3.402v-5.67zM81.36 50.825v5.67h-3.403v-5.67zM87.03 50.825v5.669h-3.403v-5.67zM92.698 50.826v5.669h-3.402v-5.67zM98.367 50.825v5.67h-3.402v-5.67zM104.036 50.825v5.669h-3.402v-5.669zM109.706 50.826v5.669h-3.402v-5.67zM115.375 50.826v5.669h-3.402v-5.67zM121.044 50.825v5.67h-3.402v-5.67zM74.642 16.526h5.669v3.402h-5.669zM74.642 22.195h5.669v3.402h-5.669zM74.642 27.865h5.669v3.402h-5.669zM74.642 33.534h5.669v3.402h-5.669zM74.642 39.203h5.669v3.402h-5.669zM74.642 44.872h5.669v3.402h-5.669zM4.124 28.857h5.669v2.835H4.124zM4.124 33.109h5.669v2.835H4.124zM16.738 31.833v1.134h-3.827v-1.134zM16.739 29.99v1.135h-3.827V29.99zM16.738 35.518v1.134h-3.827v-1.134zM16.739 33.676v1.134h-3.827v-1.134z"/><circle r="1.494" cy="23.046" cx="15.179" fill="none" stroke="#9a916c" stroke-width=".72"/><path d="M13.686 20.058h2.987v4.482h-2.987v-4.482m0 2.988a1.494 1.494 0 1 0 2.987 0 1.494 1.494 0 1 0-2.987 0z" fill="#9a916c"/><circle r="1.494" cy="41.754" cx="15.179" fill="none" stroke="#9a916c" stroke-width=".72"/><path d="M13.686 40.26h2.987v4.482h-2.987v-4.481m0 1.493a1.494 1.494 0 1 0 2.987 0 1.494 1.494 0 1 0-2.987 0z" fill="#9a916c"/><circle r="2.409" cy="22.195" cx="7.242" fill="none" stroke="#9a916c" stroke-width="2.268"/><path fill="none" stroke="#9a916c" stroke-width="2.268" d="M4.833 19.786h4.819v4.819H4.833z"/><circle r="2.409" cy="42.605" cx="7.242" fill="none" stroke="#9a916c" stroke-width="2.268"/><path fill="none" stroke="#9a916c" stroke-width="2.268" d="M4.833 40.195h4.819v4.819H4.833z"/><path fill="#9a916c" d="M16.738 28.148v1.134h-3.827v-1.134z"/><path d="M59.097 21.451v-5.103c0-.155.127-.282.283-.282h2.977c.156 0 .283.127.283.283v5.102a.283.283 0 0 1-.283.283H59.38a.282.282 0 0 1-.283-.282z" fill="#dcdcdc"/><path fill="#6e554b" d="M62.64 17.128v3.543h-3.543v-3.543z"/><path d="M28.797 28.468H33.9c.156 0 .283.127.283.283v2.977a.283.283 0 0 1-.283.283h-5.102a.283.283 0 0 1-.283-.283v-2.977a.282.282 0 0 1 .282-.283z" fill="#dcdcdc"/><path fill="#6e554b" d="M33.12 32.011h-3.543v-3.543h3.543z"/><path d="M24.726 25.514v5.103a.283.283 0 0 1-.283.283h-2.977a.283.283 0 0 1-.283-.283v-5.102c0-.157.127-.283.283-.283h2.977a.282.282 0 0 1 .283.282z" fill="#dcdcdc"/><path fill="#6e554b" d="M21.183 29.837v-3.543h3.543v3.543z"/><path d="M33.766 53.242v-3.955c0-.16.13-.29.291-.29h1.687c.16 0 .29.13.29.29v3.955c0 .16-.13.29-.29.29h-1.687a.29.29 0 0 1-.29-.29z" fill="#dcdcdc"/><path fill="#6e554b" d="M36.034 50.131V52.4h-2.268v-2.268z"/><path d="M38.98 31.522v-5.103c0-.156.126-.283.282-.283h2.977c.156 0 .283.127.283.283v5.102a.283.283 0 0 1-.283.283h-2.977a.282.282 0 0 1-.283-.282z" fill="#dcdcdc"/><path fill="#6e554b" d="M42.522 27.199v3.543H38.98v-3.543z"/><g transform="rotate(90 -18.743 28.445)"><path d="M3.543.282v5.103a.283.283 0 0 1-.283.283H.283A.283.283 0 0 1 0 5.385V.283C0 .126.127 0 .283 0H3.26a.282.282 0 0 1 .283.282z" fill="#dcdcdc"/><path fill="#ff0" d="M0 1.062h3.543v3.543H0z"/><circle r=".567" cy="2.833" cx="1.772" fill="#b4b400"/></g><g transform="rotate(90 -1.463 12.425)"><path d="M3.543.282v5.103a.283.283 0 0 1-.283.283H.283A.283.283 0 0 1 0 5.385V.283C0 .126.127 0 .283 0H3.26a.282.282 0 0 1 .283.282z" fill="#dcdcdc"/><path fill="red" d="M0 1.062h3.543v3.543H0z"/><circle r=".567" cy="2.833" cx="1.772" fill="#a00000"/></g><path fill="#dcdcdc" d="M55.89 12.725H45.687v-2.41H55.89z"/><path fill="#303030" d="M54.615 13.859H46.96V9.182h7.654z"/><path fill="#4d4d4d" d="M53.836 13.852h-1.352V9.185h1.352z"/><g transform="translate(40.35 40.77)"><rect height="11.339" ry=".567" rx=".567" width="11.339" fill="#333"/><circle r=".538" cy="1.321" cx="1.268" fill="#666"/></g><path fill="#dcdcdc" d="M71.47 41.412h-1.417v-2.976h1.417zM66.084 41.412h-1.417v-2.976h1.417zM68.777 46.089H67.36V42.97h1.417z"/><path fill="#303030" d="M72.32 44.105h-8.504V40.42h8.504z"/><path fill="#dcdcdc" d="M64.666 23.028h1.417v2.976h-1.417zM70.052 23.028h1.417v2.976h-1.417zM67.36 18.351h1.416v3.118H67.36z"/><path fill="#303030" d="M63.816 20.335h8.504v3.685h-8.504z"/><path d="M66.81 10.026h3.956c.16 0 .29.13.29.291v1.687c0 .16-.13.29-.29.29H66.81a.29.29 0 0 1-.29-.29v-1.687a.29.29 0 0 1 .29-.291z" fill="#dcdcdc"/><path fill="#333" d="M69.922 12.294h-2.268v-2.268h2.268z"/><path d="M19.646 54.054H15.69a.29.29 0 0 1-.29-.291v-1.687c0-.16.13-.29.29-.29h3.955c.16 0 .29.13.29.29v1.687a.29.29 0 0 1-.29.291z" fill="#dcdcdc"/><path fill="#333" d="M16.535 51.786h2.268v2.268h-2.268z"/><path d="M66.81 13.986h3.956c.16 0 .29.13.29.291v1.687c0 .16-.13.29-.29.29H66.81a.29.29 0 0 1-.29-.29v-1.687a.29.29 0 0 1 .29-.291z" fill="#dcdcdc"/><path fill="#333" d="M69.922 16.254h-2.268v-2.268h2.268z"/><g><path d="M66.09 29.826h3.956c.16 0 .29.13.29.291v1.687c0 .16-.13.29-.29.29H66.09a.29.29 0 0 1-.29-.29v-1.687a.29.29 0 0 1 .29-.291z" fill="#dcdcdc"/><path fill="#333" d="M69.202 32.094h-2.268v-2.268h2.268z"/></g><g><path d="M70.046 36.054H66.09a.29.29 0 0 1-.29-.291v-1.687c0-.16.13-.29.29-.29h3.955c.16 0 .29.13.29.29v1.687a.29.29 0 0 1-.29.291z" fill="#dcdcdc"/><path fill="#333" d="M66.935 33.786h2.268v2.268h-2.268z"/></g><g><path d="M71.126 54.774H67.17a.29.29 0 0 1-.29-.291v-1.687c0-.16.13-.29.29-.29h3.955c.16 0 .29.13.29.29v1.687a.29.29 0 0 1-.29.291z" fill="#dcdcdc"/><path fill="#333" d="M68.015 52.506h2.268v2.268h-2.268z"/></g><g><path d="M52.406 16.974H48.45a.29.29 0 0 1-.29-.291v-1.687c0-.16.13-.29.29-.29h3.955c.16 0 .29.13.29.29v1.687a.29.29 0 0 1-.29.291z" fill="#dcdcdc"/><path fill="#333" d="M49.295 14.706h2.268v2.268h-2.268z"/></g><g><path d="M57.934 30.777v-3.955c0-.16.13-.29.291-.29h1.687c.16 0 .29.13.29.29v3.955c0 .16-.13.29-.29.29h-1.687a.29.29 0 0 1-.29-.29z" fill="#dcdcdc"/><path fill="#333" d="M60.202 27.666v2.268h-2.268v-2.268z"/></g><g><path d="M67.17 48.546h3.956c.16 0 .29.13.29.291v1.687c0 .16-.13.29-.29.29H67.17a.29.29 0 0 1-.29-.29v-1.687a.29.29 0 0 1 .29-.291z" fill="#dcdcdc"/><path fill="#333" d="M70.282 50.814h-2.268v-2.268h2.268z"/></g><g><path d="M14.734 7.018V3.063c0-.16.13-.29.291-.29h1.687c.16 0 .29.13.29.29v3.954c0 .16-.13.29-.29.29h-1.687a.29.29 0 0 1-.29-.29z" fill="#dcdcdc"/><path fill="#333" d="M17.002 3.906v2.268h-2.268V3.907z"/></g><g><path d="M55.054 43.017v-3.955c0-.16.13-.29.291-.29h1.687c.16 0 .29.13.29.29v3.956c0 .16-.13.29-.29.29h-1.687a.29.29 0 0 1-.29-.29z" fill="#dcdcdc"/><path fill="#333" d="M57.322 39.907v2.268h-2.268v-2.268z"/></g><g><g transform="rotate(90 -4.75 35.671)"><path fill="#dcdcdc" d="M0 2.692h1.417v3.119H0v1.417h1.417v1.276h9.922V7.228h1.417V5.811h-1.417V2.692h1.417V1.275h-1.417V0H1.417v1.275H0z"/><circle r="2.48" cy="4.252" cx="6.378" fill="#1e1e1e"/><path fill="#b4b4b4" d="M.992 0h.567v8.504H.992zM11.197 0h.567v8.504h-.567z"/></g></g><g><path d="M64.311 47.297c-.032-.2-.14-.256-.403-.34-.199-.065-1.533-.49-1.533-.49s-.93-.35-1.619.147a4.713 4.713 0 0 0-.286.224c.082-.097.158-.193.224-.286.495-.69.143-1.62.143-1.62s-.427-1.333-.492-1.532c-.085-.262-.142-.37-.342-.402-.2-.032-.288.054-.449.277l-.939 1.307s-.62.777-.36 1.586c.033.109.076.224.124.34a4.797 4.797 0 0 0-.203-.301c-.503-.684-1.496-.636-1.496-.636l-1.61-.006c-.275-.001-.396.02-.488.2-.09.182-.037.292.126.514l.953 1.296s.546.83 1.395.834c.114 0 .236-.005.362-.014-.122.03-.24.064-.348.1-.806.268-1.067 1.227-1.067 1.227L55.5 51.25c-.086.261-.103.384.04.527.144.143.265.126.526.04a992.46 992.46 0 0 0 1.528-.506s.958-.263 1.224-1.07c.036-.108.07-.225.1-.348a4.572 4.572 0 0 0-.013.361c.005.85.836 1.395.836 1.395l1.298.95c.223.162.333.216.514.125.181-.092.201-.213.2-.488 0-.21-.009-1.61-.009-1.61s.047-.993-.639-1.495a5.228 5.228 0 0 0-.3-.203c.116.048.231.09.34.125.81.258 1.583-.364 1.583-.364s1.136-.82 1.306-.941c.223-.161.31-.25.277-.45zm-4.822-1.03c.152.023.228.348.17.725-.06.378-.232.663-.385.639-.153-.025-.229-.35-.169-.726.06-.377.231-.663.384-.639zm-1.956.998c.07-.137.402-.11.742.064.34.173.558.425.488.563-.07.138-.402.11-.742-.063-.34-.173-.558-.425-.488-.563zm1.031 1.879c-.269.27-.577.4-.686.29-.109-.108.02-.415.29-.685.27-.27.576-.4.686-.292.11.11-.02.417-.29.687zm1.484.633c-.138.07-.39-.148-.563-.487-.174-.34-.203-.673-.065-.743.138-.07.39.148.563.487.173.34.202.672.065.743zm.357-1.573c-.377.06-.7-.015-.726-.168-.024-.153.262-.325.638-.385.377-.06.701.015.726.168.024.153-.26.325-.638.385z" fill="#dcdcdc"/></g><g><path fill="#dcdcdc" d="M46.601 25.58v-1.134h7.654v1.134zM46.601 20.194V19.06h7.654v1.134zM51.136 22.887v-1.134h3.118v1.134z"/><path fill="#303030" d="M48.16 26.43v-8.22h4.535v8.22z"/></g><g><path fill="#dcdcdc" d="M54.255 28.78v1.134h-7.654V28.78zM54.255 34.166V35.3h-7.654v-1.134zM49.72 31.473v1.134h-3.118v-1.134z"/><path fill="#303030" d="M52.696 27.93v8.22h-4.535v-8.22z"/></g><g><path fill="#666" d="M39.133 3.419V1.293H22.125v2.126H19.29V18.3h22.677V3.419z"/><path d="M23.542 6.962h2.835v8.504h-2.835zM34.88 6.962h2.836v8.504H34.88z"/><path fill="#333" d="M23.542 15.466h2.835V18.3h-2.835zM34.88 15.466h2.836V18.3H34.88zM19.29 18.3h2.268v4.253H19.29zM39.699 18.3h2.268v4.253h-2.268z"/><path fill="#dcdcdc" d="M26.802 18.3h1.984v7.088h-1.984zM32.47 18.3h1.985v7.088H32.47z"/></g><g><g transform="matrix(0 1.00895 -1 0 143.75 9.452)"><defs><clipPath id="a"><path d="M541.75 376.412h34.571v-26.598H541.75v26.598z"/></clipPath><clipPath id="b"><path d="M568.104 377.805h3.588v-1.351h-3.588v1.351z"/></clipPath><clipPath id="c"><path d="M544.869 395.352h13.947v-21.226H544.87v21.226z"/></clipPath></defs><path d="M.75 24.54a.655.655 0 0 1-.654.656v4.341a.655.655 0 0 1 0 1.312V35.18a.655.655 0 1 1 0 1.311v4.336a.655.655 0 0 1 0 1.312v4.336a.655.655 0 0 1 0 1.31v4.338a.655.655 0 1 1 0 1.31v4.337a.655.655 0 0 1 0 1.311v4.336a.655.655 0 0 1 0 1.311v3.205h8.087l-.002-.008a.711.711 0 0 1 1.42 0v.008h4.086l-.002-.008a.711.711 0 0 1 1.421 0l-.002.008h4.087l-.001-.008a.711.711 0 0 1 1.42 0l-.001.008h4.086l-.001-.008a.711.711 0 0 1 1.42 0l-.001.008h4.086l-.001-.008a.711.711 0 0 1 1.42 0l-.001.008h4.086l-.001-.008a.711.711 0 0 1 1.42 0l-.001.008h8.13v-3.205a.655.655 0 0 1 0-1.31V59.08a.655.655 0 0 1 0-1.311v-4.337a.655.655 0 0 1 0-1.31v-4.337a.655.655 0 0 1 0-1.31v-4.338a.655.655 0 0 1 0-1.31V36.49a.655.655 0 0 1 0-1.31v-4.332a.655.655 0 0 1 0-1.312v-4.341a.655.655 0 0 1 0-1.311V.1H.096v23.785c.361 0 .654.294.654.656" fill="#332e30"/><path d="M45.152.2H.196v23.592a.756.756 0 0 1 0 1.498v4.155c.369.05.655.366.655.748 0 .383-.286.7-.655.75v4.144a.756.756 0 0 1 0 1.498v4.15c.369.05.655.366.655.748 0 .383-.286.7-.655.75v4.15a.756.756 0 0 1 0 1.497v4.15a.756.756 0 0 1 0 1.497v4.15a.756.756 0 0 1 0 1.498v4.15a.756.756 0 0 1 0 1.498v3.011h7.891a.81.81 0 0 1 1.61 0h3.895a.81.81 0 0 1 1.609 0h3.895a.81.81 0 0 1 1.61 0H24.6a.81.81 0 0 1 1.61 0h3.894a.81.81 0 0 1 1.61 0h3.894a.81.81 0 0 1 1.61 0h7.934v-3.011a.756.756 0 0 1 0-1.499v-4.15a.756.756 0 0 1 0-1.498v-4.149a.756.756 0 0 1 0-1.497v-4.15a.756.756 0 0 1 0-1.498v-4.15a.758.758 0 0 1-.654-.749c0-.382.286-.698.654-.748v-4.15a.756.756 0 0 1 0-1.498v-4.145a.758.758 0 0 1-.654-.749c0-.382.286-.698.654-.748V25.29a.756.756 0 0 1 0-1.498V.2zM-.003.001H45.35v23.984h-.1a.555.555 0 0 0 0 1.112h.1v4.54h-.1a.556.556 0 0 0 0 1.112h.1v4.53h-.1a.556.556 0 0 0 0 1.113h.1v4.536h-.1a.556.556 0 0 0 0 1.112h.1v4.535h-.1a.555.555 0 0 0 0 1.112h.1v4.536h-.1a.555.555 0 0 0 0 1.112h.1v4.534h-.1a.556.556 0 0 0 0 1.113h.1v4.535h-.1a.556.556 0 0 0 0 1.113h.1v3.403h-8.329l.005-.131a.613.613 0 0 0-1.225.006l.002.025v.1h-4.286l.001-.122a.613.613 0 0 0-.61-.598.612.612 0 0 0-.611.6l.001.02v.1h-4.285l.004-.131a.613.613 0 0 0-1.224.01l.001.021v.1H20.51l.004-.131a.613.613 0 0 0-1.224.01l.001.021v.1h-4.286l.006-.131a.614.614 0 0 0-1.225.01l.001.021v.1H9.501l.005-.131a.613.613 0 0 0-1.225.01l.002.021v.1H-.003V64.63h.099a.556.556 0 0 0 0-1.113h-.1v-4.535h.1a.556.556 0 0 0 0-1.113h-.1v-4.534h.1a.556.556 0 0 0 0-1.112h-.1v-4.536h.1a.556.556 0 0 0 0-1.112h-.1V42.04h.1a.556.556 0 0 0 0-1.112h-.1v-4.536h.1a.556.556 0 0 0 0-1.112h-.1v-4.53h.1a.556.556 0 0 0 0-1.113h-.1v-4.54h.1a.556.556 0 0 0 0-1.112h-.1V.001z" fill="#231f20"/><g clip-path="url(#a)" opacity=".25" transform="matrix(-.91858 0 0 .91994 537.588 -319.284)"><path d="M575.4 349.814h-3.428a.921.921 0 0 0-.922.92v10.84h-1.625v-10.84a.921.921 0 0 0-.921-.92h-3.469a.921.921 0 0 0-.921.92v10.84h-1.785v-10.44a.92.92 0 0 0-.921-.92h-3.35a.92.92 0 0 0-.92.92v10.44h-1.785v-10.44a.92.92 0 0 0-.922-.92h-11.76a.92.92 0 1 0 0 1.84h10.84v10.442c0 .508.412.92.92.92h3.627a.921.921 0 0 0 .922-.92v-10.441h1.506v10.44c0 .51.413.921.922.921h3.627a.921.921 0 0 0 .922-.92v-10.84h1.625v10.84c0 .508.413.92.922.92h3.468c.508 0 .92-.412.92-.92v-10.84h1.586v15.38h-20.286a.92.92 0 1 0 0 1.842h20.286v6.613a.92.92 0 1 0 1.844 0v-24.756a.921.921 0 0 0-.922-.921" fill="#a87b53"/></g><g clip-path="url(#clipPath11251)" opacity=".8" transform="matrix(-.91858 0 0 .91994 537.588 -319.284)"><path d="M539.39 369.876h8.497v-3.808h-8.497v3.808z" fill="#ced0d0"/></g><path d="M41.513 20.697c0 .148-.11.268-.247.268H35.16c-.136 0-.247-.12-.247-.268V17.76c0-.148.11-.268.247-.268h6.106c.137 0 .247.12.247.268v2.938z" fill="#b7b9bb"/><path d="M40.362 17.482h-4.204v3.478h4.204v-3.478z" fill="#f59331"/><path d="M40.286 17.558h-4.051v3.325h4.051v-3.325zm-4.128-.154h4.205c.042 0 .077.034.077.077v3.479a.077.077 0 0 1-.077.077h-4.205a.077.077 0 0 1-.076-.077V17.48c0-.043.034-.077.076-.077" fill="#929496"/><path d="M36.19 20.929h4.14v-3.418h-4.14v3.418zm-.064.03V17.48c0-.017.014-.03.032-.03h4.205c.017 0 .032.013.032.03v3.48c0 .016-.015.03-.032.03h-4.205a.031.031 0 0 1-.032-.03" fill="#f59331"/><path d="M40.255 17.589h-3.987v3.264h3.987V17.59zm-4.096-.216h4.205c.06 0 .108.049.108.108v3.48c0 .059-.049.107-.108.107h-4.205a.109.109 0 0 1-.11-.108v-3.479c0-.06.05-.108.11-.108" fill="#929496"/><path d="M40.336 17.482h.676v3.525h-.676v-3.525zM35.415 17.482h.676v3.525h-.676v-3.525z" fill="#d2d0d2"/><g clip-path="url(#clipPath11281)" opacity=".5" transform="matrix(-.91858 0 0 .91994 537.588 -319.284)"><path d="M541.333 369.182h4.542v-3.078h-4.542v3.078z" fill="#fff"/></g><g clip-path="url(#clipPath11295)" opacity=".5" transform="matrix(-.91858 0 0 .91994 537.588 -319.284)"><path d="M541.332 368.643h4.542v-2.538h-4.542v2.538z" fill="#fff"/></g><g clip-path="url(#clipPath11309)" opacity=".2" transform="matrix(-.91858 0 0 .91994 537.588 -319.284)"><path d="M544.694 368.205h.546v-.56h-.546v.56z" fill="#5d5e60"/></g><g clip-path="url(#clipPath11323)" opacity=".5" transform="matrix(-.91858 0 0 .91994 537.588 -319.284)"><path d="M541.333 369.681h4.542v-3.575h-4.542v3.575z" fill="#fff"/></g><path d="M42.235 52.067a.711.711 0 1 1 0 1.423.711.711 0 0 1 0-1.423m-1.167 2.17h4.183v-.747a.711.711 0 0 1 0-1.423v-.745h-4.183a.141.141 0 0 0-.14.141v2.632c0 .077.062.141.14.141M42.235 57.714a.711.711 0 1 1 0 1.422.711.711 0 0 1 0-1.422m-1.167 2.169h4.183v-.747a.711.711 0 0 1 0-1.422v-.746h-4.183a.141.141 0 0 0-.14.142v2.631c0 .078.062.142.14.142M42.235 63.361a.711.711 0 1 1 0 1.423.711.711 0 0 1 0-1.423m-1.167 2.17h4.183v-.747a.711.711 0 0 1 0-1.423v-.745h-4.183a.141.141 0 0 0-.14.141v2.632c0 .077.062.141.14.141M42.235 46.419a.711.711 0 1 1 0 1.422.711.711 0 0 1 0-1.422m-1.167 2.169h4.183v-.747a.711.711 0 0 1 0-1.422v-.746h-4.183a.141.141 0 0 0-.14.142v2.631c0 .078.062.142.14.142M42.235 40.771a.711.711 0 1 1 0 1.423.711.711 0 0 1 0-1.423m-1.167 2.17h4.183v-.747a.711.711 0 0 1 0-1.423v-.745h-4.183a.141.141 0 0 0-.14.141v2.632c0 .077.062.141.14.141M42.235 35.125a.711.711 0 1 1 0 1.422.711.711 0 0 1 0-1.422m-1.167 2.169h4.183v-.747a.711.711 0 0 1 0-1.422v-.746h-4.183a.141.141 0 0 0-.14.141v2.632c0 .077.062.142.14.142M42.235 29.476a.711.711 0 1 1 0 1.423.711.711 0 0 1 0-1.423m-1.167 2.17h4.183v-.747a.711.711 0 0 1 0-1.423v-.745h-4.183a.141.141 0 0 0-.14.141v2.632c0 .077.062.141.14.141M42.235 23.83a.711.711 0 1 1 0 1.422.711.711 0 0 1 0-1.422m-1.167 2.168h4.183v-.746a.711.711 0 0 1 0-1.422v-.746h-4.183a.141.141 0 0 0-.14.141v2.632c0 .077.062.141.14.141M3.112 36.547a.711.711 0 1 1 .001-1.423.711.711 0 0 1 0 1.423m1.166-2.169H.097v.746a.71.71 0 0 1 0 1.423v.745h4.182a.141.141 0 0 0 .141-.14v-2.633a.142.142 0 0 0-.141-.141M3.112 30.9a.711.711 0 1 1 .001-1.423.711.711 0 0 1 0 1.422m1.166-2.168H.097v.746a.71.71 0 0 1 0 1.422v.746h4.182a.141.141 0 0 0 .141-.141v-2.632a.142.142 0 0 0-.141-.141M3.112 25.252a.711.711 0 1 1 .001-1.423.711.711 0 0 1 0 1.423m1.166-2.169H.097v.746a.71.71 0 0 1 0 1.423v.745h4.182a.141.141 0 0 0 .141-.14v-2.633a.142.142 0 0 0-.141-.141M3.112 42.194a.711.711 0 1 1 .001-1.422.711.711 0 0 1 0 1.422m1.166-2.168H.097v.746a.71.71 0 0 1 0 1.422v.746h4.182a.141.141 0 0 0 .141-.141v-2.632a.142.142 0 0 0-.141-.141M3.112 47.842a.711.711 0 1 1 .001-1.422.711.711 0 0 1 0 1.422m1.166-2.169H.097v.746a.71.71 0 0 1 0 1.423v.745h4.182a.141.141 0 0 0 .141-.14v-2.633a.142.142 0 0 0-.141-.14M3.112 53.49a.711.711 0 1 1 .001-1.423.711.711 0 0 1 0 1.422m1.166-2.168H.097v.746a.71.71 0 0 1 0 1.422v.746h4.182a.141.141 0 0 0 .141-.141v-2.632a.142.142 0 0 0-.141-.141M3.112 59.137a.711.711 0 1 1 .001-1.422.711.711 0 0 1 0 1.422m1.166-2.169H.097v.746a.71.71 0 0 1 0 1.423v.745h4.182a.141.141 0 0 0 .141-.14v-2.633a.142.142 0 0 0-.141-.14M3.112 64.784a.711.711 0 1 1 .001-1.422.711.711 0 0 1 0 1.422m1.166-2.168H.097v.746a.71.71 0 0 1 0 1.422v.746h4.182a.141.141 0 0 0 .141-.141v-2.632a.142.142 0 0 0-.141-.141M20.631 64.905a.711.711 0 1 1-1.422 0 .711.711 0 0 1 1.422 0m-2.165-1.169v4.19h.745a.711.711 0 1 1 1.42 0h.745v-4.19a.141.141 0 0 0-.141-.141h-2.628a.142.142 0 0 0-.141.141M15.128 64.905a.711.711 0 1 1-1.422 0 .711.711 0 0 1 1.422 0m-2.166-1.169v4.19h.746a.711.711 0 1 1 1.42 0h.744v-4.19a.141.141 0 0 0-.14-.141h-2.629a.142.142 0 0 0-.14.141M9.624 64.905a.711.711 0 1 1-1.423 0 .711.711 0 0 1 1.423 0m-2.166-1.169v4.19h.745a.711.711 0 1 1 1.42 0h.745v-4.19a.141.141 0 0 0-.14-.141H7.598a.142.142 0 0 0-.14.141M26.136 64.905a.711.711 0 1 1-1.422 0 .711.711 0 0 1 1.422 0m-2.165-1.169v4.19h.745a.711.711 0 1 1 1.42 0h.745v-4.19a.141.141 0 0 0-.141-.141h-2.628a.142.142 0 0 0-.141.141M31.64 64.905a.711.711 0 1 1-1.422 0 .711.711 0 0 1 1.422 0m-2.165-1.169v4.19h.745a.711.711 0 1 1 1.42 0h.745v-4.19a.141.141 0 0 0-.141-.141h-2.628a.142.142 0 0 0-.141.141M37.145 64.905a.711.711 0 1 1-1.423 0 .711.711 0 0 1 1.423 0m-2.166-1.169v4.19h.745a.711.711 0 1 1 1.42 0h.745v-4.19a.141.141 0 0 0-.141-.141H35.12a.142.142 0 0 0-.141.141" fill="#e1c57a"/><path d="M5.675 22.211c0-.124.101-.226.225-.226h33.546c.124 0 .226.102.226.226v40.69a.227.227 0 0 1-.226.226H5.9a.227.227 0 0 1-.225-.226V22.21z" fill="#e5dabd"/><path d="M39.446 63.077a.177.177 0 0 0 .177-.177V22.211a.178.178 0 0 0-.177-.177H5.901a.178.178 0 0 0-.177.177v40.69c0 .097.08.176.177.176h33.545zM5.901 21.934h33.545c.152 0 .275.124.275.277v40.69a.276.276 0 0 1-.275.275H5.901a.276.276 0 0 1-.276-.276V22.211c0-.153.124-.277.276-.277" fill="#808285"/><g clip-path="url(#clipPath11433)" opacity=".3" transform="matrix(-.91858 0 0 .91994 537.588 -319.284)"><path d="M569.238 373.875a3.618 3.618 0 0 0-3.618 3.618v14.576a3.618 3.618 0 0 0 3.618 3.619h2.387a3.618 3.618 0 0 0 3.619-3.619v-14.576a3.618 3.618 0 0 0-3.619-3.618h-2.387z" fill="#e1c57a"/></g><g clip-path="url(#clipPath11449)" opacity=".3" transform="matrix(-.91858 0 0 .91994 537.588 -319.284)"><path d="M570.558 377.305c-4.157 0-7.526 3.347-7.526 7.476s3.37 7.476 7.526 7.476c4.157 0 7.526-3.347 7.526-7.476s-3.37-7.476-7.526-7.476" fill="#e1c57a"/></g><path d="M17.367 35.667l-.006-7.759s-.31-2.526-2.595-2.526h-2.285s-2.608.3-2.608 2.635v3.56s.091 2.705 2.77 2.705h2.03s1.38-.117 2.694 1.385M11.281 37.68v1.248l2.597.382-2.585.474v1.121l2.585.486-2.585.37v1.271l4.42-1.063v-1.121l-2.723-.486 2.723-.497v-1.133L11.28 37.68zM15.69 37.149h-3.197v-1.145h3.197v1.145zM11.599 35.9c.315 0 .57.297.57.665 0 .367-.255.664-.57.664-.315 0-.571-.297-.571-.664 0-.368.256-.665.57-.665" fill="#e5dabd"/><g clip-path="url(#b)" opacity=".3" transform="matrix(-.91858 0 0 .91994 537.588 -319.284)"><path d="M568.158 377.751h3.48v-1.244h-3.48v1.244z" fill="#e1c57a"/><path d="M568.212 376.561h3.373v1.136h-3.373v-1.136zm3.48-.108h-3.589v1.352h3.589v-1.352z" fill="#f1f2f2"/></g><g><g clip-path="url(#clipPath11495)" opacity=".3" transform="matrix(-.91858 0 0 .91994 537.588 -319.284)"><path d="M572.612 376.394c-.343 0-.622.323-.622.722 0 .4.279.723.622.723.343 0 .622-.323.622-.723 0-.399-.279-.722-.622-.722" fill="#e1c57a"/><path d="M572.612 377.785c-.313 0-.568-.3-.568-.668 0-.368.255-.669.568-.669.313 0 .568.301.568.669 0 .369-.255.668-.568.668m0-1.445c-.373 0-.676.348-.676.777 0 .428.303.776.676.776.373 0 .676-.348.676-.776 0-.429-.303-.777-.676-.777" fill="#f1f2f2"/></g></g><g><g clip-path="url(#clipPath11515)" opacity=".3" transform="matrix(-.91858 0 0 .91994 537.588 -319.284)"><path d="M572.945 382.651v-4.134h-1.13v2.802h-1.068v-2.526h-1.119v2.526h-1.457v1.332h4.774z" fill="#e1c57a"/><path d="M571.868 378.571h1.023v4.026h-4.667v-1.223h1.458v-2.527h1.01v2.527h1.176v-2.803zm1.131-.108h-1.239v2.803h-.96v-2.527h-1.226v2.527h-1.458v1.44h4.883v-4.243z" fill="#f1f2f2"/></g></g><g><g clip-path="url(#clipPath11535)" opacity=".3" transform="matrix(-.91858 0 0 .91994 537.588 -319.284)"><path d="M545.09 402.355a4.081 4.081 0 1 0 6.494-3.293l.002-1.753a5.595 5.595 0 0 1-1.68 10.59v3.482c0 .138.054.11.054.11h2.722c.277 0 .387-.304.387-.304v-3.624c0-.166.083-.055.083-.055h1.825l.083.055v4.286c0 .41-.32.844-.69 1.11-.452.326-.969.44-.969.44h-9.539c-.194 0-.278-.277-.278-.277v-1.577c0-.25.03-.083.03-.083h4.726c.14 0 .084-.081.084-.081v-3.483a5.593 5.593 0 0 1-4.845-5.543 5.582 5.582 0 0 1 3.125-5.03l-.012 1.787a4.076 4.076 0 0 0-1.602 3.243" fill="#e1c57a"/><path d="M551.638 399.036l.002-1.64a5.571 5.571 0 0 1 3.07 4.96 5.55 5.55 0 0 1-4.811 5.49l-.047.007v3.528c0 .145.061.167.098.167l2.733-.003c.31 0 .433-.324.438-.338l.003-.019V407.561l.002.002h1.835l.046.03v4.257c0 .405-.336.828-.668 1.065-.438.316-.943.43-.949.431h-9.527c-.135 0-.21-.193-.223-.232v-1.568-.028h4.701c.027 0 .107 0 .139-.06a.099.099 0 0 0-.001-.09v-3.516l-.047-.006a5.553 5.553 0 0 1-4.799-5.49 5.5 5.5 0 0 1 3.018-4.942l-.013 1.673a4.105 4.105 0 0 0-1.6 3.269 4.14 4.14 0 0 0 4.134 4.136 4.14 4.14 0 0 0 4.134-4.136 4.153 4.153 0 0 0-1.668-3.32m-.106-1.812l-.002 1.867.022.016a4.043 4.043 0 0 1 1.646 3.249 4.032 4.032 0 0 1-4.026 4.028 4.032 4.032 0 0 1-4.027-4.028c0-1.265.576-2.431 1.58-3.2l.021-.016v-.026l.014-1.876-.078.039a5.61 5.61 0 0 0-3.157 5.079 5.662 5.662 0 0 0 4.846 5.591l.006 3.46c-.008 0-.018.003-.036.003h-4.684c-.009-.03-.025-.056-.06-.056-.065 0-.065.07-.065.192l.001 1.593c.004.012.099.315.33.315h9.539c.034-.006.545-.121 1-.45.329-.235.713-.68.713-1.154v-4.315l-.121-.08h-1.817a.105.105 0 0 0-.074-.037c-.04 0-.087.025-.087.146v3.614c-.02.046-.12.259-.333.259h-2.718a.231.231 0 0 1-.005-.056v-3.433a5.659 5.659 0 0 0 4.857-5.592 5.68 5.68 0 0 0-3.207-5.095l-.078-.037z" fill="#f1f2f2"/><path d="M551.119 402.355c0-.673-.294-1.266-.812-1.617l.006-1.604a3.417 3.417 0 0 1-1.142 6.637 3.417 3.417 0 0 1-1.19-6.62l-.014 1.671a1.95 1.95 0 0 0 1.204 3.482 1.949 1.949 0 0 0 1.948-1.949" fill="#e1c57a"/><path d="M550.362 400.71l.006-1.498a3.372 3.372 0 0 1 2.165 3.144 3.365 3.365 0 0 1-3.361 3.361 3.365 3.365 0 0 1-3.361-3.361c0-1.374.847-2.619 2.116-3.124l-.013 1.564c-.474.383-.746.95-.746 1.56a2.004 2.004 0 0 0 4.006 0c0-.686-.295-1.284-.812-1.646m-.102-1.652l-.007 1.709.024.016c.502.34.789.913.789 1.573 0 1.044-.85 1.893-1.894 1.893a1.897 1.897 0 0 1-1.896-1.893c0-.585.264-1.128.725-1.49l.021-.016v-.026l.015-1.75-.074.027a3.483 3.483 0 0 0-2.26 3.255 3.473 3.473 0 0 0 3.469 3.47 3.473 3.473 0 0 0 3.47-3.47 3.479 3.479 0 0 0-2.31-3.273l-.072-.025z" fill="#f1f2f2"/></g></g><g><g clip-path="url(#clipPath11563)" opacity=".3" transform="matrix(-.91858 0 0 .91994 537.588 -319.284)"><path d="M577.59 406.058c.018-.08.014-.162.018-.242.013-.184.016-.37.003-.555a6.672 6.672 0 0 0-4.26-5.975 6.69 6.69 0 0 0-2.95-.427c-.04.08-.061.17-.094.255-.021.07-.056.138-.063.212a11.066 11.066 0 0 1 6.796 6.642c.03.079.054.16.088.236.024.017.052-.007.076-.01.128-.048.259-.086.386-.136" fill="#e1c57a"/><path d="M570.436 398.91a6.6 6.6 0 0 1 2.896.426 6.633 6.633 0 0 1 2.982 2.304 6.638 6.638 0 0 1 1.243 3.623 3.7 3.7 0 0 1-.004.548l-.002.065c-.001.05-.002.097-.01.141-.06.023-.121.044-.182.065l-.174.06c-.001.002-.012.003-.022.006a1.918 1.918 0 0 1-.037-.102 11.076 11.076 0 0 0-3.414-4.848 11.12 11.12 0 0 0-3.407-1.909c.006-.029.017-.057.029-.087l.024-.073a1.28 1.28 0 0 0 .032-.093c.016-.044.028-.087.046-.126m.502-.128c-.18 0-.362.007-.542.022l-.03.002-.014.028a1.11 1.11 0 0 0-.064.168c-.01.03-.02.062-.032.092a1.471 1.471 0 0 1-.024.071.602.602 0 0 0-.042.155l-.005.042.04.014a10.984 10.984 0 0 1 3.417 1.907 10.963 10.963 0 0 1 3.381 4.799c.017.049.034.098.055.144l.006.014.013.008c.031.023.077.013.102.004l.023-.008c.057-.021.115-.04.172-.06.072-.024.144-.048.215-.076l.027-.01.006-.029c.015-.063.016-.128.017-.19l.002-.062c.015-.193.017-.383.004-.56a6.743 6.743 0 0 0-1.263-3.68 6.745 6.745 0 0 0-3.03-2.342 6.71 6.71 0 0 0-2.434-.453" fill="#f1f2f2"/><path d="M576.801 408.704c.022-.045.058-.089.05-.142a10.243 10.243 0 0 0-1.716-4.559 10.305 10.305 0 0 0-2.608-2.633 10.248 10.248 0 0 0-4.476-1.748c-.078-.006-.161-.036-.237-.004a6.7 6.7 0 0 0-.947.61c-.12.098-.245.19-.354.3-.014.063-.005.13-.005.194.007.312.007.625.017.937a8.156 8.156 0 0 1 5.27 1.832 8.152 8.152 0 0 1 2.996 6.438c.37.005.741.014 1.112.018.021.003.035-.017.048-.03.327-.372.612-.78.85-1.213" fill="#e1c57a"/><path d="M566.563 400.554c.08-.08.173-.151.26-.222l.078-.062c.292-.224.608-.428.939-.605a.342.342 0 0 1 .137.002 10.181 10.181 0 0 1 4.518 1.748 10.164 10.164 0 0 1 2.596 2.619 10.173 10.173 0 0 1 1.706 4.534c.004.025-.01.05-.028.08l-.016.032c-.232.424-.516.83-.842 1.2l-.013.012a36.677 36.677 0 0 1-.6-.01c-.151 0-.301-.004-.452-.006a8.23 8.23 0 0 0-.672-3.324 8.185 8.185 0 0 0-5.758-4.753 8.484 8.484 0 0 0-1.839-.194 28.266 28.266 0 0 1-.008-.52l-.007-.364v-.057c-.002-.039-.004-.075.001-.11m1.328-1.006a.245.245 0 0 0-.098.02c-.341.18-.661.388-.959.616l-.077.063c-.096.077-.194.154-.282.242l-.012.012-.003.016c-.011.05-.009.103-.007.151l.001.054.006.363c.002.192.005.383.011.576l.002.052h.1a8.1 8.1 0 0 1 5.187 1.82 8.073 8.073 0 0 1 2.977 6.395l-.001.056h.054l.506.008c.202.004.404.008.606.008h.001c.044 0 .069-.026.082-.04.339-.386.627-.796.864-1.23l.015-.027c.022-.04.05-.089.041-.149a10.3 10.3 0 0 0-1.724-4.582 10.273 10.273 0 0 0-2.624-2.646 10.298 10.298 0 0 0-4.498-1.758c-.024-.001-.044-.004-.065-.008-.034-.005-.069-.012-.103-.012" fill="#f1f2f2"/><path d="M576.492 411.126c.014-.014.023-.03.034-.046-.141-.144-.283-.285-.426-.425-.073.053-.131.122-.2.181a7.266 7.266 0 0 1-4.837 1.944c-.136.015-.273-.006-.409-.004a7.263 7.263 0 0 1-6.304-4.2 7.315 7.315 0 0 1-.68-2.996 7.317 7.317 0 0 1 .482-2.672 7.259 7.259 0 0 1 1.449-2.337c.066-.071.137-.14.2-.215a14.694 14.694 0 0 0-.434-.432 7.876 7.876 0 0 0-2.289 6.194 7.881 7.881 0 0 0 7.146 7.248 7.91 7.91 0 0 0 6.268-2.24" fill="#e1c57a"/><path d="M570.943 413.345a7.803 7.803 0 0 1-4.7-1.566 7.832 7.832 0 0 1-3.111-5.665 7.812 7.812 0 0 1 .252-2.669 7.777 7.777 0 0 1 1.984-3.445c.122.118.242.24.358.359-.032.036-.065.07-.099.106-.022.023-.045.046-.066.07a7.37 7.37 0 0 0-1.461 2.353 7.292 7.292 0 0 0-.484 2.693 7.387 7.387 0 0 0 .684 3.018 7.31 7.31 0 0 0 2.409 2.89 7.387 7.387 0 0 0 3.942 1.342h.023c.045 0 .09.002.136.004.087.003.172.008.258-.001a7.302 7.302 0 0 0 4.869-1.958c.026-.023.054-.05.081-.077.027-.025.051-.05.078-.072.12.119.24.239.358.36l-.001.001a7.856 7.856 0 0 1-5.51 2.257m-5.578-13.495l-.036.037a7.891 7.891 0 0 0-2.05 3.53 7.894 7.894 0 0 0-.255 2.705c.08 1.05.378 2.101.865 3.042a7.953 7.953 0 0 0 2.29 2.703 7.902 7.902 0 0 0 4.764 1.586c.82 0 1.63-.125 2.409-.371a7.955 7.955 0 0 0 3.177-1.918c.016-.015.027-.033.036-.048l.023-.036-.025-.038c-.14-.143-.282-.285-.426-.427l-.033-.032-.037.028c-.046.034-.086.073-.124.11a7.202 7.202 0 0 1-4.882 2.004 1.4 1.4 0 0 1-.245.002c-.047-.002-.095-.004-.142-.004h-.022a7.28 7.28 0 0 1-3.881-1.322 7.2 7.2 0 0 1-2.373-2.848 7.203 7.203 0 0 1-.197-5.626 7.26 7.26 0 0 1 1.439-2.319l.065-.069c.047-.048.094-.096.136-.15l.03-.037-.067-.07c-.13-.13-.263-.267-.4-.396l-.039-.036z" fill="#f1f2f2"/><path d="M573.938 410.135c.07-.347.053-.704.018-1.054a7.327 7.327 0 0 0-4.79-6.177 7.344 7.344 0 0 0-4.182-.25c-.035.009-.08.013-.092.054a6.64 6.64 0 0 0-.41 1.156c-.013.055-.04.114-.011.169.117.295.218.596.34.888a5.216 5.216 0 0 1 5.156.851 5.209 5.209 0 0 1 1.876 3.506c.012.13.025.261.019.391a.408.408 0 0 1-.64.31.404.404 0 0 1-.173-.326 4.395 4.395 0 0 0-1.673-3.307 4.394 4.394 0 0 0-5.07-.26c.028.43.117.858.232 1.275.018.083.086.138.138.2.15.17.298.34.448.508.016.028.048.018.064-.002.421-.362.981-.558 1.536-.537a2.261 2.261 0 0 1 1.683.824c.331.399.517.914.52 1.431a2.525 2.525 0 0 0 2.354 2.386c.329-.022.66-.055.983-.127a2.51 2.51 0 0 0 1.674-1.909" fill="#e1c57a"/><path d="M564.841 404.852c-.062-.153-.12-.309-.177-.462-.047-.125-.093-.252-.143-.377-.015-.028-.008-.056.004-.101l.01-.037c.103-.401.24-.786.405-1.144.007-.013.028-.018.04-.02l.018-.005a7.272 7.272 0 0 1 4.15.25 7.241 7.241 0 0 1 3.165 2.254 7.326 7.326 0 0 1 1.589 3.877c.031.315.054.685-.017 1.037a2.475 2.475 0 0 1-1.638 1.867c-.335.076-.679.106-.97.127a2.48 2.48 0 0 1-2.297-2.336 2.342 2.342 0 0 0-.531-1.463 2.31 2.31 0 0 0-1.81-.844c-.536 0-1.076.2-1.484.549l-.265-.302-.173-.196-.038-.044c-.04-.042-.077-.082-.088-.133a6.292 6.292 0 0 1-.23-1.235 4.382 4.382 0 0 1 2.302-.659 4.34 4.34 0 0 1 3.825 2.304c.309.58.485 1.235.507 1.896a.454.454 0 0 0 .196.369.458.458 0 0 0 .725-.352c.006-.131-.007-.262-.018-.388a5.297 5.297 0 0 0-.642-2.05A5.251 5.251 0 0 0 570 405.73a5.248 5.248 0 0 0-3.752-1.184c-.468.035-.94.138-1.407.306m1.811-2.445a7.492 7.492 0 0 0-1.68.194l-.017.004c-.036.009-.096.023-.116.087a6.678 6.678 0 0 0-.41 1.158c-.002.012-.006.023-.009.033-.013.05-.031.113.003.175.047.12.093.244.14.37.062.169.127.345.198.514l.02.048.049-.018a5.255 5.255 0 0 1 1.823-.334 5.156 5.156 0 0 1 4.509 2.65c.34.609.557 1.3.627 1.996.013.133.024.26.018.384a.353.353 0 0 1-.704-.016 4.462 4.462 0 0 0-3.492-4.2 4.306 4.306 0 0 0-.948-.105c-.842 0-1.69.246-2.387.692l-.027.018.002.031c.026.391.103.812.235 1.287a.405.405 0 0 0 .113.181.858.858 0 0 1 .035.04l.175.198c.091.104.182.21.275.312.015.036.103.048.146-.004a2.2 2.2 0 0 1 1.492-.517 2.202 2.202 0 0 1 1.643.803c.32.386.506.896.508 1.398a2.583 2.583 0 0 0 2.404 2.44c.302-.021.653-.052 1-.13a2.541 2.541 0 0 0 1.326-1.01c.188-.28.322-.605.388-.94.074-.367.05-.747.019-1.07a7.42 7.42 0 0 0-1.613-3.934 7.337 7.337 0 0 0-3.212-2.288 7.386 7.386 0 0 0-2.533-.447" fill="#f1f2f2"/><path d="M567.801 410.013a1.165 1.165 0 0 0-.748-1.312c-.18-.07-.38-.078-.57-.058a1.173 1.173 0 0 0-.743.428c-.159.201-.253.456-.252.715-.009.311.121.624.345.84a1.166 1.166 0 0 0 1.968-.613" fill="#e1c57a"/><path d="M566.653 410.911a1.085 1.085 0 0 1-.78-.324 1.09 1.09 0 0 1-.331-.8 1.115 1.115 0 0 1 .949-1.09 1.55 1.55 0 0 1 .164-.01 1.111 1.111 0 0 1 .666 2.002c-.19.143-.427.222-.668.222m.002-2.333c-.06 0-.12.004-.178.01a1.23 1.23 0 0 0-.78.449 1.189 1.189 0 0 0-.262.748c-.01.323.125.652.36.88a1.225 1.225 0 0 0 1.59.111 1.215 1.215 0 0 0 .36-1.522 1.218 1.218 0 0 0-1.09-.676" fill="#f1f2f2"/></g></g><g><g clip-path="url(#clipPath11615)" opacity=".3" transform="matrix(-.91858 0 0 .91994 537.588 -319.284)"><path d="M561.758 394.816h-.643v-.914h-.31v.914h-.74v-1.088h-.309v1.426h2.312v-1.388h-.31v1.05zM561.495 391.621v.342c.094 0 .166.03.217.09.05.06.075.146.075.257 0 .105-.029.19-.085.257a.27.27 0 0 1-.216.1c-.119 0-.218-.082-.297-.244l-.13-.272c-.095-.199-.195-.34-.3-.425a.596.596 0 0 0-.385-.127.585.585 0 0 0-.462.208.77.77 0 0 0-.183.526c0 .203.057.376.172.518a.528.528 0 0 0 .488.208v-.332a.362.362 0 0 1-.256-.116.394.394 0 0 1-.095-.275c0-.112.032-.206.097-.283a.303.303 0 0 1 .24-.115c.089 0 .169.037.238.113.068.076.144.21.23.403.09.205.182.349.274.43a.501.501 0 0 0 .346.123.58.58 0 0 0 .456-.203.76.76 0 0 0 .177-.518.714.714 0 0 0-.163-.467.49.49 0 0 0-.387-.198h-.051zM561.024 390.52v-.465a.47.47 0 0 1 .096-.314.33.33 0 0 1 .266-.112c.248 0 .372.14.372.423v.468h-.734zm-.309 0h-.958v.337h2.311v-.819a1.01 1.01 0 0 0-.042-.324.662.662 0 0 0-.643-.425.632.632 0 0 0-.493.217c-.117.132-.175.317-.175.559v.455zM561.307 388.001a.913.913 0 0 1 .18-.289c.07-.07.138-.105.205-.105.085 0 .152.035.202.107.05.071.075.166.075.285 0 .123-.024.22-.072.29a.229.229 0 0 1-.2.109c-.155 0-.284-.132-.39-.397m-.338-.004l-.038.07c-.083.16-.16.272-.233.334a.386.386 0 0 1-.261.094.356.356 0 0 1-.292-.14.578.578 0 0 1-.11-.37.54.54 0 0 1 .106-.351.348.348 0 0 1 .285-.132c.107 0 .208.043.305.132.095.088.175.209.238.363m.17-.302l-.043-.072a1.185 1.185 0 0 0-.308-.36.638.638 0 0 0-.37-.1c-.22 0-.391.072-.51.219-.12.146-.18.353-.18.622 0 .263.06.466.18.61.119.146.288.218.505.218.325 0 .568-.176.727-.527.113.169.212.283.293.342a.518.518 0 0 0 .308.088.45.45 0 0 0 .382-.202.875.875 0 0 0 .147-.526c0-.224-.05-.404-.148-.537a.465.465 0 0 0-.395-.2.5.5 0 0 0-.29.085 1.083 1.083 0 0 0-.265.292l-.032.048zM560.075 386.261v-1.128h-.318v1.46c.09.01.156.014.198.014.223 0 .403-.032.54-.1a1.02 1.02 0 0 0 .287-.208c.084-.087.18-.216.29-.39.117-.183.211-.307.283-.371a.348.348 0 0 1 .238-.096c.103 0 .192.039.268.118.077.079.116.17.116.275 0 .236-.088.477-.26.727h.368c.138-.195.207-.421.207-.679 0-.238-.063-.428-.187-.57a.627.627 0 0 0-.496-.214.692.692 0 0 0-.39.11c-.07.046-.13.1-.18.162-.05.061-.14.192-.27.395a1.561 1.561 0 0 1-.323.378.523.523 0 0 1-.323.117h-.048zM561.307 383.668a.913.913 0 0 1 .18-.289c.07-.07.138-.105.205-.105.085 0 .152.035.202.107.05.071.075.166.075.285 0 .123-.024.22-.072.29a.229.229 0 0 1-.2.109c-.155 0-.284-.132-.39-.397m-.338-.004l-.038.07c-.083.16-.16.272-.233.334a.386.386 0 0 1-.261.094.356.356 0 0 1-.292-.14.578.578 0 0 1-.11-.37.54.54 0 0 1 .106-.351.348.348 0 0 1 .285-.132c.107 0 .208.043.305.132.095.088.175.209.238.363m.17-.302l-.043-.072a1.185 1.185 0 0 0-.308-.36.638.638 0 0 0-.37-.1c-.22 0-.391.072-.51.219-.12.146-.18.353-.18.622 0 .263.06.466.18.61.119.146.288.218.505.218.325 0 .568-.176.727-.527.113.169.212.283.293.342a.518.518 0 0 0 .308.088.452.452 0 0 0 .382-.201.88.88 0 0 0 .147-.527c0-.224-.05-.404-.148-.537a.465.465 0 0 0-.395-.2.5.5 0 0 0-.29.085 1.083 1.083 0 0 0-.265.292l-.032.048zM561.04 381.491a.496.496 0 0 1-.137.36.47.47 0 0 1-.35.14.504.504 0 0 1-.367-.138.478.478 0 0 1-.143-.356c0-.147.048-.265.143-.359a.502.502 0 0 1 .365-.139.474.474 0 0 1 .489.492m1.202-.138v-.448l-.039.041c-.28.293-.498.497-.655.615l-.204.15-.063.049a.86.86 0 0 0 .074-.319.748.748 0 0 0-.23-.556.777.777 0 0 0-.567-.226c-.25 0-.45.076-.601.229-.152.152-.228.354-.228.606 0 .265.074.47.222.617.148.146.358.22.627.22.166 0 .324-.03.474-.089.15-.057.32-.156.512-.295.224-.163.45-.36.678-.594M561.166 379.328l.902-.271v-.54h-2.312v.338h1.966l-1.21.328v.283l1.21.336h-1.966v.338h2.312v-.534l-.902-.278zM561.786 377.157c0 .15-.066.262-.198.338-.167.096-.397.144-.69.144-.271 0-.482-.042-.634-.126-.15-.084-.227-.202-.227-.352 0-.15.079-.267.233-.352.156-.086.372-.128.65-.128.264 0 .474.043.63.129.158.087.236.202.236.347m.31 0c0-.23-.114-.425-.34-.58-.226-.157-.505-.235-.838-.235-.353 0-.64.077-.86.229-.22.152-.33.35-.33.592 0 .236.11.43.33.584.218.154.497.232.836.232.344 0 .63-.079.858-.235.23-.155.344-.351.344-.587M560.068 375.314c0-.224.074-.404.22-.54.147-.138.342-.205.583-.205.237 0 .443.074.621.223.176.148.265.323.265.522h-1.689zm-.311.338h2.311v-.247c0-.315-.104-.581-.313-.798a1.233 1.233 0 0 0-.408-.277 1.213 1.213 0 0 0-.481-.1 1.1 1.1 0 0 0-.82.34c-.193.194-.29.458-.29.792v.29z" fill="#e1c57a"/></g></g><g><g clip-path="url(#clipPath11667)" opacity=".3" transform="matrix(-.91858 0 0 .91994 537.588 -319.284)"><path d="M561.166 412.512l.902-.271v-.54h-2.312v.338h1.966l-1.21.328v.283l1.21.336h-1.966v.338h2.312v-.534l-.902-.278zM561.786 410.342c0 .15-.066.262-.198.338-.167.096-.397.144-.69.144-.271 0-.482-.042-.634-.126-.15-.084-.227-.202-.227-.352 0-.15.079-.267.233-.352.156-.086.372-.128.65-.128.264 0 .474.043.63.129.158.086.236.202.236.347m.31 0c0-.23-.114-.425-.34-.58-.226-.157-.505-.235-.838-.235-.353 0-.64.076-.86.229-.22.152-.33.35-.33.592 0 .236.11.43.33.584.218.154.497.232.836.232.344 0 .63-.079.858-.235.23-.155.344-.351.344-.587M560.068 408.499c0-.224.074-.404.22-.54.147-.138.342-.205.583-.205.237 0 .443.074.621.223.176.148.265.323.265.522h-1.689zm-.311.338h2.311v-.247c0-.315-.104-.581-.313-.798a1.233 1.233 0 0 0-.408-.277 1.213 1.213 0 0 0-.481-.1 1.1 1.1 0 0 0-.82.34c-.193.194-.29.458-.29.792v.29zM561.758 406.331h-.643v-.914h-.31v.914h-.74v-1.088h-.309v1.426h2.312v-1.388h-.31v1.05zM560.066 404.166v-1.195h-.309v1.533h2.311v-.338h-2.002z" fill="#e1c57a"/></g></g><g><g clip-path="url(#clipPath11699)" opacity=".3" transform="matrix(-.91858 0 0 .91994 537.588 -319.284)"><path d="M556.832 412.509l1.984-.524v-.342l-2.311.63v.488l2.311.623v-.346l-1.984-.529zM558.507 410.666h-.643v-.914h-.31v.914h-.74v-1.088h-.309v1.426h2.312v-1.388h-.31v1.05zM557.119 407.722h1.698v-.309h-2.312v.374l1.774.85h-1.774v.31h2.312v-.406l-1.698-.819zM556.816 406.331c0-.225.074-.404.22-.54.147-.138.342-.205.583-.205.237 0 .443.074.621.223.176.148.265.323.265.522h-1.689zm-.311.338h2.311v-.247c0-.316-.104-.581-.313-.798a1.233 1.233 0 0 0-.408-.277 1.213 1.213 0 0 0-.481-.1 1.1 1.1 0 0 0-.82.34c-.193.194-.29.458-.29.792v.29zM558.535 403.841c0 .15-.066.262-.198.338-.167.096-.397.144-.69.144-.271 0-.482-.042-.634-.126-.15-.084-.227-.202-.227-.352 0-.15.078-.267.233-.352.156-.086.372-.128.65-.128.264 0 .474.043.63.129.158.087.236.202.236.347m.31 0c0-.23-.114-.425-.34-.58-.226-.157-.505-.235-.838-.235-.353 0-.64.077-.86.229-.22.152-.33.35-.33.592 0 .236.11.43.33.584.218.154.497.232.836.232.344 0 .63-.079.858-.235.23-.155.344-.351.344-.587M557.781 402.031v-.309c0-.29.12-.434.358-.434.245 0 .368.146.368.437v.306h-.726zm-.313 0h-.963v.338h2.311v-.705c0-.22-.06-.393-.18-.522a.636.636 0 0 0-.49-.193.63.63 0 0 0-.401.124.56.56 0 0 0-.205.345l-1.035-.609v.394l.963.535v.293z" fill="#e1c57a"/></g></g><g><g clip-path="url(#c)" opacity=".3" transform="matrix(-.91858 0 0 .91994 537.588 -319.284)"><path d="M557.482 394.253l1.035.242-1.035.263v-.505zm-.309-.073v.655l-.668.168v.348l2.311-.63v-.487l-2.31-.59v.376l.667.16zM558.506 392.164h-1.693v-.423h-.309v1.179h.31v-.418h1.692v.35h.31v-1.038h-.31v.35zM557.572 389.768h-.392v.79h.392v-.79zM558.506 387.829h-2.002v.338h2.002v.625h.31v-1.597h-.31v.634zM557.547 385.431v.798h-1.042v.338h2.31v-.338h-.96v-.798h.96v-.337h-2.31v.337h1.042zM558.506 383.496h-1.693v-.423h-.309v1.179h.31v-.418h1.692v.35h.31v-1.038h-.31v.35zM557.119 381.038h1.698v-.309h-2.312v.374l1.774.85h-1.774v.31h2.312v-.406l-1.698-.819zM557.862 379.755l.954-.945v-.445l-1.101 1.114-1.21-1.185v.474l1.049.987h-1.049v.338h2.311v-.338h-.954zM558.506 377.481h-.642v-.914h-.31v.914h-.74v-1.088h-.31v1.426h2.312v-1.388h-.31v1.05zM557.781 375.348v-.309c0-.29.12-.434.358-.434.245 0 .367.146.367.437v.306h-.725zm-.314 0h-.963v.338h2.312v-.705c0-.22-.06-.393-.18-.522a.636.636 0 0 0-.49-.193.628.628 0 0 0-.401.124.561.561 0 0 0-.206.345l-1.035-.609v.394l.963.535v.293zM554.822 394.33h-1.693v-.423h-.309v1.179h.31v-.418h1.692v.35h.309v-1.038h-.309v.35zM554.558 391.621v.342c.093 0 .165.03.216.09.05.06.075.146.075.257 0 .105-.028.19-.084.257a.27.27 0 0 1-.216.1c-.119 0-.218-.082-.297-.244l-.13-.272c-.095-.199-.195-.34-.3-.425a.592.592 0 0 0-.385-.127.585.585 0 0 0-.462.208.77.77 0 0 0-.183.526c0 .203.056.376.172.518a.525.525 0 0 0 .488.208v-.332a.365.365 0 0 1-.256-.116.394.394 0 0 1-.096-.275c0-.112.033-.206.098-.283a.303.303 0 0 1 .24-.115c.089 0 .169.037.238.113.067.076.144.21.23.403.09.205.18.349.273.43a.505.505 0 0 0 .347.123.58.58 0 0 0 .455-.203.757.757 0 0 0 .178-.518.71.71 0 0 0-.164-.467.488.488 0 0 0-.387-.198h-.05zM554.229 390.164l.902-.271v-.54h-2.31v.338h1.964l-1.209.328v.283l1.209.336h-1.965v.338h2.31v-.534l-.901-.278zM553.138 386.261v-1.128h-.318v1.46c.09.01.157.014.198.014.224 0 .404-.032.54-.1.108-.052.203-.122.288-.208a2.45 2.45 0 0 0 .289-.39c.117-.183.211-.307.283-.371a.35.35 0 0 1 .24-.096.36.36 0 0 1 .266.118c.078.079.116.17.116.275 0 .236-.087.477-.26.727h.37c.136-.195.205-.421.205-.679 0-.238-.063-.428-.187-.57a.626.626 0 0 0-.496-.214.692.692 0 0 0-.39.11.81.81 0 0 0-.18.162 5.67 5.67 0 0 0-.27.395 1.527 1.527 0 0 1-.323.378.521.521 0 0 1-.323.117h-.048zM553.345 383.427h-.525v.645h.525v-.645zM553.678 381.005v-.309h-.318v.309h-.54v.343h.54v.945h.372l1.574-.73v-.354l-1.628.754v-.615h.518v-.343h-.518zM553.742 378.906v.484h.31v-.822h-1.125c-.09.23-.135.45-.135.662 0 .29.102.512.307.666.204.154.498.232.881.232.244 0 .441-.027.59-.079a.887.887 0 0 0 .383-.259.879.879 0 0 0 .207-.596.658.658 0 0 0-.141-.44.627.627 0 0 0-.16-.135.328.328 0 0 0-.16-.051h-.023v.338c.116.036.173.127.173.272 0 .207-.07.36-.21.46-.141.1-.357.15-.648.15-.594 0-.89-.196-.89-.59a.85.85 0 0 1 .058-.292h.583zM555.306 377.513h-.924a.736.736 0 0 0 .174-.491.532.532 0 0 0-.157-.395.508.508 0 0 0-.207-.13 1.047 1.047 0 0 0-.305-.035h-1.067v.317h1.103c.226 0 .339.105.339.314a.423.423 0 0 1-.114.303.34.34 0 0 1-.14.093.832.832 0 0 1-.227.024h-.961v.318h2.486v-.318zM554.527 374.376h-.314l-1.115.96v-1.034h-.277v1.387h.33l1.098-.951v.886h.278v-1.248zM550.402 394.854v-.465c0-.134.033-.239.096-.314a.33.33 0 0 1 .266-.112c.248 0 .372.14.372.423v.468h-.734zm-.309 0h-.958v.337h2.312v-.819c0-.136-.015-.244-.043-.324a.65.65 0 0 0-.153-.233.66.66 0 0 0-.49-.192.634.634 0 0 0-.493.217c-.117.132-.175.317-.175.559v.455zM550.112 392.087l1.035.242-1.035.263v-.505zm-.309-.073v.655l-.668.168v.348l2.311-.63v-.487l-2.31-.59v.376l.667.16zM551.287 385.658h-.74v-.602h-.308v.602h-.738v.343h.738v.603h.309v-.603h.739v-.343zM549.454 384.094v-1.128h-.318v1.46c.09.01.156.014.198.014.222 0 .402-.032.54-.1.107-.052.203-.122.287-.208a2.5 2.5 0 0 0 .289-.39c.118-.183.212-.307.284-.371a.344.344 0 0 1 .238-.096c.103 0 .192.039.268.118a.38.38 0 0 1 .115.275c0 .236-.087.477-.26.727h.37c.137-.195.206-.421.206-.679 0-.238-.063-.428-.187-.57a.629.629 0 0 0-.496-.214.691.691 0 0 0-.39.11c-.07.046-.13.1-.18.162-.05.061-.14.192-.27.395a1.544 1.544 0 0 1-.324.378.52.52 0 0 1-.322.117h-.048zM551.309 381.81l-.498.042.003-.09c0-.305-.07-.542-.21-.712-.139-.17-.333-.254-.583-.254-.364 0-.625.178-.78.533-.086.196-.128.483-.128.86h.302v-.036l-.002-.177c0-.103.009-.2.026-.29a.737.737 0 0 1 .207-.403.532.532 0 0 1 .378-.145c.319 0 .479.206.479.617 0 .098-.004.186-.013.262l-.014.125a.435.435 0 0 0-.005.047l1.15-.075v-1.251h-.312v.947zM549.446 379.648c0-.224.074-.404.222-.54.145-.138.34-.205.581-.205a.93.93 0 0 1 .621.223c.176.148.266.323.266.522h-1.69zm-.311.338h2.312v-.247c0-.315-.105-.581-.314-.798a1.23 1.23 0 0 0-.407-.277 1.213 1.213 0 0 0-.482-.1c-.325 0-.598.112-.82.34-.193.194-.29.458-.29.792v.29zM550.592 377.114c0 .151-.054.27-.16.357-.106.086-.253.13-.44.13-.19 0-.34-.042-.446-.126a.42.42 0 0 1-.162-.35c0-.141.054-.253.163-.336.108-.082.255-.124.441-.124.182 0 .33.042.44.123.109.081.164.19.164.326m1.03.487h-.976a.653.653 0 0 0 .225-.526.654.654 0 0 0-.246-.535c-.164-.134-.383-.202-.659-.202-.256 0-.463.071-.623.213a.705.705 0 0 0-.24.553c0 .194.07.36.212.497h-.18v.318h2.487v-.318zM550.544 374.995l.902-.271v-.54h-2.312v.338h1.966l-1.21.328v.283l1.21.336h-1.966v.338h2.312v-.534l-.902-.278zM547 394.502a.9.9 0 0 1 .18-.289c.07-.07.138-.105.204-.105.085 0 .153.035.202.107a.478.478 0 0 1 .076.285c0 .123-.024.22-.072.29a.23.23 0 0 1-.2.109c-.155 0-.285-.132-.39-.397m-.338-.004l-.039.07c-.082.16-.16.272-.233.334a.385.385 0 0 1-.26.094.358.358 0 0 1-.293-.14.583.583 0 0 1-.109-.37c0-.147.034-.263.106-.351a.346.346 0 0 1 .285-.132c.107 0 .208.043.304.132a.994.994 0 0 1 .24.363m.17-.302l-.045-.072a1.163 1.163 0 0 0-.308-.36.634.634 0 0 0-.369-.1c-.221 0-.391.072-.51.219-.12.146-.18.353-.18.622 0 .263.06.466.18.61.119.146.288.218.505.218.324 0 .567-.176.727-.527.113.169.212.283.293.342a.522.522 0 0 0 .308.088.451.451 0 0 0 .382-.202.875.875 0 0 0 .147-.526c0-.224-.05-.404-.148-.537a.465.465 0 0 0-.395-.2.496.496 0 0 0-.29.085 1.07 1.07 0 0 0-.265.292l-.032.048zM547.646 392.301c0 .127-.007.22-.02.278a.218.218 0 0 1-.073.13c-.041.031-.145.058-.313.082a4.415 4.415 0 0 1-1.018.008 1.535 1.535 0 0 1-.34-.062.206.206 0 0 1-.12-.118.7.7 0 0 1-.035-.255c0-.132.009-.231.025-.296.019-.065.048-.109.09-.131.133-.07.393-.105.78-.105.229 0 .431.011.606.035.176.024.287.054.336.093.03.024.052.06.064.109.012.048.018.125.018.232m.317-.007c0-.18-.022-.32-.064-.418a.417.417 0 0 0-.213-.217c-.218-.105-.55-.157-.998-.157-.561 0-.923.072-1.085.217-.122.11-.182.324-.182.641 0 .33.082.54.243.627.214.114.561.172 1.041.172.482 0 .821-.058 1.02-.172a.409.409 0 0 0 .18-.237c.039-.109.058-.262.058-.456M545.768 390.596v-1.128h-.318v1.46c.09.01.156.014.198.014.222 0 .402-.032.54-.1.107-.052.203-.122.287-.208a2.5 2.5 0 0 0 .289-.39c.118-.183.212-.307.284-.371a.344.344 0 0 1 .238-.096c.103 0 .192.039.268.118a.38.38 0 0 1 .115.275c0 .236-.087.477-.26.727h.37c.137-.195.206-.421.206-.679 0-.238-.063-.428-.187-.57a.629.629 0 0 0-.496-.214.691.691 0 0 0-.39.11c-.07.046-.13.1-.18.162-.05.061-.14.192-.27.395a1.544 1.544 0 0 1-.324.378.52.52 0 0 1-.322.117h-.048zM547.551 388.029l-.548.634h.425l.506-.602v-.375h-2.485v.343h2.102zM547.551 385.862l-.548.634h.425l.506-.602v-.375h-2.485v.343h2.102zM546.907 383.615c0 .151-.054.27-.16.357-.106.086-.253.13-.44.13-.19 0-.34-.042-.447-.126a.421.421 0 0 1-.161-.35c0-.141.054-.253.163-.336.108-.082.255-.124.441-.124.182 0 .33.042.44.123.109.081.164.19.164.326m1.03.487h-.976c.15-.127.225-.301.225-.526a.654.654 0 0 0-.246-.535c-.164-.134-.383-.202-.659-.202-.256 0-.463.071-.623.213a.705.705 0 0 0-.24.553c0 .194.07.36.212.497h-.18v.318h2.487v-.318zM547.955 381.138v-.35l-2.534 1.036v.34l2.534-1.026zM546.928 379.369a.372.372 0 0 1-.142.311c-.094.075-.226.111-.396.111-.387 0-.58-.146-.58-.439 0-.133.05-.239.154-.315.102-.078.243-.116.422-.116.17 0 .303.04.398.12.096.078.144.188.144.328m.227-.76h-1.682c-.206 0-.357.063-.455.193-.099.129-.148.327-.148.593 0 .427.128.641.387.641l.03-.002v-.33c-.112-.009-.168-.108-.168-.298 0-.213.038-.355.112-.423.042-.037.114-.056.215-.056h.299l-.033.042a.67.67 0 0 0-.154.442c0 .218.075.39.223.517.148.126.352.188.61.188.243 0 .436-.062.58-.188a.645.645 0 0 0 .215-.51c0-.214-.068-.378-.204-.491h.173v-.319zM547.955 376.803v-.35l-2.534 1.036v.34l2.534-1.026zM547.155 375.751v-.318h-.194a.754.754 0 0 0 .224-.557.63.63 0 0 0-.17-.463.61.61 0 0 0-.455-.173h-1.111v.318h1.136c.1 0 .178.03.236.093.056.062.085.15.085.262a.503.503 0 0 1-.146.376.517.517 0 0 1-.383.144h-.928v.318h1.706z" fill="#e1c57a"/></g></g></g></g><g><path fill="#b4b4b4" d="M9.497 21.062v22.677H5.528V21.062z"/><path fill="#dcdcdc" d="M16.654 32.117v.567h-3.402v-.567zM16.654 33.96v.567h-3.402v-.567zM16.654 35.802v.567h-3.402v-.567zM16.654 30.275v.567h-3.402v-.567zM16.654 28.432v.567h-3.402v-.567z"/><path fill="#b4b4b4" d="M15.165 25.314v14.173h-.709V25.314z"/><path d="M14.883 25.314v14.173h-2.976V25.314z"/><path fill="#dcdcdc" d="M12.472 30.416v-1.417h.709V26.73h2.126v-5.102H1.701v21.543h13.606V38.07h-2.126v-2.268h-.709v-1.417h2.552v-3.97z"/><path d="M8.787 26.589l-4.252.284v-1.984l4.252.283zM8.787 39.629l-4.252.283v-1.984l4.252.283z"/><path fill="#f0f0f0" d="M1.701 42.605L0 42.038l.001-19.275 1.7-.567z"/><path fill="#b4b4b4" d="M1.701 22.196l-1.7-.567v-.567l1.7.567zM1.701 43.172L0 43.739v-.567l1.701-.567z"/></g></svg>