<svg id="Layer_1" data-name="Layer 1" xmlns="http://www.w3.org/2000/svg" viewBox="0 0 324.5 280.66"><defs><style>.cls-1,.cls-12,.cls-13,.cls-14,.cls-15,.cls-40,.cls-41,.cls-42,.cls-47,.cls-5,.cls-50,.cls-7,.cls-8{fill:none}.cls-2,.cls-43,.cls-46,.cls-47{isolation:isolate}.cls-3{fill:#fff}.cls-4,.cls-47,.cls-5,.cls-6,.cls-7,.cls-8,.cls-9{stroke:#fff}.cls-4,.cls-45,.cls-46,.cls-5,.cls-6,.cls-7,.cls-9{stroke-linecap:round}.cls-4{stroke-width:.86px}.cls-5{stroke-width:.43px}.cls-6,.cls-7,.cls-8{stroke-width:.58px}.cls-9{stroke-width:.36px}.cls-10{fill:#333}.cls-11{fill:#9a916c}.cls-12,.cls-13,.cls-14,.cls-15{stroke:#9a916c}.cls-12{stroke-width:.96px}.cls-13{stroke-width:1.44px}.cls-14{stroke-width:.72px}.cls-15{stroke-width:2.27px}.cls-16{fill:#dcdcdc}.cls-17{fill:#6e554b}.cls-18{fill:#ff0}.cls-19{fill:#b4b400}.cls-20{fill:red}.cls-21{fill:#a00000}.cls-22{fill:#303030}.cls-23{fill:#4d4d4d}.cls-24{fill:#666}.cls-25{fill:#1e1e1e}.cls-26{fill:#b4b4b4}.cls-27{fill:#332e30}.cls-28{fill:#231f20}.cls-29{clip-path:url(#clip-path)}.cls-30{opacity:.25}.cls-31{fill:#a87b53}.cls-32{fill:#b7b9bb}.cls-33{fill:#f59331}.cls-34{fill:#929496}.cls-35{fill:#d2d0d2}.cls-36{fill:#e1c57a}.cls-37{fill:#e5dabd}.cls-38{fill:#808285}.cls-39{fill:#f0f0f0}.cls-40{stroke:#e6c739}.cls-40,.cls-41,.cls-42{stroke-width:6.3px}.cls-41{stroke:#d2382b}.cls-42{stroke:#323232}.cls-43{fill:#ccc}.cls-43,.cls-46{opacity:.95}.cls-44{fill:#2ca02c}.cls-45{fill:#dbe3e2}.cls-45,.cls-46,.cls-50{stroke:#000}.cls-45,.cls-46{stroke-width:.18px}.cls-46{stroke-opacity:.48;fill:url(#radial-gradient)}.cls-47{stroke-opacity:.67;stroke-width:22.5px;opacity:.67}.cls-48{fill:#d1c600}.cls-49{fill:#cb0005}.cls-50{stroke-miterlimit:10}</style><clipPath id="clip-path" transform="translate(-12.26 -7.09)"><path class="cls-1" d="M197.9 163.68h38.9v50.94h-38.9z"/></clipPath><radialGradient id="radial-gradient" cx="282.76" cy="-835.41" r="39.4" gradientTransform="matrix(1 0 0 -1 -4.5 -787.82)" gradientUnits="userSpaceOnUse"><stop offset="0" stop-color="#fff"/><stop offset="1" stop-color="silver" stop-opacity=".45"/></radialGradient></defs><title>Wiring-Motion-Sensor</title><path d="M23.76 238.54a11.45 11.45 0 0 1-11.45-11.45v-28.62l2.29-2.29v-18.31l-2.29-2.29V147a11.45 11.45 0 0 1 11.45-11.45h206.06A11.45 11.45 0 0 1 241.26 147v80.13a11.45 11.45 0 0 1-11.45 11.45H23.76m7-60.3a1.58 1.58 0 1 0 1.58-1.58 1.58 1.58 0 0 0-1.58 1.54zm0 17.58a1.58 1.58 0 1 0 1.58-1.58 1.58 1.58 0 0 0-1.58 1.58zm194.09 34.43a5 5 0 1 0 5-5 5 5 0 0 0-4.99 4.95zm0-86.14a5 5 0 1 0 5-5 5 5 0 0 0-4.99 4.95zm-14.47 88.72a2.25 2.25 0 1 0 2.25-2.25 2.25 2.25 0 0 0-2.24 2.2zm-11.45 0a2.25 2.25 0 1 0 2.25-2.25 2.25 2.25 0 0 0-2.24 2.2zm-11.45 0a2.25 2.25 0 1 0 2.25-2.25 2.25 2.25 0 0 0-2.23 2.2zm-11.45 0a2.25 2.25 0 1 0 2.25-2.25 2.25 2.25 0 0 0-2.28 2.2zm-11.45 0a2.25 2.25 0 1 0 2.25-2.25 2.25 2.25 0 0 0-2.23 2.2zm-11.45 0a2.25 2.25 0 1 0 2.25-2.25 2.25 2.25 0 0 0-2.23 2.2zm-11.45 0a2.25 2.25 0 1 0 2.25-2.25 2.25 2.25 0 0 0-2.23 2.2zm-11.45 0a2.25 2.25 0 1 0 2.25-2.25 2.25 2.25 0 0 0-2.22 2.2zm-11.45 0a2.25 2.25 0 1 0 2.25-2.25 2.25 2.25 0 0 0-2.22 2.2zm-11.45 0a2.25 2.25 0 1 0 2.25-2.25 2.25 2.25 0 0 0-2.22 2.2zm-11.45 0a2.25 2.25 0 1 0 2.25-2.25 2.25 2.25 0 0 0-2.22 2.2zm-11.45 0a2.25 2.25 0 1 0 2.25-2.25 2.25 2.25 0 0 0-2.21 2.2zm-11.45 0a2.25 2.25 0 1 0 2.25-2.25 2.25 2.25 0 0 0-2.23 2.2zm-11.45 0a2.25 2.25 0 1 0 2.25-2.25 2.25 2.25 0 0 0-2.21 2.2zm-11.45 0a2.25 2.25 0 1 0 2.25-2.25 2.25 2.25 0 0 0-2.21 2.2zm-11.45 0a2.25 2.25 0 1 0 2.25-2.25 2.25 2.25 0 0 0-2.21 2.2zm45.79-91.58a2.25 2.25 0 1 0 2.3-2.29 2.25 2.25 0 0 0-2.25 2.24zm11.45 0a2.25 2.25 0 1 0 2.3-2.29 2.25 2.25 0 0 0-2.26 2.24zm11.45 0a2.25 2.25 0 1 0 2.25-2.25 2.25 2.25 0 0 0-2.21 2.2zm11.45 0a2.25 2.25 0 1 0 2.25-2.25 2.25 2.25 0 0 0-2.21 2.2zm11.45 0a2.25 2.25 0 1 0 2.25-2.25 2.25 2.25 0 0 0-2.21 2.2zm11.45 0A2.25 2.25 0 1 0 144 139a2.25 2.25 0 0 0-2.3 2.24zm11.45 0a2.25 2.25 0 1 0 2.25-2.25 2.25 2.25 0 0 0-2.22 2.2zm11.45 0a2.25 2.25 0 1 0 2.25-2.25 2.25 2.25 0 0 0-2.22 2.2zm11.45 0a2.25 2.25 0 1 0 2.28-2.29 2.25 2.25 0 0 0-2.3 2.24zm11.45 0a2.25 2.25 0 1 0 2.25-2.25 2.25 2.25 0 0 0-2.22 2.2zm11.45 0a2.25 2.25 0 1 0 2.28-2.29 2.25 2.25 0 0 0-2.26 2.24zm11.45 0a2.25 2.25 0 1 0 2.25-2.25 2.25 2.25 0 0 0-2.23 2.2zM18.12 147a5.63 5.63 0 1 0 5.63-5.63 5.63 5.63 0 0 0-5.63 5.63zm0 80.13a5.63 5.63 0 1 0 5.63-5.63 5.63 5.63 0 0 0-5.63 5.63zm16.47-54.94a1.8 1.8 0 1 0 3.61 0 1.8 1.8 0 0 0-3.6-.11v.11zm0 29.75a1.8 1.8 0 1 0 3.61 0 1.8 1.8 0 1 0-3.6-.11v.11zM21.75 170.8a2 2 0 1 0 0-.11v.11zm0 32.45a2 2 0 1 0 0-.11v.11z" transform="translate(-12.26 -7.09)"/><g class="cls-2"><path class="cls-3" d="M108.78 147h.5v2.2a2.59 2.59 0 0 1-.13.91 1.11 1.11 0 0 1-.47.55 1.66 1.66 0 0 1-.89.21 1.83 1.83 0 0 1-.87-.18 1.05 1.05 0 0 1-.48-.53 2.53 2.53 0 0 1-.15-1V147h.5v2.19a2.15 2.15 0 0 0 .09.73.7.7 0 0 0 .32.36 1.1 1.1 0 0 0 .55.13 1 1 0 0 0 .79-.25 1.45 1.45 0 0 0 .24-1zM109.95 149.54h.47a1 1 0 0 0 .16.47.86.86 0 0 0 .38.3 1.45 1.45 0 0 0 .58.11 1.4 1.4 0 0 0 .51-.09.7.7 0 0 0 .33-.23.54.54 0 0 0 .11-.33.49.49 0 0 0-.1-.31.77.77 0 0 0-.34-.22 6.77 6.77 0 0 0-.68-.19 3.42 3.42 0 0 1-.73-.24 1 1 0 0 1-.41-.35.86.86 0 0 1-.13-.47 1 1 0 0 1 .16-.54 1 1 0 0 1 .48-.38 1.81 1.81 0 0 1 .7-.13 1.9 1.9 0 0 1 .75.14 1.08 1.08 0 0 1 .5.4 1.16 1.16 0 0 1 .19.6h-.48a.78.78 0 0 0-.26-.54 1 1 0 0 0-.66-.18 1.06 1.06 0 0 0-.67.17.5.5 0 0 0-.21.4.43.43 0 0 0 .15.34 2 2 0 0 0 .76.27 5 5 0 0 1 .84.24 1.16 1.16 0 0 1 .49.39 1 1 0 0 1 .16.54 1 1 0 0 1-.17.57 1.14 1.14 0 0 1-.5.42 1.73 1.73 0 0 1-.73.15 2.19 2.19 0 0 1-.87-.15 1.22 1.22 0 0 1-.55-.45 1.28 1.28 0 0 1-.23-.71zM113.64 150.76V147h1.43a1.76 1.76 0 0 1 .7.12.9.9 0 0 1 .41.36.94.94 0 0 1 .15.5.86.86 0 0 1-.13.46.94.94 0 0 1-.4.35 1 1 0 0 1 .53.34.92.92 0 0 1 .19.58 1.11 1.11 0 0 1-.11.5 1 1 0 0 1-.28.35 1.17 1.17 0 0 1-.42.19 2.53 2.53 0 0 1-.61.06zm.5-2.2h.86a1.81 1.81 0 0 0 .48 0 .53.53 0 0 0 .29-.19.55.55 0 0 0 .1-.33.61.61 0 0 0-.09-.33.46.46 0 0 0-.26-.2 2.18 2.18 0 0 0-.58-.05h-.76zm0 1.76h1.29a.81.81 0 0 0 .29-.1.55.55 0 0 0 .19-.21.66.66 0 0 0 .08-.32.63.63 0 0 0-.11-.37.57.57 0 0 0-.3-.22 1.87 1.87 0 0 0-.58-.1h-.88z" transform="translate(-12.26 -7.09)"/></g><g class="cls-2"><path class="cls-3" d="M36 228v-3.8h1.69a2.24 2.24 0 0 1 .77.1.85.85 0 0 1 .42.36 1.08 1.08 0 0 1 .16.57 1 1 0 0 1-.26.68 1.33 1.33 0 0 1-.81.35 1.3 1.3 0 0 1 .3.19 2.61 2.61 0 0 1 .42.51l.66 1h-.63l-.5-.79q-.22-.34-.36-.52a1.14 1.14 0 0 0-.26-.25.76.76 0 0 0-.23-.1h-.86v1.7zm.5-2.12h1.08a1.62 1.62 0 0 0 .54-.07.57.57 0 0 0 .3-.23.61.61 0 0 0 .1-.34.57.57 0 0 0-.2-.44.92.92 0 0 0-.62-.17h-1.2zM39.69 226.81h.47a1 1 0 0 0 .16.47.86.86 0 0 0 .38.3 1.45 1.45 0 0 0 .58.11 1.4 1.4 0 0 0 .51-.09.7.7 0 0 0 .33-.23.54.54 0 0 0 .11-.33.49.49 0 0 0-.1-.31.77.77 0 0 0-.34-.22 6.77 6.77 0 0 0-.68-.19 3.42 3.42 0 0 1-.73-.24 1 1 0 0 1-.41-.35.86.86 0 0 1-.13-.47 1 1 0 0 1 .16-.54 1 1 0 0 1 .48-.38 1.81 1.81 0 0 1 .7-.13 1.9 1.9 0 0 1 .75.14 1.08 1.08 0 0 1 .5.4 1.16 1.16 0 0 1 .19.6h-.48a.78.78 0 0 0-.26-.54 1 1 0 0 0-.66-.18 1.06 1.06 0 0 0-.67.17.5.5 0 0 0-.21.4.43.43 0 0 0 .15.34 2 2 0 0 0 .76.27 5 5 0 0 1 .84.24 1.16 1.16 0 0 1 .49.39 1 1 0 0 1 .16.54 1 1 0 0 1-.17.57 1.14 1.14 0 0 1-.5.42 1.73 1.73 0 0 1-.73.15 2.19 2.19 0 0 1-.87-.15 1.22 1.22 0 0 1-.55-.45 1.28 1.28 0 0 1-.23-.71zM44.37 228v-3.35h-1.25v-.45h3v.45h-1.24V228z" transform="translate(-12.26 -7.09)"/></g><g class="cls-2"><path class="cls-3" d="M60.39 228.61v-3.8h.52l2 3v-3h.48v3.8h-.52l-2-3v3zM66.95 227.27l.5.13a1.69 1.69 0 0 1-.57.95 1.57 1.57 0 0 1-1 .33 1.81 1.81 0 0 1-1-.25 1.56 1.56 0 0 1-.59-.73 2.58 2.58 0 0 1-.2-1 2.24 2.24 0 0 1 .23-1 1.55 1.55 0 0 1 .68-.7 1.89 1.89 0 0 1 .92-.23 1.56 1.56 0 0 1 1 .29 1.51 1.51 0 0 1 .54.82l-.5.12a1.18 1.18 0 0 0-.38-.6 1 1 0 0 0-.63-.19 1.23 1.23 0 0 0-.73.21 1.11 1.11 0 0 0-.41.56 2.27 2.27 0 0 0-.12.73 2.32 2.32 0 0 0 .14.85 1.05 1.05 0 0 0 .44.54 1.23 1.23 0 0 0 .65.18 1.08 1.08 0 0 0 .72-.24 1.25 1.25 0 0 0 .31-.77z" transform="translate(-12.26 -7.09)"/></g><g class="cls-2"><path class="cls-3" d="M49.92 227.6l.47-.06a1 1 0 0 0 .27.57.68.68 0 0 0 .47.18.75.75 0 0 0 .56-.23.77.77 0 0 0 .23-.57.72.72 0 0 0-.21-.53.73.73 0 0 0-.53-.21 1.36 1.36 0 0 0-.33.05l.05-.41h.1a1 1 0 0 0 .54-.16.53.53 0 0 0 .24-.48.57.57 0 0 0-.17-.43.62.62 0 0 0-.45-.17.64.64 0 0 0-.45.17.86.86 0 0 0-.23.51l-.47-.08a1.2 1.2 0 0 1 .39-.73 1.13 1.13 0 0 1 .75-.26 1.25 1.25 0 0 1 .57.13 1 1 0 0 1 .4.36.94.94 0 0 1 .14.49.8.8 0 0 1-.13.45.91.91 0 0 1-.39.32.88.88 0 0 1 .52.32 1 1 0 0 1 .19.61 1.12 1.12 0 0 1-.36.84 1.28 1.28 0 0 1-.92.35 1.19 1.19 0 0 1-.83-.3 1.15 1.15 0 0 1-.42-.73zM54.15 228.61l-1.47-3.8h.54l1 2.76q.12.33.2.62.09-.31.21-.62l1-2.76h.51l-1.49 3.8z" transform="translate(-12.26 -7.09)"/></g><g class="cls-2"><path class="cls-3" d="M101.43 227.55h-3v-.41l2.39-1.6h-2.43v-.39h3v.41l-2.39 1.6h2.39zM100.37 222.31l.1-.4a1.35 1.35 0 0 1 .76.46 1.26 1.26 0 0 1 .26.8 1.44 1.44 0 0 1-.2.8 1.25 1.25 0 0 1-.58.47 2.06 2.06 0 0 1-.82.16 1.79 1.79 0 0 1-.83-.18 1.25 1.25 0 0 1-.54-.52 1.51 1.51 0 0 1-.18-.74 1.25 1.25 0 0 1 .23-.77 1.21 1.21 0 0 1 .65-.43l.09.4a.94.94 0 0 0-.48.31.82.82 0 0 0-.15.51 1 1 0 0 0 .17.59.89.89 0 0 0 .45.33 1.82 1.82 0 0 0 .58.1 1.86 1.86 0 0 0 .68-.11.85.85 0 0 0 .43-.35 1 1 0 0 0 .14-.52.86.86 0 0 0-.2-.57 1 1 0 0 0-.56-.34z" transform="translate(-12.26 -7.09)"/></g><g class="cls-2"><path class="cls-3" d="M84 228.61l1.46-3.8H86l1.56 3.8H87l-.44-1.15h-1.64l-.42 1.15zm1.1-1.56h1.29L86 226q-.18-.48-.27-.79a4.82 4.82 0 0 1-.21.73zM87.93 228.61v-3.8h1.31a3.18 3.18 0 0 1 .68.05 1.29 1.29 0 0 1 .56.27 1.55 1.55 0 0 1 .45.65 2.55 2.55 0 0 1 .15.9 2.66 2.66 0 0 1-.1.77 1.86 1.86 0 0 1-.26.55 1.37 1.37 0 0 1-.35.35 1.4 1.4 0 0 1-.45.19 2.58 2.58 0 0 1-.61.06zm.5-.45h.81a2 2 0 0 0 .59-.07.85.85 0 0 0 .34-.2 1.2 1.2 0 0 0 .28-.48 2.35 2.35 0 0 0 .1-.73 1.77 1.77 0 0 0-.2-.92 1 1 0 0 0-.48-.43 2 2 0 0 0-.65-.08h-.8zM94.48 227.27l.5.13a1.69 1.69 0 0 1-.57.95 1.57 1.57 0 0 1-1 .33 1.81 1.81 0 0 1-1-.25 1.56 1.56 0 0 1-.59-.73 2.58 2.58 0 0 1-.2-1 2.24 2.24 0 0 1 .23-1 1.55 1.55 0 0 1 .65-.67 1.89 1.89 0 0 1 .92-.23 1.56 1.56 0 0 1 1 .29 1.51 1.51 0 0 1 .54.82l-.5.12a1.18 1.18 0 0 0-.38-.6 1 1 0 0 0-.63-.19 1.23 1.23 0 0 0-.73.21 1.11 1.11 0 0 0-.41.56 2.27 2.27 0 0 0-.12.73 2.32 2.32 0 0 0 .14.85 1.05 1.05 0 0 0 .44.54 1.23 1.23 0 0 0 .65.18 1.08 1.08 0 0 0 .72-.24 1.25 1.25 0 0 0 .34-.8z" transform="translate(-12.26 -7.09)"/></g><g class="cls-2"><path class="cls-3" d="M126 147.94h-.37v-2.38a1.91 1.91 0 0 1-.35.26 2.51 2.51 0 0 1-.39.19v-.36a2.25 2.25 0 0 0 .55-.36 1.4 1.4 0 0 0 .33-.41h.23zM128.16 147.94v-.73h-1.32v-.34l1.39-2h.3v2h.41v.34h-.41v.73zm0-1.07v-1.37l-1 1.37z" transform="translate(-12.26 -7.09)"/></g><g class="cls-2"><path class="cls-3" d="M195.29 147.58v.36h-2a.67.67 0 0 1 0-.26 1.37 1.37 0 0 1 .25-.4 3.87 3.87 0 0 1 .49-.46 4.17 4.17 0 0 0 .67-.64.77.77 0 0 0 .17-.45.5.5 0 0 0-.16-.37.57.57 0 0 0-.41-.15.58.58 0 0 0-.43.16.61.61 0 0 0-.16.45h-.38a1 1 0 0 1 .3-.65 1 1 0 0 1 .69-.23 1 1 0 0 1 .69.24.8.8 0 0 1 .26.6.91.91 0 0 1-.07.36 1.39 1.39 0 0 1-.25.37 6 6 0 0 1-.58.54q-.34.28-.43.38a1.25 1.25 0 0 0-.16.2z" transform="translate(-12.26 -7.09)"/></g><g class="cls-2"><path class="cls-3" d="M148.9 147.94h-.37v-2.38a1.91 1.91 0 0 1-.35.26 2.51 2.51 0 0 1-.39.19v-.36a2.25 2.25 0 0 0 .55-.36 1.4 1.4 0 0 0 .33-.41h.24zM149.86 147.14h.37a.82.82 0 0 0 .22.46.54.54 0 0 0 .38.14.6.6 0 0 0 .45-.18.62.62 0 0 0 .18-.45.57.57 0 0 0-.17-.42.58.58 0 0 0-.43-.17 1.07 1.07 0 0 0-.26 0v-.33h.06a.77.77 0 0 0 .43-.12.43.43 0 0 0 .19-.38.45.45 0 0 0-.14-.34.49.49 0 0 0-.36-.13.51.51 0 0 0-.36.14.69.69 0 0 0-.19.41l-.37-.07a1 1 0 0 1 .31-.58.9.9 0 0 1 .6-.21 1 1 0 0 1 .46.11.77.77 0 0 1 .32.29.75.75 0 0 1 .11.39.65.65 0 0 1-.11.36.73.73 0 0 1-.31.26.71.71 0 0 1 .42.26.78.78 0 0 1 .15.49.9.9 0 0 1-.29.68 1 1 0 0 1-.73.28 1 1 0 0 1-.67-.24.92.92 0 0 1-.26-.65z" transform="translate(-12.26 -7.09)"/></g><g class="cls-2"><path class="cls-3" d="M160.35 147.94H160v-2.38a1.91 1.91 0 0 1-.35.26 2.51 2.51 0 0 1-.39.19v-.36a2.25 2.25 0 0 0 .55-.36 1.4 1.4 0 0 0 .33-.41h.24zM161.31 147.14h.39a.7.7 0 0 0 .2.43.55.55 0 0 0 .38.14.6.6 0 0 0 .46-.2.77.77 0 0 0 .19-.54.69.69 0 0 0-.18-.5.63.63 0 0 0-.47-.18.65.65 0 0 0-.33.08.64.64 0 0 0-.23.21h-.35l.29-1.56h1.51v.36H162l-.16.82a1 1 0 0 1 .57-.19.91.91 0 0 1 .67.28 1 1 0 0 1 .27.71 1.11 1.11 0 0 1-.24.71 1 1 0 0 1-.8.37 1 1 0 0 1-.68-.23.91.91 0 0 1-.32-.71z" transform="translate(-12.26 -7.09)"/></g><g class="cls-2"><path class="cls-3" d="M171.57 146.44a2.78 2.78 0 0 1 .11-.87 1.08 1.08 0 0 1 .33-.51.84.84 0 0 1 .55-.18.9.9 0 0 1 .43.1.82.82 0 0 1 .31.28 1.53 1.53 0 0 1 .19.45 3 3 0 0 1 .07.72 2.79 2.79 0 0 1-.11.86 1.08 1.08 0 0 1-.33.51.93.93 0 0 1-1.24-.14 2 2 0 0 1-.31-1.22zm.38 0a1.9 1.9 0 0 0 .18 1 .5.5 0 0 0 .87 0 2.92 2.92 0 0 0 0-2 .52.52 0 0 0-.44-.25.48.48 0 0 0-.41.22 1.92 1.92 0 0 0-.15 1.03z" transform="translate(-12.26 -7.09)"/></g><g class="cls-2"><path class="cls-3" d="M157 228.81h.38a.83.83 0 0 0 .13.37.68.68 0 0 0 .31.24 1.16 1.16 0 0 0 .47.09 1.13 1.13 0 0 0 .41-.07.57.57 0 0 0 .26-.19.44.44 0 0 0 .04-.25.4.4 0 0 0-.08-.25.61.61 0 0 0-.27-.18l-.54-.15a2.77 2.77 0 0 1-.59-.19.82.82 0 0 1-.32-.28.69.69 0 0 1-.11-.38.77.77 0 0 1 .13-.43.81.81 0 0 1 .38-.3 1.45 1.45 0 0 1 .56-.1 1.53 1.53 0 0 1 .6.11.86.86 0 0 1 .4.32.92.92 0 0 1 .15.48h-.39a.62.62 0 0 0-.21-.44.82.82 0 0 0-.53-.15.85.85 0 0 0-.53.13.4.4 0 0 0-.17.32.35.35 0 0 0 .12.27 1.61 1.61 0 0 0 .61.22 4 4 0 0 1 .67.19.92.92 0 0 1 .39.31.76.76 0 0 1 .13.43.83.83 0 0 1-.14.46.92.92 0 0 1-.4.33 1.39 1.39 0 0 1-.59.12 1.75 1.75 0 0 1-.69-.12 1 1 0 0 1-.44-.36 1 1 0 0 1-.14-.55zM162.09 228.72l.4.1a1.35 1.35 0 0 1-.46.76 1.26 1.26 0 0 1-.8.26 1.44 1.44 0 0 1-.8-.2 1.25 1.25 0 0 1-.47-.58 2.06 2.06 0 0 1-.16-.82 1.79 1.79 0 0 1 .18-.83 1.25 1.25 0 0 1 .52-.54 1.51 1.51 0 0 1 .74-.18 1.25 1.25 0 0 1 .77.23 1.21 1.21 0 0 1 .43.65l-.4.09a.94.94 0 0 0-.31-.48.82.82 0 0 0-.51-.15 1 1 0 0 0-.59.17.89.89 0 0 0-.33.45 1.82 1.82 0 0 0-.1.58 1.86 1.86 0 0 0 .11.68.85.85 0 0 0 .35.43 1 1 0 0 0 .52.14.86.86 0 0 0 .57-.2 1 1 0 0 0 .34-.56zM163 229.79v-3h.4v1.51l1.51-1.51h.55l-1.3 1.21 1.33 1.81H165l-1.08-1.54-.5.49v1.05z" transform="translate(-12.26 -7.09)"/></g><g class="cls-2"><path class="cls-3" d="M170 229.79v-3h.61l.72 2.15.15.45.16-.49.73-2.12h.54v3h-.39v-2.55l-.88 2.55h-.36l-.88-2.59v2.59zM173.47 228.31a1.65 1.65 0 0 1 .41-1.19 1.38 1.38 0 0 1 1-.43 1.46 1.46 0 0 1 .76.2 1.31 1.31 0 0 1 .52.56 1.82 1.82 0 0 1 .18.82 1.79 1.79 0 0 1-.19.83 1.28 1.28 0 0 1-.53.55 1.51 1.51 0 0 1-.74.19 1.44 1.44 0 0 1-.77-.21 1.34 1.34 0 0 1-.51-.57 1.72 1.72 0 0 1-.13-.75zm.42 0a1.22 1.22 0 0 0 .3.87 1 1 0 0 0 1.49 0 1.29 1.29 0 0 0 .29-.91 1.55 1.55 0 0 0-.13-.65 1 1 0 0 0-.37-.43 1 1 0 0 0-.54-.15 1 1 0 0 0-.74.29 1.31 1.31 0 0 0-.3.99z" transform="translate(-12.26 -7.09)"/></g><g class="cls-2"><path class="cls-3" d="M182.55 229.79v-3h.61l.72 2.15.15.45.16-.49.73-2.12h.54v3h-.39v-2.55l-.88 2.55h-.36l-.88-2.59v2.59zM186.17 229.79v-3h.4v3z" transform="translate(-12.26 -7.09)"/></g><g class="cls-2"><path class="cls-3" d="M206.2 140h.39a.7.7 0 0 0 .2.43.55.55 0 0 0 .38.14.6.6 0 0 0 .46-.2.77.77 0 0 0 .19-.54.69.69 0 0 0-.18-.5.63.63 0 0 0-.47-.18.65.65 0 0 0-.33.08.64.64 0 0 0-.23.21h-.35l.29-1.56h1.51v.36h-1.21l-.16.82a1 1 0 0 1 .57-.19.91.91 0 0 1 .67.28 1 1 0 0 1 .27.71 1.11 1.11 0 0 1-.24.71 1 1 0 0 1-.8.37 1 1 0 0 1-.68-.23.91.91 0 0 1-.28-.71z" transform="translate(-12.26 -7.09)"/></g><g class="cls-2"><path class="cls-3" d="M218.56 140.78v-.73h-1.32v-.34l1.39-2h.3v2h.41v.34h-.41v.73zm0-1.07v-1.37l-1 1.37z" transform="translate(-12.26 -7.09)"/></g><g class="cls-2"><path class="cls-3" d="M193.43 229.79v-3h1.35a1.81 1.81 0 0 1 .62.08.68.68 0 0 1 .34.29.86.86 0 0 1 .13.46.76.76 0 0 1-.21.55 1.06 1.06 0 0 1-.65.28 1 1 0 0 1 .24.15 2.09 2.09 0 0 1 .33.4l.53.83h-.51l-.4-.63q-.18-.27-.29-.42a.92.92 0 0 0-.2-.2.6.6 0 0 0-.18-.08h-.69v1.35zm.4-1.7h.87a1.3 1.3 0 0 0 .43-.06.46.46 0 0 0 .24-.18.49.49 0 0 0 .08-.27.45.45 0 0 0-.16-.35.73.73 0 0 0-.49-.14h-1zM196.18 229.79l1.18-1.59-1-1.46h.48l.55.78a4.38 4.38 0 0 1 .25.37 3.91 3.91 0 0 1 .24-.35l.61-.81h.44l-1.07 1.43 1.15 1.61h-.5l-.77-1.09-.13-.2-.15.23-.76 1.06z" transform="translate(-12.26 -7.09)"/></g><g class="cls-2"><path class="cls-3" d="M205.31 229.79v-2.68h-1v-.36h2.41v.36h-1v2.68zM206.82 229.79l1.18-1.59-1-1.46h.48l.55.78a4.38 4.38 0 0 1 .25.37 3.91 3.91 0 0 1 .24-.35l.61-.81h.44l-1.07 1.43 1.15 1.61h-.5l-.77-1.09-.13-.2-.15.23-.76 1.06z" transform="translate(-12.26 -7.09)"/></g><g class="cls-2"><path class="cls-3" d="M83.28 150.19v-3.8h1.43a1.76 1.76 0 0 1 .7.12.9.9 0 0 1 .41.36.94.94 0 0 1 .15.5.86.86 0 0 1-.13.46.94.94 0 0 1-.4.35 1 1 0 0 1 .53.34.92.92 0 0 1 .19.58 1.11 1.11 0 0 1-.11.5 1 1 0 0 1-.28.35 1.17 1.17 0 0 1-.42.19 2.53 2.53 0 0 1-.61.06zm.5-2.2h.82a1.81 1.81 0 0 0 .48 0 .53.53 0 0 0 .29-.19.55.55 0 0 0 .1-.33.61.61 0 0 0-.09-.33.46.46 0 0 0-.26-.2 2.18 2.18 0 0 0-.58-.05h-.76zm0 1.76h1.29a.81.81 0 0 0 .29-.1.55.55 0 0 0 .19-.21.66.66 0 0 0 .08-.32.63.63 0 0 0-.11-.37.57.57 0 0 0-.3-.22 1.87 1.87 0 0 0-.56-.06h-.88zM86.43 150.19l1.46-3.8h.54l1.56 3.8h-.57L89 149h-1.62l-.38 1.19zm1.1-1.56h1.29l-.4-1.05q-.18-.48-.27-.79a4.82 4.82 0 0 1-.21.73zM91 150.19v-3.35h-1.29v-.45h3v.45h-1.24v3.35z" transform="translate(-12.26 -7.09)"/></g><g class="cls-2"><path class="cls-3" d="M137.45 147.94h-.37v-2.38a1.91 1.91 0 0 1-.35.26 2.51 2.51 0 0 1-.39.19v-.36a2.25 2.25 0 0 0 .55-.36 1.4 1.4 0 0 0 .33-.41h.24zM140.37 147.58v.36h-2a.67.67 0 0 1 0-.26 1.37 1.37 0 0 1 .25-.4 3.87 3.87 0 0 1 .49-.46 4.17 4.17 0 0 0 .67-.64.77.77 0 0 0 .17-.45.5.5 0 0 0-.16-.37.57.57 0 0 0-.41-.15.58.58 0 0 0-.43.16.61.61 0 0 0-.16.45h-.38a1 1 0 0 1 .3-.65 1 1 0 0 1 .69-.23 1 1 0 0 1 .69.24.8.8 0 0 1 .26.6.91.91 0 0 1-.07.36 1.39 1.39 0 0 1-.25.37 6 6 0 0 1-.58.54q-.34.28-.43.38a1.25 1.25 0 0 0-.16.2z" transform="translate(-12.26 -7.09)"/></g><g class="cls-2"><path class="cls-3" d="M183.24 147.94h-.37v-2.38a1.91 1.91 0 0 1-.35.26 2.51 2.51 0 0 1-.39.19v-.36a2.25 2.25 0 0 0 .55-.36 1.4 1.4 0 0 0 .33-.41h.24zM186.14 145.64h-.37a.7.7 0 0 0-.14-.32.49.49 0 0 0-.37-.16.51.51 0 0 0-.31.1.85.85 0 0 0-.28.38 2 2 0 0 0-.11.7.87.87 0 0 1 .33-.31.89.89 0 0 1 .41-.1.85.85 0 0 1 .64.27 1 1 0 0 1 .26.71 1.17 1.17 0 0 1-.12.53.9.9 0 0 1-.34.38.93.93 0 0 1-.49.13 1 1 0 0 1-.76-.34 1.73 1.73 0 0 1-.29-1.13 2 2 0 0 1 .33-1.28.94.94 0 0 1 .77-.35.81.81 0 0 1 .86.76zm-1.53 1.36a.87.87 0 0 0 .08.37.61.61 0 0 0 .23.27.58.58 0 0 0 .31.09.53.53 0 0 0 .41-.19.75.75 0 0 0 .17-.52.7.7 0 0 0-.17-.5.55.55 0 0 0-.42-.18.58.58 0 0 0-.43.18.65.65 0 0 0-.18.48z" transform="translate(-12.26 -7.09)"/></g><g class="cls-2"><path class="cls-3" d="M72.7 227.11v-.45h1.61v1.41a2.83 2.83 0 0 1-.77.44 2.27 2.27 0 0 1-.81.15 2.16 2.16 0 0 1-1-.24 1.59 1.59 0 0 1-.69-.69 2.18 2.18 0 0 1-.23-1 2.35 2.35 0 0 1 .23-1 1.54 1.54 0 0 1 .67-.71 2.09 2.09 0 0 1 1-.23 2 2 0 0 1 .75.13 1.24 1.24 0 0 1 .52.37 1.65 1.65 0 0 1 .29.62l-.45.12a1.41 1.41 0 0 0-.21-.46.87.87 0 0 0-.36-.27 1.33 1.33 0 0 0-.52-.1 1.53 1.53 0 0 0-.6.11 1.12 1.12 0 0 0-.41.28 1.33 1.33 0 0 0-.24.38 2 2 0 0 0-.15.77 1.86 1.86 0 0 0 .18.85 1.12 1.12 0 0 0 .49.41 1.58 1.58 0 0 0 .71.17 1.69 1.69 0 0 0 .64-.13 1.65 1.65 0 0 0 .47-.27v-.71zM75.05 228.61v-3.8h.52l2 3v-3H78v3.8h-.52l-2-3v3zM78.89 228.61v-3.8h1.31a3.18 3.18 0 0 1 .68.05 1.29 1.29 0 0 1 .56.27 1.55 1.55 0 0 1 .45.65 2.55 2.55 0 0 1 .15.9 2.66 2.66 0 0 1-.1.77 1.86 1.86 0 0 1-.26.55 1.37 1.37 0 0 1-.35.35 1.4 1.4 0 0 1-.45.19 2.58 2.58 0 0 1-.61.06zm.5-.45h.81a2 2 0 0 0 .59-.07.85.85 0 0 0 .34-.2 1.2 1.2 0 0 0 .28-.48 2.35 2.35 0 0 0 .1-.73 1.77 1.77 0 0 0-.2-.92 1 1 0 0 0-.48-.43 2 2 0 0 0-.65-.08h-.8z" transform="translate(-12.26 -7.09)"/></g><g class="cls-2"><path class="cls-3" d="M39.07 159.95l-1.1-.23v.44h-.39v-.52l-.94-.19v.71h-.39v-.79l-1.11-.23v-.39l1.11.23v-.82l-1.11-.23v-.39l1.11.23v-.45h.39v.53l.94.19v-.72H38v.8l1.1.23v.39l-1.1-.22v.81l1.1.23zm-1.49-.69v-.81l-.94-.19v.82zM37.13 157a3.47 3.47 0 0 1-1.13-.1 1.35 1.35 0 0 1-.63-.41 1.06 1.06 0 0 1-.22-.69 1.12 1.12 0 0 1 .12-.54 1 1 0 0 1 .36-.38 1.9 1.9 0 0 1 .57-.24 3.78 3.78 0 0 1 .9-.09 3.48 3.48 0 0 1 1.08.14 1.35 1.35 0 0 1 .64.41 1.16 1.16 0 0 1-.17 1.55 2.5 2.5 0 0 1-1.52.35zm0-.48a2.39 2.39 0 0 0 1.25-.22.63.63 0 0 0 0-1.08 2.39 2.39 0 0 0-1.25-.22 2.39 2.39 0 0 0-1.25.22.65.65 0 0 0-.31.55.6.6 0 0 0 .27.51 2.41 2.41 0 0 0 1.29.28z" transform="translate(-12.26 -7.09)"/></g><g class="cls-2"><path class="cls-3" d="M95.47 150.19v-3.8h2.75v.45H96V148h2.1v.45H96v1.29h2.33v.45zM99 150.19v-3.8h.52l2 3v-3h.48v3.8h-.52l-2-3v3z" transform="translate(-12.26 -7.09)"/></g><g class="cls-2"><path class="cls-3" d="M220.28 234.34l.1-.4a1.35 1.35 0 0 1 .76.46 1.26 1.26 0 0 1 .26.8 1.44 1.44 0 0 1-.2.8 1.25 1.25 0 0 1-.58.47 2.06 2.06 0 0 1-.82.16 1.79 1.79 0 0 1-.83-.18 1.25 1.25 0 0 1-.54-.52 1.51 1.51 0 0 1-.18-.74 1.25 1.25 0 0 1 .23-.77 1.21 1.21 0 0 1 .65-.43l.09.4a.94.94 0 0 0-.48.31.82.82 0 0 0-.15.51 1 1 0 0 0 .17.59.89.89 0 0 0 .45.33 1.82 1.82 0 0 0 .58.1 1.86 1.86 0 0 0 .68-.11.85.85 0 0 0 .43-.35 1 1 0 0 0 .14-.52.86.86 0 0 0-.2-.57 1 1 0 0 0-.56-.34zM221.35 233.43h-3V233h1.25v-1.58h-1.25V231h3v.4h-1.43v1.6h1.43zM221.35 230.37h-3v-1.15a2.76 2.76 0 0 1 0-.46.92.92 0 0 1 .14-.38.74.74 0 0 1 .29-.24 1 1 0 0 1 1.07.15 1.18 1.18 0 0 1 .27.89v.82h1.24zm-1.6-.4v-.79a.83.83 0 0 0-.15-.55.52.52 0 0 0-.41-.16.55.55 0 0 0-.33.1.45.45 0 0 0-.18.25 1.72 1.72 0 0 0 0 .38v.8zM221.35 227.53h-3v-1a2.53 2.53 0 0 1 0-.54 1 1 0 0 1 .22-.45 1.24 1.24 0 0 1 .52-.36 2 2 0 0 1 .72-.12 2.14 2.14 0 0 1 .61.08 1.49 1.49 0 0 1 .44.21 1.09 1.09 0 0 1 .28.28 1.12 1.12 0 0 1 .15.36 2.07 2.07 0 0 1 .05.49zm-.36-.4v-.65a1.57 1.57 0 0 0-.06-.47.67.67 0 0 0-.16-.27 1 1 0 0 0-.38-.22 1.89 1.89 0 0 0-.59-.08 1.41 1.41 0 0 0-.73.16.79.79 0 0 0-.34.38 1.58 1.58 0 0 0-.06.52v.64z" transform="translate(-12.26 -7.09)"/></g><g class="cls-2"><path class="cls-3" d="M50.34 198.27v-3.8H52a2.24 2.24 0 0 1 .77.1.85.85 0 0 1 .42.36 1.08 1.08 0 0 1 .16.57 1 1 0 0 1-.26.68 1.33 1.33 0 0 1-.81.35 1.3 1.3 0 0 1 .3.19 2.61 2.61 0 0 1 .42.51l.66 1h-.63l-.5-.79q-.22-.34-.36-.52a1.14 1.14 0 0 0-.26-.25.76.76 0 0 0-.23-.1h-.86v1.69zm.5-2.12h1.08a1.62 1.62 0 0 0 .54-.07.57.57 0 0 0 .3-.23.61.61 0 0 0 .1-.34.57.57 0 0 0-.2-.44.92.92 0 0 0-.62-.17h-1.2zM54 197h.47a1 1 0 0 0 .16.47.86.86 0 0 0 .38.3 1.45 1.45 0 0 0 .58.11 1.4 1.4 0 0 0 .51-.09.7.7 0 0 0 .33-.23.54.54 0 0 0 .11-.33.49.49 0 0 0-.1-.31.77.77 0 0 0-.34-.22 6.77 6.77 0 0 0-.68-.19 3.42 3.42 0 0 1-.73-.24 1 1 0 0 1-.41-.35.86.86 0 0 1-.13-.47 1 1 0 0 1 .16-.54 1 1 0 0 1 .48-.38 1.81 1.81 0 0 1 .7-.13 1.9 1.9 0 0 1 .75.14 1.08 1.08 0 0 1 .5.4 1.16 1.16 0 0 1 .19.6h-.48a.78.78 0 0 0-.26-.54 1 1 0 0 0-.66-.18 1.06 1.06 0 0 0-.67.17.5.5 0 0 0-.21.4.43.43 0 0 0 .15.34 2 2 0 0 0 .76.27 5 5 0 0 1 .84.24 1.16 1.16 0 0 1 .49.39 1 1 0 0 1 .16.54 1 1 0 0 1-.17.57 1.14 1.14 0 0 1-.5.42 1.73 1.73 0 0 1-.73.15 2.19 2.19 0 0 1-.87-.15 1.22 1.22 0 0 1-.55-.45A1.28 1.28 0 0 1 54 197zM58.68 198.27v-3.35h-1.25v-.45h3v.45h-1.24v3.35z" transform="translate(-12.26 -7.09)"/></g><g class="cls-2"><path class="cls-3" d="M35.29 215.25l.5.13a1.69 1.69 0 0 1-.57.95 1.57 1.57 0 0 1-1 .33 1.81 1.81 0 0 1-1-.25 1.56 1.56 0 0 1-.59-.73 2.58 2.58 0 0 1-.2-1 2.24 2.24 0 0 1 .23-1 1.55 1.55 0 0 1 .65-.67 1.89 1.89 0 0 1 .92-.23 1.56 1.56 0 0 1 1 .29 1.51 1.51 0 0 1 .54.82l-.5.12a1.18 1.18 0 0 0-.38-.6 1 1 0 0 0-.63-.19 1.23 1.23 0 0 0-.73.21 1.11 1.11 0 0 0-.41.56 2.27 2.27 0 0 0-.12.73 2.32 2.32 0 0 0 .14.85 1.05 1.05 0 0 0 .44.54 1.23 1.23 0 0 0 .65.18 1.08 1.08 0 0 0 .72-.24 1.25 1.25 0 0 0 .34-.8zM36.42 216.58v-3.8h.5v1.56h2v-1.56h.5v3.8h-.5v-1.79h-2v1.79zM42 215.09v-.45h1.61v1.41a2.83 2.83 0 0 1-.77.44 2.27 2.27 0 0 1-.81.15 2.16 2.16 0 0 1-1-.24 1.59 1.59 0 0 1-.69-.69 2.18 2.18 0 0 1-.23-1 2.35 2.35 0 0 1 .23-1A1.54 1.54 0 0 1 41 213a2.09 2.09 0 0 1 1-.23 2 2 0 0 1 .75.13 1.24 1.24 0 0 1 .52.37 1.65 1.65 0 0 1 .29.62l-.45.12a1.41 1.41 0 0 0-.21-.46.87.87 0 0 0-.36-.27 1.33 1.33 0 0 0-.52-.1 1.53 1.53 0 0 0-.6.11 1.12 1.12 0 0 0-.41.28 1.33 1.33 0 0 0-.24.38 2 2 0 0 0-.15.77 1.86 1.86 0 0 0 .18.85 1.12 1.12 0 0 0 .51.51 1.58 1.58 0 0 0 .71.17 1.69 1.69 0 0 0 .64-.13 1.65 1.65 0 0 0 .47-.27v-.71z" transform="translate(-12.26 -7.09)"/></g><g class="cls-2"><path class="cls-3" d="M111.74 227.55h-3v-.41l2.39-1.6h-2.43v-.39h3v.41l-2.39 1.6h2.39zM110.67 222.31l.1-.4a1.35 1.35 0 0 1 .76.46 1.26 1.26 0 0 1 .26.8 1.44 1.44 0 0 1-.2.8 1.25 1.25 0 0 1-.58.47 2.06 2.06 0 0 1-.82.16 1.79 1.79 0 0 1-.83-.18 1.25 1.25 0 0 1-.54-.52 1.51 1.51 0 0 1-.18-.74 1.25 1.25 0 0 1 .23-.77 1.21 1.21 0 0 1 .65-.43l.09.4a.94.94 0 0 0-.48.31.82.82 0 0 0-.15.51 1 1 0 0 0 .17.59.89.89 0 0 0 .45.33 1.82 1.82 0 0 0 .58.1 1.86 1.86 0 0 0 .68-.11.85.85 0 0 0 .43-.35 1 1 0 0 0 .14-.52.86.86 0 0 0-.2-.57 1 1 0 0 0-.56-.34z" transform="translate(-12.26 -7.09)"/></g><g class="cls-2"><path class="cls-3" d="M118.32 228.65v-3h.41l1.6 2.39v-2.44h.39v3h-.41l-1.6-2.39v2.39zM123.56 227.58l.4.1a1.35 1.35 0 0 1-.46.76 1.26 1.26 0 0 1-.8.26 1.44 1.44 0 0 1-.8-.2 1.25 1.25 0 0 1-.47-.58 2.06 2.06 0 0 1-.16-.82 1.79 1.79 0 0 1 .18-.83 1.25 1.25 0 0 1 .52-.54 1.51 1.51 0 0 1 .74-.18 1.25 1.25 0 0 1 .77.23 1.21 1.21 0 0 1 .43.65l-.4.09a.94.94 0 0 0-.31-.48.82.82 0 0 0-.51-.15 1 1 0 0 0-.59.17.89.89 0 0 0-.33.45 1.82 1.82 0 0 0-.1.58 1.86 1.86 0 0 0 .11.68.85.85 0 0 0 .35.43 1 1 0 0 0 .52.14.86.86 0 0 0 .57-.2 1 1 0 0 0 .34-.56z" transform="translate(-12.26 -7.09)"/></g><g class="cls-2"><path class="cls-3" d="M126.33 228.65v-3h.41l1.6 2.39v-2.44h.39v3h-.41l-1.6-2.39v2.39zM131.57 227.58l.4.1a1.35 1.35 0 0 1-.46.76 1.26 1.26 0 0 1-.8.26 1.44 1.44 0 0 1-.8-.2 1.25 1.25 0 0 1-.47-.58 2.06 2.06 0 0 1-.16-.82 1.79 1.79 0 0 1 .18-.83 1.25 1.25 0 0 1 .52-.54 1.51 1.51 0 0 1 .74-.18 1.25 1.25 0 0 1 .77.23 1.21 1.21 0 0 1 .43.65l-.4.09a.94.94 0 0 0-.31-.48.82.82 0 0 0-.51-.15 1 1 0 0 0-.59.17.89.89 0 0 0-.33.45 1.82 1.82 0 0 0-.1.58 1.86 1.86 0 0 0 .11.68.85.85 0 0 0 .35.43 1 1 0 0 0 .52.14.86.86 0 0 0 .57-.2 1 1 0 0 0 .34-.56z" transform="translate(-12.26 -7.09)"/></g><g class="cls-2"><path class="cls-3" d="M136.63 229.79v-3h.37l1.6 2.39v-2.39h.4v3h-.41L137 227.4v2.39zM141.88 228.72l.4.1a1.35 1.35 0 0 1-.46.76 1.26 1.26 0 0 1-.8.26 1.44 1.44 0 0 1-.8-.2 1.25 1.25 0 0 1-.47-.58 2.06 2.06 0 0 1-.16-.82 1.79 1.79 0 0 1 .18-.83 1.25 1.25 0 0 1 .52-.54 1.51 1.51 0 0 1 .74-.18 1.25 1.25 0 0 1 .77.23 1.21 1.21 0 0 1 .43.65l-.4.09a.94.94 0 0 0-.31-.48.82.82 0 0 0-.52-.18 1 1 0 0 0-.59.17.89.89 0 0 0-.33.45 1.82 1.82 0 0 0-.1.58 1.86 1.86 0 0 0 .11.68.85.85 0 0 0 .35.43 1 1 0 0 0 .52.14.86.86 0 0 0 .57-.2 1 1 0 0 0 .35-.53z" transform="translate(-12.26 -7.09)"/></g><g class="cls-2"><path class="cls-3" d="M204.12 147.53h.38a.83.83 0 0 0 .13.37.68.68 0 0 0 .31.24 1.16 1.16 0 0 0 .47.09 1.13 1.13 0 0 0 .41-.07.57.57 0 0 0 .26-.19.44.44 0 0 0 .09-.26.4.4 0 0 0-.08-.25.61.61 0 0 0-.27-.18l-.54-.15a2.77 2.77 0 0 1-.59-.19.82.82 0 0 1-.32-.28.69.69 0 0 1-.11-.38.77.77 0 0 1 .13-.43.81.81 0 0 1 .38-.3 1.45 1.45 0 0 1 .56-.1 1.53 1.53 0 0 1 .6.11.86.86 0 0 1 .4.32.92.92 0 0 1 .15.48h-.39a.62.62 0 0 0-.21-.44.82.82 0 0 0-.53-.15.85.85 0 0 0-.53.13.4.4 0 0 0-.17.32.35.35 0 0 0 .12.27 1.61 1.61 0 0 0 .61.22 4 4 0 0 1 .67.19.92.92 0 0 1 .39.31.76.76 0 0 1 .13.43.83.83 0 0 1-.14.46.92.92 0 0 1-.4.33 1.39 1.39 0 0 1-.59.12 1.75 1.75 0 0 1-.69-.12 1 1 0 0 1-.44-.36 1 1 0 0 1-.19-.54zM209.26 147.45l.4.1a1.35 1.35 0 0 1-.46.76 1.26 1.26 0 0 1-.8.26 1.44 1.44 0 0 1-.8-.2 1.25 1.25 0 0 1-.47-.58 2.06 2.06 0 0 1-.13-.79 1.79 1.79 0 0 1 .18-.83 1.25 1.25 0 0 1 .52-.54 1.51 1.51 0 0 1 .74-.18 1.25 1.25 0 0 1 .77.23 1.21 1.21 0 0 1 .43.65l-.4.09a.94.94 0 0 0-.31-.48.82.82 0 0 0-.51-.15 1 1 0 0 0-.59.17.89.89 0 0 0-.33.45 1.82 1.82 0 0 0-.1.58 1.86 1.86 0 0 0 .11.68.85.85 0 0 0 .35.43 1 1 0 0 0 .52.14.86.86 0 0 0 .57-.2 1 1 0 0 0 .31-.59zM210.15 148.51v-3h.4v2.68H212v.36z" transform="translate(-12.26 -7.09)"/></g><g class="cls-2"><path class="cls-3" d="M215.91 147.53h.38a.83.83 0 0 0 .13.37.68.68 0 0 0 .31.24 1.16 1.16 0 0 0 .47.09 1.13 1.13 0 0 0 .41-.07.57.57 0 0 0 .26-.19.44.44 0 0 0 .09-.26.4.4 0 0 0-.08-.25.61.61 0 0 0-.27-.18l-.54-.15a2.77 2.77 0 0 1-.59-.19.82.82 0 0 1-.32-.28.69.69 0 0 1-.11-.38.77.77 0 0 1 .13-.43.81.81 0 0 1 .38-.3 1.45 1.45 0 0 1 .56-.1 1.53 1.53 0 0 1 .6.11.86.86 0 0 1 .4.32.92.92 0 0 1 .15.48h-.39a.62.62 0 0 0-.21-.44.82.82 0 0 0-.53-.15.85.85 0 0 0-.53.13.4.4 0 0 0-.17.32.35.35 0 0 0 .12.27 1.61 1.61 0 0 0 .61.22 4 4 0 0 1 .67.19.92.92 0 0 1 .39.31.76.76 0 0 1 .13.43.83.83 0 0 1-.14.46.92.92 0 0 1-.4.33 1.39 1.39 0 0 1-.59.12 1.75 1.75 0 0 1-.69-.12 1 1 0 0 1-.44-.36 1 1 0 0 1-.19-.54zM218.88 148.51v-3h1a2.53 2.53 0 0 1 .54 0 1 1 0 0 1 .45.22 1.24 1.24 0 0 1 .36.52 2 2 0 0 1 .12.72 2.14 2.14 0 0 1-.08.61 1.49 1.49 0 0 1-.21.44 1.09 1.09 0 0 1-.28.28 1.12 1.12 0 0 1-.36.15 2.07 2.07 0 0 1-.49.05zm.4-.36h.65a1.57 1.57 0 0 0 .47-.06.67.67 0 0 0 .27-.16 1 1 0 0 0 .22-.38 1.89 1.89 0 0 0 .11-.55 1.41 1.41 0 0 0-.16-.73.79.79 0 0 0-.38-.34 1.58 1.58 0 0 0-.52-.06h-.64zM221.61 148.51l1.17-3h.43l1.25 3H224l-.35-.92h-1.27l-.33.92zm.88-1.25h1l-.32-.84q-.15-.38-.22-.63a3.83 3.83 0 0 1-.16.58z" transform="translate(-12.26 -7.09)"/></g><g class="cls-2"><path class="cls-3" d="M44.73 196h-3.8v-.47h1.36a1 1 0 0 1-.38-.83 1.11 1.11 0 0 1 .12-.53.71.71 0 0 1 .33-.32 1.53 1.53 0 0 1 .62-.1h1.75v.47H43a.72.72 0 0 0-.51.15.56.56 0 0 0-.16.43.76.76 0 0 0 .11.39.61.61 0 0 0 .29.26 1.33 1.33 0 0 0 .51.08h1.51zM44.73 191.22h-.4a1 1 0 0 1 .47.87 1.11 1.11 0 0 1-.09.46.75.75 0 0 1-.23.31.88.88 0 0 1-.35.14 2.37 2.37 0 0 1-.44 0H42v-.47h1.5a2.73 2.73 0 0 0 .49 0 .49.49 0 0 0 .29-.19.58.58 0 0 0 .1-.35.77.77 0 0 0-.11-.39.6.6 0 0 0-.29-.26 1.48 1.48 0 0 0-.54-.08H42v-.47h2.75zM44.73 190.32h-.38l-2-1.75V190.22H42V188h.31l1.69 1.45.32.29V187.88h.4zM44.73 187.66h-.38l-2-1.75V187.56H42v-2.25h.31L44 186.8l.32.29V185.23h.4zM44.39 183a1.74 1.74 0 0 1 .31.5 1.45 1.45 0 0 1 .09.52 1 1 0 0 1-.22.7.73.73 0 0 1-.57.24.77.77 0 0 1-.64-.33 1.13 1.13 0 0 1-.15-.34 3.38 3.38 0 0 1-.07-.42A4.29 4.29 0 0 0 43 183h-.12a.51.51 0 0 0-.4.13.78.78 0 0 0-.16.53.82.82 0 0 0 .12.49.7.7 0 0 0 .41.23l-.06.46a1.13 1.13 0 0 1-.47-.2.9.9 0 0 1-.28-.41 1.84 1.84 0 0 1-.1-.62A1.66 1.66 0 0 1 42 183a.75.75 0 0 1 .21-.32.73.73 0 0 1 .32-.15 2.62 2.62 0 0 1 .43 0h.62a6.59 6.59 0 0 0 .82 0 1 1 0 0 0 .33-.12v.49a1 1 0 0 1-.34.1zm-1 0a3.44 3.44 0 0 1 .18.76 1.77 1.77 0 0 0 .09.41.41.41 0 0 0 .15.18.41.41 0 0 0 .53-.08.61.61 0 0 0 .12-.41 1 1 0 0 0-.12-.48.73.73 0 0 0-.32-.31 1.13 1.13 0 0 0-.47-.08zM44.73 181.81h-3.8v-.47h1.36a1 1 0 0 1-.38-.83A1.11 1.11 0 0 1 42 180a.71.71 0 0 1 .33-.32 1.53 1.53 0 0 1 .62-.1h1.75v.42H43a.72.72 0 0 0-.51.15.56.56 0 0 0-.16.43.76.76 0 0 0 .11.39.61.61 0 0 0 .29.26 1.33 1.33 0 0 0 .51.08h1.51zM43.78 178.6l-2 .14h-.84v-.58h.84l2 .14zm.94.12h-.52v-.54h.53z" transform="translate(-12.26 -7.09)"/></g><path class="cls-4" d="M111.33 165.56h-4.58M62.11 185.88v-4.58M46.47 180.14H51M79.34 181.57h-4.58" transform="translate(-12.26 -7.09)"/><path class="cls-5" d="M24.33 213.36L22 215.07v-3.43l2.29 1.72M26.33 160.41L24 162.13v-3.43l2.29 1.72M25.19 159.52" transform="translate(-12.26 -7.09)"/><path class="cls-6" d="M96.95 157h-7.87m0-6.31h7.87m-2.58 3.15l-2.7 1.8m0 0V152m0 0l2.7 1.8" transform="translate(-12.26 -7.09)"/><path class="cls-7" d="M93.46 153.83l-1.35.9v-1.8l1.35.9" transform="translate(-12.26 -7.09)"/><path class="cls-6" d="M93 218.36h1.58m0-1.58v1.58m-16.45 0h-1.57m0 0v-1.58m18-14.87v-1.58m0 0H93m-14.87 0l-1.58 1.58" transform="translate(-12.26 -7.09)"/><circle class="cls-8" cx="59.57" cy="196.54" r=".57"/><path class="cls-6" d="M124.09 205.64h2.7m0 0V202m-9.92 3.61h-2.7m0 0V202M116.88 167.85h-2.7m0 0v3.61m9.92-3.61h2.7m0 0v3.61M120.49 189.89v2.29M102.75 200.76h-2.29M63.82 189.89h12.6" transform="translate(-12.26 -7.09)"/><path class="cls-8" d="M62.68 197.9a1.14 1.14 0 0 0 1.14 1.1m12.59 0a1.14 1.14 0 0 0 1.14-1.14m0-6.87a1.14 1.14 0 0 0-1.14-1.14m-12.59 0a1.14 1.14 0 0 0-1.14 1.15" transform="translate(-12.26 -7.09)"/><path class="cls-6" d="M62.68 191v6.87M77.56 191v6.87M76.42 199h-12.6M61.54 200.46v18.93m-13.75 0v-18.93" transform="translate(-12.26 -7.09)"/><circle class="cls-8" cx="11.49" cy="139.87" r="9.01"/><circle class="cls-8" cx="11.49" cy="220" r="9.01"/><path class="cls-6" d="M88.84 178.44H96m-7.21-14.87H96m-8.34 9.24v-3.61M96 179h-7.16M96 193.89h-7.16m8.34-9.24v3.61" transform="translate(-12.26 -7.09)"/><path class="cls-6" d="M38.56 130.93h20.28M66.72 146.7v18.03M66.72 164.73h-3.83M62.89 164.73v-11.27M62.89 153.46h-6.31M40.81 153.46H34.5M34.5 153.46v11.27M34.5 164.73h-3.83M30.67 164.73V146.7"/><path class="cls-9" d="M240.33 151v72.11m0 0H132.16m0 0V151m0 0h108.17m-35.15 9v54.08m0 0h-67.6m0 0V160m0 0h67.6" transform="translate(-12.26 -7.09)"/><g class="cls-2"><path class="cls-3" d="M222.46 199l-4.75-1.83v-.68l4.75-1.95v.72l-1.44.55v2l1.44.52zm-2-1.37V196l-1.32.5q-.6.23-1 .34a6.1 6.1 0 0 1 .91.26zM222.46 194.08H219v-.53h.49a1.24 1.24 0 0 1-.57-1.1 1.44 1.44 0 0 1 .11-.57.9.9 0 0 1 .29-.39 1.13 1.13 0 0 1 .43-.18 3.37 3.37 0 0 1 .57 0h2.12v.58h-2.09a1.57 1.57 0 0 0-.53.07.56.56 0 0 0-.28.24.77.77 0 0 0-.11.41 1 1 0 0 0 .24.64 1.17 1.17 0 0 0 .9.27h1.88zM221.94 189.11l.52-.08a2.19 2.19 0 0 1 .05.44 1 1 0 0 1-.1.49.56.56 0 0 1-.26.25 2.08 2.08 0 0 1-.69.07h-2v.43H219v-.43h-.85l-.35-.58h1.2v-.59h.45v.59h2a1 1 0 0 0 .32 0 .24.24 0 0 0 .11-.1.39.39 0 0 0 0-.2 1.89 1.89 0 0 0 .06-.29zM221.35 186.18l.07-.6a1.47 1.47 0 0 1 .82.53 1.79 1.79 0 0 1-.17 2.18 1.82 1.82 0 0 1-1.31.44 1.9 1.9 0 0 1-1.35-.45 1.51 1.51 0 0 1-.48-1.16 1.47 1.47 0 0 1 .47-1.13 1.87 1.87 0 0 1 1.32-.44h.16v2.57a1.32 1.32 0 0 0 .87-.32 1 1 0 0 0 .3-.72.89.89 0 0 0-.17-.55 1.12 1.12 0 0 0-.53-.35zm-.94 1.92v-1.92a1.17 1.17 0 0 0-.65.22.89.89 0 0 0-.34.72.93.93 0 0 0 .27.68 1.07 1.07 0 0 0 .72.3zM222.46 184.85H219v-.53h.49a1.24 1.24 0 0 1-.57-1.1 1.44 1.44 0 0 1 .11-.57.9.9 0 0 1 .29-.39 1.13 1.13 0 0 1 .43-.18 3.37 3.37 0 0 1 .57 0h2.12v.58h-2.09a1.57 1.57 0 0 0-.53.07.56.56 0 0 0-.28.24.77.77 0 0 0-.11.41 1 1 0 0 0 .24.64 1.17 1.17 0 0 0 .9.27h1.88zM222.46 181.15H219v-.53h.49a1.24 1.24 0 0 1-.57-1.1 1.44 1.44 0 0 1 .11-.57.9.9 0 0 1 .29-.39 1.13 1.13 0 0 1 .43-.18 3.37 3.37 0 0 1 .57 0h2.12v.58h-2.09a1.57 1.57 0 0 0-.53.07.56.56 0 0 0-.28.24.77.77 0 0 0-.11.41 1 1 0 0 0 .24.64 1.17 1.17 0 0 0 .9.27h1.88zM222 175.22a2.18 2.18 0 0 1 .39.62 1.8 1.8 0 0 1 .11.64 1.25 1.25 0 0 1-.28.87.92.92 0 0 1-.71.3 1 1 0 0 1-.8-.42 1.41 1.41 0 0 1-.19-.42 4.2 4.2 0 0 1-.09-.52 5.35 5.35 0 0 0-.2-1h-.15a.64.64 0 0 0-.5.17 1 1 0 0 0-.2.66 1 1 0 0 0 .14.61.88.88 0 0 0 .51.29l-.08.57a1.41 1.41 0 0 1-.59-.26 1.12 1.12 0 0 1-.35-.52 2.3 2.3 0 0 1-.12-.78 2.06 2.06 0 0 1 .1-.72.94.94 0 0 1 .26-.41.92.92 0 0 1 .4-.18 3.27 3.27 0 0 1 .54 0h.81a8.26 8.26 0 0 0 1 0 1.29 1.29 0 0 0 .41-.15v.61a1.23 1.23 0 0 1-.41.04zm-1.3 0a4.28 4.28 0 0 1 .22 1 2.17 2.17 0 0 0 .12.51.51.51 0 0 0 .19.23.52.52 0 0 0 .67-.1.76.76 0 0 0 .16-.52 1.2 1.2 0 0 0-.15-.6.91.91 0 0 0-.4-.39 1.41 1.41 0 0 0-.58-.09z" transform="translate(-12.26 -7.09)"/></g><path class="cls-9" d="M37.3 175.76v3.61m0 15.32v3.61M17 169.9h-4m0 0v34.25m0 0h4" transform="translate(-12.26 -7.09)"/><path class="cls-10" d="M114.18 202h12.62v3.61h-12.62zm0-34.18h12.62v3.61h-12.62z" transform="translate(-12.26 -7.09)"/><path class="cls-11" d="M112.42 158.49v5.59h-6.76v-5.59zm0 8.56v5.59h-6.76V167zM69.18 187h-5.59v-6.76h5.59zm-8.56 0H55v-6.76h5.59zm-15.24.24v-5.59h6.76v5.59zm0-8.56v-5.59h6.76v5.59zM70 210.71v5h-4.5v-5zm0 7.66v5h-4.5v-5zm10.44-43.87v5.59h-6.76v-5.59zm0 8.56v5.59h-6.76v-5.59zm-59.28 27.59v5.41h-5.41v-5.41zm9.47 0v5.41h-5.42v-5.41zm-7.46-52.94v5.41h-5.42v-5.41zm9.47 0v5.41h-5.42v-5.41zm55.21-7V157h-6.33v-6.31zm16.68 0V157H98.2v-6.31z" transform="translate(-12.26 -7.09)"/><rect class="cls-11" x="62.49" y="195.99" width="3.61" height="1.26" rx=".31" ry=".31"/><rect class="cls-11" x="62.49" y="198.25" width="3.61" height="1.26" rx=".31" ry=".31"/><rect class="cls-11" x="62.49" y="200.5" width="3.61" height="1.26" rx=".31" ry=".31"/><rect class="cls-11" x="62.49" y="202.76" width="3.61" height="1.26" rx=".31" ry=".31"/><rect class="cls-11" x="62.49" y="205.01" width="3.61" height="1.26" rx=".31" ry=".31"/><rect class="cls-11" x="62.49" y="207.26" width="3.61" height="1.26" rx=".31" ry=".31"/><rect class="cls-11" x="67.05" y="209.47" width="1.26" height="3.61" rx=".31" ry=".31"/><rect class="cls-11" x="69.3" y="209.47" width="1.26" height="3.61" rx=".31" ry=".31"/><rect class="cls-11" x="71.55" y="209.47" width="1.26" height="3.61" rx=".31" ry=".31"/><rect class="cls-11" x="73.81" y="209.47" width="1.26" height="3.61" rx=".31" ry=".31"/><rect class="cls-11" x="76.06" y="209.47" width="1.26" height="3.61" rx=".31" ry=".31"/><rect class="cls-11" x="78.31" y="209.47" width="1.26" height="3.61" rx=".31" ry=".31"/><rect class="cls-11" x="80.52" y="207.26" width="3.61" height="1.26" rx=".31" ry=".31"/><rect class="cls-11" x="80.52" y="205.01" width="3.61" height="1.26" rx=".31" ry=".31"/><rect class="cls-11" x="80.52" y="202.76" width="3.61" height="1.26" rx=".31" ry=".31"/><rect class="cls-11" x="80.52" y="200.5" width="3.61" height="1.26" rx=".31" ry=".31"/><rect class="cls-11" x="80.52" y="198.25" width="3.61" height="1.26" rx=".31" ry=".31"/><rect class="cls-11" x="80.52" y="195.99" width="3.61" height="1.26" rx=".31" ry=".31"/><rect class="cls-11" x="78.31" y="191.44" width="1.26" height="3.61" rx=".31" ry=".31"/><rect class="cls-11" x="76.06" y="191.44" width="1.26" height="3.61" rx=".31" ry=".31"/><rect class="cls-11" x="73.81" y="191.44" width="1.26" height="3.61" rx=".31" ry=".31"/><rect class="cls-11" x="71.55" y="191.44" width="1.26" height="3.61" rx=".31" ry=".31"/><rect class="cls-11" x="69.3" y="191.44" width="1.26" height="3.61" rx=".31" ry=".31"/><rect class="cls-11" x="67.05" y="191.44" width="1.26" height="3.61" rx=".31" ry=".31"/><path class="cls-11" d="M79.94 203.72h11.27V215H79.94z" transform="translate(-12.26 -7.09)"/><circle class="cls-12" cx="200.38" cy="225.73" r="3.02"/><circle class="cls-12" cx="188.93" cy="225.73" r="3.02"/><circle class="cls-12" cx="177.48" cy="225.73" r="3.02"/><circle class="cls-12" cx="166.04" cy="225.73" r="3.02"/><circle class="cls-12" cx="154.59" cy="225.73" r="3.02"/><circle class="cls-12" cx="143.14" cy="225.73" r="3.02"/><circle class="cls-12" cx="131.69" cy="225.73" r="3.02"/><circle class="cls-12" cx="120.25" cy="225.73" r="3.02"/><circle class="cls-12" cx="108.8" cy="225.73" r="3.02"/><circle class="cls-12" cx="97.35" cy="225.73" r="3.02"/><circle class="cls-12" cx="85.9" cy="225.73" r="3.02"/><circle class="cls-12" cx="74.46" cy="225.73" r="3.02"/><circle class="cls-12" cx="63.01" cy="225.73" r="3.02"/><circle class="cls-12" cx="51.56" cy="225.73" r="3.02"/><circle class="cls-12" cx="40.11" cy="225.73" r="3.02"/><circle class="cls-12" cx="28.66" cy="225.73" r="3.02"/><circle class="cls-12" cx="74.46" cy="134.15" r="3.02"/><circle class="cls-12" cx="85.9" cy="134.15" r="3.02"/><circle class="cls-12" cx="97.35" cy="134.15" r="3.02"/><circle class="cls-12" cx="108.8" cy="134.15" r="3.02"/><circle class="cls-12" cx="120.25" cy="134.15" r="3.02"/><circle class="cls-12" cx="131.69" cy="134.15" r="3.02"/><circle class="cls-12" cx="143.14" cy="134.15" r="3.02"/><circle class="cls-12" cx="154.59" cy="134.15" r="3.02"/><circle class="cls-12" cx="166.04" cy="134.15" r="3.02"/><circle class="cls-12" cx="177.48" cy="134.15" r="3.02"/><circle class="cls-12" cx="188.93" cy="134.15" r="3.02"/><circle class="cls-12" cx="200.38" cy="134.15" r="3.02"/><path class="cls-11" d="M126.57 200H123v-4.05h3.61zm-8.57 0h-3.6v-4.05h3.6zm4.28 9.47h-3.61v-4.06h3.61zm-7.89-36H118v4.06h-3.6zm8.56 0h3.61v4.06H123zm-4.26-9.47h3.61v4.06h-3.61zm9.26-8.5h-5V151h5zm-7.66 0h-5V151h5zM34 217.4h5v4.51h-5zm7.66 0h5v4.51h-5zm86.24-55.59h-5v-4.51h5zm-7.66 0h-5v-4.51h5zM126.8 187h-5v-4.51h5zm-7.66 0h-5v-4.51h5zm-3.89 2.24h3.61v3.61h-3.61zm6.87 0h3.61v3.61h-3.61zm-6.22 29.31h5v4.51h-5zm7.66 0h5v4.51h-5zm-37.43-60.1h5V163h-5zm7.66 0h5V163h-5zM108.43 175v5h-4.51v-5zm0 7.66v5h-4.51v-5zm20.08 34.1h-5v-4.51h5zm-7.66 0h-5v-4.51h5zm-81.1-79.54v5h-4.51v-5zm0 7.66v5h-4.51v-5zm63.66 50.65v3.61H99.8v-3.61zm0 6.87v3.6H99.8v-3.6zm-27.22-4.32h-5.27v-7.21h5.27zm-6.87 0h-5.27v-7.21h5.27z" transform="translate(-12.26 -7.09)"/><path class="cls-11" d="M71.55 194.93h-2.86V194h2.86zm-11.25 22.2v4.06h-4.06v-4.05zm0-18.48v4.06h-4.06v-4.05zm-7.21 18.48v4.06H49v-4.06zm0-18.48v4.05H49v-4.05z" transform="translate(-12.26 -7.09)"/><circle class="cls-13" cx="11.49" cy="139.87" r="6.78"/><circle class="cls-13" cx="11.49" cy="220" r="6.78"/><rect class="cls-11" x="46.44" y="138.76" width="4.51" height="4.51" rx="2.25" ry="2.25"/><rect class="cls-11" x="185.18" y="176.51" width="4.51" height="4.51" rx="2.25" ry="2.25"/><path class="cls-11" d="M95.6 176.52V174h5.4v2.48zm0-4.28v-2.48h5.4v2.48zm0-4.28v-2.48h5.4V168zm-11.72 0v-2.48h5.41V168zm0 8.56V174h5.41v2.48zm5.41 4.41v2.48h-5.41v-2.48zm0 4.28v2.48h-5.41v-2.48zm0 4.28V192h-5.41v-2.5zm11.72 0V192H95.6v-2.5zm0-8.56v2.48H95.6v-2.48zM54.2 157.85h4.51v20.73H54.2zm9 0h4.51v20.73h-4.49zM42 152.44v-15.32h7.21v15.32zm30.65 0v-15.32h7.21v15.32zm132-3.72v9h-5.41v-9zm-9 0v9h-5.35v-9zm-9 0v9h-5.41v-9zm-9 0v9h-5.41v-9zm-9 0v9h-5.41v-9zm-9 0v9h-5.41v-9zm-9 0v9h-5.41v-9zm-9 0v9h-5.41v-9zm0 67.61v9h-5.41v-9zm9 0v9h-5.41v-9zm9 0v9h-5.41v-9zm9 0v9h-5.41v-9zm9 0v9h-5.41v-9zm9 0v9h-5.41v-9zm9 0v9h-5.35v-9zm9 0v9h-5.41v-9zm-73.78-54.53h9v5.41h-9zm0 9h9v5.41h-9zm0 9h9v5.41h-9zm0 9h9v5.41h-9zm0 9h9v5.41h-9zm0 9h9v5.41h-9zM18.82 181.39h9v4.51h-9zm0 6.76h9v4.51h-9zm20.06-2v1.8h-6.09v-1.8zm0-2.93V185h-6.09v-1.8zm0 8.79v1.8h-6.09V192zm0-2.93v1.8h-6.09v-1.8z" transform="translate(-12.26 -7.09)"/><circle class="cls-14" cx="24.13" cy="165.06" r="2.38"/><path class="cls-11" d="M34 167.4h4.75v7.13H34v-7.13m0 4.75a2.38 2.38 0 0 0 4.75.12v-.12A2.38 2.38 0 0 0 34 172v.15z" transform="translate(-12.26 -7.09)"/><circle class="cls-14" cx="24.13" cy="194.81" r="2.38"/><path class="cls-11" d="M34 199.52h4.75v7.13H34v-7.12m0 2.37a2.38 2.38 0 1 0 4.75.12v-.12a2.38 2.38 0 1 0-4.75-.12v.12z" transform="translate(-12.26 -7.09)"/><circle class="cls-15" cx="11.51" cy="163.71" r="3.83"/><path class="cls-15" d="M19.95 167h7.66v7.66h-7.66z" transform="translate(-12.26 -7.09)"/><circle class="cls-15" cx="11.51" cy="196.16" r="3.83"/><path class="cls-15" d="M19.95 199.42h7.66v7.66h-7.66z" transform="translate(-12.26 -7.09)"/><path class="cls-11" d="M38.88 180.27v1.8h-6.09v-1.8z" transform="translate(-12.26 -7.09)"/><path class="cls-16" d="M106.23 169.62v-8.12a.45.45 0 0 1 .45-.45h4.73a.45.45 0 0 1 .45.45v8.11a.45.45 0 0 1-.45.45h-4.73a.45.45 0 0 1-.45-.45z" transform="translate(-12.26 -7.09)"/><path class="cls-17" d="M111.86 162.74v5.63h-5.63v-5.63z" transform="translate(-12.26 -7.09)"/><path class="cls-16" d="M58 180.78h8.11a.45.45 0 0 1 .45.45V186a.45.45 0 0 1-.45.45h-8.06a.45.45 0 0 1-.45-.45v-4.73a.45.45 0 0 1 .45-.45z" transform="translate(-12.26 -7.09)"/><path class="cls-17" d="M64.92 186.41h-5.63v-5.63h5.63z" transform="translate(-12.26 -7.09)"/><path class="cls-16" d="M51.58 176.08v8.11a.45.45 0 0 1-.45.45h-4.74a.45.45 0 0 1-.45-.45v-8.11a.45.45 0 0 1 .45-.45h4.73a.45.45 0 0 1 .45.45z" transform="translate(-12.26 -7.09)"/><path class="cls-17" d="M45.94 183v-5.63h5.63V183z" transform="translate(-12.26 -7.09)"/><path class="cls-16" d="M66 220.16v-6.29a.46.46 0 0 1 .46-.46h2.64a.46.46 0 0 1 .46.46v6.29a.46.46 0 0 1-.46.46h-2.69a.46.46 0 0 1-.46-.46z" transform="translate(-12.26 -7.09)"/><path class="cls-17" d="M69.56 215.22v3.61H66v-3.61z" transform="translate(-12.26 -7.09)"/><path class="cls-16" d="M74.24 185.63v-8.11a.45.45 0 0 1 .45-.45h4.73a.45.45 0 0 1 .45.45v8.11a.45.45 0 0 1-.45.45h-4.73a.45.45 0 0 1-.45-.45z" transform="translate(-12.26 -7.09)"/><path class="cls-17" d="M79.87 178.76v5.63h-5.63v-5.63z" transform="translate(-12.26 -7.09)"/><path class="cls-16" d="M27.24 216.17h-8.11a.45.45 0 0 1-.45-.45V211a.45.45 0 0 1 .45-.45h8.11a.45.45 0 0 1 .45.45v4.73a.45.45 0 0 1-.45.45z" transform="translate(-12.26 -7.09)"/><path class="cls-18" d="M26 210.54v5.63h-5.63v-5.63z" transform="translate(-12.26 -7.09)"/><circle class="cls-19" cx="10.92" cy="206.27" r=".9"/><path class="cls-16" d="M29.24 163.23h-8.11a.45.45 0 0 1-.45-.45V158a.45.45 0 0 1 .45-.45h8.11a.45.45 0 0 1 .45.45v4.73a.45.45 0 0 1-.45.45z" transform="translate(-12.26 -7.09)"/><path class="cls-20" d="M28 157.59v5.63h-5.63v-5.63z" transform="translate(-12.26 -7.09)"/><circle class="cls-21" cx="12.92" cy="153.32" r=".9"/><path class="cls-16" d="M101.13 155.74H84.9v-3.83h16.22z" transform="translate(-12.26 -7.09)"/><path class="cls-22" d="M99.1 157.55H86.93v-7.44H99.1z" transform="translate(-12.26 -7.09)"/><path class="cls-23" d="M97.86 157.54h-2.15v-7.42h2.15z" transform="translate(-12.26 -7.09)"/><rect class="cls-10" x="64.16" y="193.24" width="18.03" height="18.03" rx=".9" ry=".9"/><circle class="cls-24" cx="66.17" cy="195.34" r=".86"/><path class="cls-16" d="M125.9 201.36h-2.25v-4.73h2.25zm-8.56 0h-2.25v-4.73h2.25zm4.28 7.44h-2.25v-5h2.25z" transform="translate(-12.26 -7.09)"/><path class="cls-22" d="M127.25 205.64h-13.52v-5.86h13.52z" transform="translate(-12.26 -7.09)"/><path class="cls-16" d="M115.08 172.13h2.25v4.73h-2.25zm8.56 0h2.25v4.73h-2.25zm-4.28-7.44h2.25v5h-2.25z" transform="translate(-12.26 -7.09)"/><path class="cls-22" d="M113.73 167.84h13.52v5.86h-13.52z" transform="translate(-12.26 -7.09)"/><path class="cls-16" d="M118.49 151.45h6.29a.46.46 0 0 1 .46.46v2.68a.46.46 0 0 1-.46.46h-6.29a.46.46 0 0 1-.46-.46v-2.68a.46.46 0 0 1 .46-.46z" transform="translate(-12.26 -7.09)"/><path class="cls-10" d="M123.44 155.06h-3.61v-3.61h3.61z" transform="translate(-12.26 -7.09)"/><path class="cls-16" d="M43.5 221.46h-6.29a.46.46 0 0 1-.46-.46v-2.68a.46.46 0 0 1 .46-.46h6.29a.46.46 0 0 1 .46.46V221a.46.46 0 0 1-.46.46z" transform="translate(-12.26 -7.09)"/><path class="cls-10" d="M38.55 217.85h3.61v3.61h-3.61z" transform="translate(-12.26 -7.09)"/><path class="cls-16" d="M118.49 157.75h6.29a.46.46 0 0 1 .46.46v2.68a.46.46 0 0 1-.46.46h-6.29a.46.46 0 0 1-.46-.46v-2.68a.46.46 0 0 1 .46-.46z" transform="translate(-12.26 -7.09)"/><path class="cls-10" d="M123.44 161.36h-3.61v-3.61h3.61z" transform="translate(-12.26 -7.09)"/><path class="cls-16" d="M117.34 182.93h6.29a.46.46 0 0 1 .46.46v2.68a.46.46 0 0 1-.46.46h-6.29a.46.46 0 0 1-.46-.46v-2.67a.46.46 0 0 1 .46-.46z" transform="translate(-12.26 -7.09)"/><path class="cls-10" d="M122.29 186.54h-3.61v-3.61h3.61z" transform="translate(-12.26 -7.09)"/><path class="cls-16" d="M123.63 192.84h-6.29a.46.46 0 0 1-.46-.46v-2.68a.46.46 0 0 1 .46-.46h6.29a.46.46 0 0 1 .46.46v2.68a.46.46 0 0 1-.46.46z" transform="translate(-12.26 -7.09)"/><path class="cls-10" d="M118.69 189.23h3.61v3.61h-3.61z" transform="translate(-12.26 -7.09)"/><path class="cls-16" d="M125.35 222.6h-6.29a.46.46 0 0 1-.46-.46v-2.68a.46.46 0 0 1 .46-.46h6.29a.46.46 0 0 1 .46.46v2.68a.46.46 0 0 1-.46.46z" transform="translate(-12.26 -7.09)"/><path class="cls-10" d="M120.4 219h3.6v3.61h-3.6z" transform="translate(-12.26 -7.09)"/><path class="cls-16" d="M95.59 162.5H89.3a.46.46 0 0 1-.46-.46v-2.68a.46.46 0 0 1 .46-.46h6.29a.46.46 0 0 1 .46.46V162a.46.46 0 0 1-.46.46z" transform="translate(-12.26 -7.09)"/><path class="cls-10" d="M90.64 158.89h3.61v3.61h-3.61z" transform="translate(-12.26 -7.09)"/><path class="cls-16" d="M104.38 184.45v-6.29a.46.46 0 0 1 .46-.46h2.68a.46.46 0 0 1 .46.46v6.29a.46.46 0 0 1-.46.46h-2.68a.46.46 0 0 1-.46-.46z" transform="translate(-12.26 -7.09)"/><path class="cls-10" d="M108 179.5v3.61h-3.61v-3.61z" transform="translate(-12.26 -7.09)"/><path class="cls-16" d="M119.06 212.7h6.29a.46.46 0 0 1 .46.46v2.68a.46.46 0 0 1-.46.46h-6.29a.46.46 0 0 1-.46-.46v-2.68a.46.46 0 0 1 .46-.46z" transform="translate(-12.26 -7.09)"/><path class="cls-10" d="M124 216.3h-3.6v-3.6h3.6z" transform="translate(-12.26 -7.09)"/><path class="cls-16" d="M35.69 146.67v-6.29a.46.46 0 0 1 .46-.46h2.68a.46.46 0 0 1 .46.46v6.29a.46.46 0 0 1-.46.46h-2.68a.46.46 0 0 1-.46-.46z" transform="translate(-12.26 -7.09)"/><path class="cls-10" d="M39.3 141.72v3.61h-3.61v-3.6z" transform="translate(-12.26 -7.09)"/><path class="cls-16" d="M99.8 203.91v-6.29a.46.46 0 0 1 .46-.46h2.68a.46.46 0 0 1 .46.46v6.29a.46.46 0 0 1-.46.46h-2.68a.46.46 0 0 1-.46-.46z" transform="translate(-12.26 -7.09)"/><path class="cls-10" d="M103.4 199v3.61h-3.6V199z" transform="translate(-12.26 -7.09)"/><path class="cls-16" d="M57.15 199.78V202h-5v-2.25h-2.22V202h-2v15.78h2v2.25h2.25v-2.25h5v2.25h2.22v-2.25h2V202h-2v-2.25z" transform="translate(-12.26 -7.09)"/><circle class="cls-25" cx="42.4" cy="202.83" r="3.94"/><path class="cls-26" d="M61.43 201.36v.9H47.91v-.9zm0 16.23v.9H47.91v-.9z" transform="translate(-12.26 -7.09)"/><path class="cls-16" d="M114.52 210.71c-.05-.32-.22-.41-.64-.54l-2.44-.78a3 3 0 0 0-2.57.23l-.45.36c.13-.15.25-.31.36-.45A3 3 0 0 0 109 207l-.78-2.44c-.14-.42-.23-.59-.54-.64s-.46.09-.71.44l-1.49 2.08a3 3 0 0 0-.57 2.52c.05.17.12.36.2.54q-.15-.25-.32-.48a3 3 0 0 0-2.38-1h-2.59c-.44 0-.63 0-.78.32s-.06.46.2.82l1.52 2.06a3 3 0 0 0 2.22 1.33h.58l-.55.16a3 3 0 0 0-1.7 2l-.8 2.43c-.14.41-.16.61.06.84s.42.2.84.06l2.43-.8a3 3 0 0 0 1.95-1.7c.06-.17.11-.36.16-.55v.57a3 3 0 0 0 1.33 2.22l2.06 1.51c.35.26.53.34.82.2s.32-.34.32-.78v-2.56a3 3 0 0 0-1-2.38l-.48-.32.54.2a3 3 0 0 0 2.52-.58l2.08-1.5c.35-.26.49-.4.44-.72zm-7.67-1.64c.24 0 .36.55.27 1.15s-.37 1.05-.61 1-.36-.56-.27-1.15.37-1.05.61-1zm-3.11 1.59c.11-.22.64-.17 1.18.1s.89.68.78.9-.64.17-1.18-.1-.89-.68-.78-.9zm1.64 3c-.43.43-.92.64-1.09.46s0-.66.46-1.09.92-.64 1.09-.46-.03.65-.46 1.08zm2.36 1c-.22.11-.62-.24-.9-.77s-.32-1.07-.1-1.18.62.24.9.77.36 1.06.1 1.18zm.57-2.5c-.6.1-1.11 0-1.15-.27s.42-.52 1-.61 1.11 0 1.15.27-.4.51-1 .6zM86.36 176.18v-1.8h12.17v1.8zm0-8.56v-1.8h12.17v1.8zm7.21 4.28v-1.8h5v1.8z" transform="translate(-12.26 -7.09)"/><path class="cls-22" d="M88.84 177.53v-13.06H96v13.07z" transform="translate(-12.26 -7.09)"/><path class="cls-16" d="M98.53 181.27v1.8H86.36v-1.8zm0 8.56v1.8H86.36v-1.8zm-7.21-4.28v1.8h-5v-1.8z" transform="translate(-12.26 -7.09)"/><path class="cls-22" d="M96 179.92V193h-7.16v-13.08z" transform="translate(-12.26 -7.09)"/><path class="cls-24" d="M74.48 140.95v-3.38h-27v3.38h-4.55v23.66H79v-23.66z" transform="translate(-12.26 -7.09)"/><path d="M49.69 146.58h4.51v13.52h-4.51zm18 0h4.51v13.52h-4.48z" transform="translate(-12.26 -7.09)"/><path class="cls-10" d="M49.69 160.1h4.51v4.51h-4.51zm18 0h4.51v4.51h-4.48zm-24.79 4.51h3.61v6.76h-3.58zm32.45 0H79v6.76h-3.62z" transform="translate(-12.26 -7.09)"/><path class="cls-16" d="M54.88 164.61H58v11.27h-3.12zm9 0H67v11.27h-3.11z" transform="translate(-12.26 -7.09)"/><path class="cls-27" d="M201.8 151.74a1 1 0 0 1-1-1h-6.9a1 1 0 1 1-2.09 0h-6.89a1 1 0 1 1-2.08 0h-6.89a1 1 0 1 1-2.09 0h-6.89a1 1 0 1 1-2.08 0h-6.9a1 1 0 1 1-2.08 0H149a1 1 0 1 1-2.08 0H140a1 1 0 1 1-2.08 0h-5.1v13a1.14 1.14 0 0 1 0 2.28v6.55a1.14 1.14 0 0 1 0 2.28v6.56a1.14 1.14 0 0 1 0 2.28v6.55a1.14 1.14 0 0 1 0 2.28V199a1.14 1.14 0 0 1 0 2.28v6.55a1.14 1.14 0 0 1 0 2.28v13h5.1a1 1 0 1 1 2.08 0h6.9a1 1 0 1 1 2.08 0h6.9a1 1 0 1 1 2.08 0h6.9a1 1 0 1 1 2.08 0h6.9a1 1 0 1 1 2.08 0h6.9a1 1 0 1 1 2.08 0h6.89a1 1 0 1 1 2.09 0h6.9a1 1 0 1 1 2.08 0h37.82v-72.42h-37.84a1 1 0 0 1-1 1" transform="translate(-12.26 -7.09)"/><path class="cls-28" d="M240.5 223v-72.15H203a1.2 1.2 0 0 1-2.38 0H194a1.2 1.2 0 0 1-2.38 0H185a1.2 1.2 0 0 1-2.38 0h-6.6a1.2 1.2 0 0 1-2.38 0h-6.6a1.2 1.2 0 0 1-2.38 0h-6.6a1.2 1.2 0 0 1-2.38 0h-6.6a1.2 1.2 0 0 1-2.38 0h-6.6a1.2 1.2 0 0 1-2.38 0H133v12.66a1.3 1.3 0 0 1 0 2.58v6.25a1.3 1.3 0 0 1 0 2.58v6.25a1.3 1.3 0 0 1 0 2.58V190a1.3 1.3 0 0 1 0 2.58v6.25a1.3 1.3 0 0 1 0 2.58v6.25a1.3 1.3 0 0 1 0 2.58V223h4.79a1.2 1.2 0 0 1 2.38 0h6.6a1.2 1.2 0 0 1 2.38 0h6.6a1.2 1.2 0 0 1 2.38 0h6.6a1.2 1.2 0 0 1 2.38 0h6.6a1.2 1.2 0 0 1 2.38 0h6.6a1.2 1.2 0 0 1 2.38 0h6.59a1.2 1.2 0 0 1 2.38 0h6.61a1.2 1.2 0 0 1 2.38 0zm.32-72.44v72.76h-38.13v-.16a.88.88 0 1 0-1.77 0v.16h-7.22v-.16a.88.88 0 1 0-1.77 0v.16h-7.2v-.16a.88.88 0 1 0-1.77 0v.16h-7.21v-.16a.88.88 0 1 0-1.77 0v.16h-7.21v-.16a.88.88 0 1 0-1.77 0v.16h-7.21v-.16a.88.88 0 1 0-1.77 0v.16h-7.21v-.16a.88.88 0 1 0-1.77 0v.16h-7.21v-.16a.88.88 0 1 0-1.77 0v.16h-5.41v-13.39h.21a1 1 0 0 0 0-2h-.2v-6.83h.19a1 1 0 0 0 0-2h-.19v-6.87h.21a1 1 0 0 0 0-2h-.19v-6.87h.21a1 1 0 0 0 0-2h-.19v-6.88h.21a1 1 0 0 0 0-2h-.19v-6.88h.21a1 1 0 0 0 0-2h-.19v-13.06h5.41v.16a.88.88 0 1 0 1.77 0v-.16H147v.16a.88.88 0 1 0 1.77 0v-.16H156v.16a.88.88 0 1 0 1.77 0v-.16H165v.16a.88.88 0 1 0 1.77 0v-.16H174v.16a.88.88 0 1 0 1.77 0v-.16H183v.16a.88.88 0 1 0 1.77 0v-.16h7.2v.16a.88.88 0 1 0 1.77 0v-.16h7.22v.16a.88.88 0 1 0 1.77 0v-.16h38.13z" transform="translate(-12.26 -7.09)"/><g class="cls-29"><g class="cls-30"><path class="cls-31" d="M236.81 165v5.05a1.35 1.35 0 0 1-1.35 1.36h-15.85v2.39h15.86a1.35 1.35 0 0 1 1.35 1.36v5.11a1.35 1.35 0 0 1-1.35 1.36h-15.86v2.63h15.27a1.35 1.35 0 0 1 1.35 1.36v4.94a1.35 1.35 0 0 1-1.35 1.36h-15.27v2.63h15.27a1.35 1.35 0 0 1 1.35 1.36v17.33a1.35 1.35 0 1 1-2.69 0v-16h-15.28a1.35 1.35 0 0 1-1.35-1.36v-5.34a1.35 1.35 0 0 1 1.35-1.36h15.27V187h-15.27a1.35 1.35 0 0 1-1.35-1.36v-5.34a1.35 1.35 0 0 1 1.35-1.36h15.86v-2.39h-15.86a1.35 1.35 0 0 1-1.35-1.36v-5.11a1.35 1.35 0 0 1 1.35-1.36h15.86v-2.32h-22.5v29.89a1.35 1.35 0 1 1-2.69 0V166.4h-9.67a1.36 1.36 0 0 1 0-2.72h36.21a1.35 1.35 0 0 1 1.35 1.36" transform="translate(-12.26 -7.09)"/></g></g><path class="cls-32" d="M207.91 217.14a.41.41 0 0 1-.43-.4v-9.8a.41.41 0 0 1 .43-.4h4.67a.41.41 0 0 1 .43.4v9.8a.41.41 0 0 1-.43.4h-4.67z" transform="translate(-12.26 -7.09)"/><path class="cls-33" d="M213 215.29v-6.74h-5.5v6.74z" transform="translate(-12.26 -7.09)"/><path class="cls-34" d="M212.9 215.17v-6.5h-5.29v6.5zm.24-6.62v6.75a.12.12 0 0 1-.12.12h-5.52a.12.12 0 0 1-.12-.12v-6.75a.12.12 0 0 1 .12-.12h5.5a.12.12 0 0 1 .12.12" transform="translate(-12.26 -7.09)"/><path class="cls-33" d="M207.54 208.6v6.64H213v-6.64zm0-.1H213v6.85h-5.5a.05.05 0 0 1 0-.05v-6.75-.05" transform="translate(-12.26 -7.09)"/><path class="cls-34" d="M212.86 215.12v-6.4h-5.19v6.4h5.19zm.34-6.57v6.75a.17.17 0 0 1-.17.17h-5.53a.17.17 0 0 1-.17-.17v-6.75a.17.17 0 0 1 .17-.18h5.5a.17.17 0 0 1 .17.18" transform="translate(-12.26 -7.09)"/><path class="cls-35" d="M213 215.25v1.08h-5.6v-1.08zm0-7.89v1.08h-5.6v-1.08z" transform="translate(-12.26 -7.09)"/><path class="cls-36" d="M158 218.29a1.13 1.13 0 1 1-1.13-1.14 1.14 1.14 0 0 1 1.13 1.14m-3.45-1.87v6.71h1.19a1.13 1.13 0 1 1 2.26 0h1.18v-6.71a.23.23 0 0 0-.22-.22h-4.18a.22.22 0 0 0-.22.22m-5.53 1.87a1.13 1.13 0 1 1-1.13-1.14 1.14 1.14 0 0 1 1.13 1.14m-3.45-1.87v6.71h1.19a1.13 1.13 0 1 1 2.26 0h1.19v-6.71a.23.23 0 0 0-.23-.22h-4.18a.22.22 0 0 0-.23.22m-5.53 1.87a1.13 1.13 0 1 1-1.13-1.14 1.14 1.14 0 0 1 1.13 1.14m-3.45-1.87v6.71h1.19a1.13 1.13 0 1 1 2.26 0h1.18v-6.71a.23.23 0 0 0-.22-.22h-4.18a.22.22 0 0 0-.22.22m30.39 1.87a1.13 1.13 0 1 1-1.13-1.14 1.14 1.14 0 0 1 1.13 1.14m-3.45-1.87v6.71h1.19a1.13 1.13 0 1 1 2.26 0h1.19v-6.71a.23.23 0 0 0-.23-.22h-4.18a.22.22 0 0 0-.23.22m12.45 1.87a1.13 1.13 0 1 1-1.13-1.14 1.14 1.14 0 0 1 1.13 1.14m-3.45-1.87v6.71h1.19a1.13 1.13 0 1 1 2.26 0h1.18v-6.71a.23.23 0 0 0-.22-.22h-4.18a.22.22 0 0 0-.22.22m12.44 1.87a1.13 1.13 0 1 1-1.13-1.14 1.14 1.14 0 0 1 1.13 1.14m-3.45-1.87v6.71h1.19a1.13 1.13 0 1 1 2.26 0h1.19v-6.71a.23.23 0 0 0-.22-.22h-4.18a.23.23 0 0 0-.23.22m12.44 1.87a1.13 1.13 0 1 1-1.13-1.14 1.14 1.14 0 0 1 1.13 1.14m-3.45-1.87v6.71h1.19a1.13 1.13 0 1 1 2.26 0h1.18v-6.71a.23.23 0 0 0-.22-.22h-4.18a.22.22 0 0 0-.22.22m12.43 1.87a1.13 1.13 0 1 1-1.13-1.14 1.14 1.14 0 0 1 1.13 1.14m-3.45-1.87v6.71h1.19a1.13 1.13 0 1 1 2.26 0h1.19v-6.71a.23.23 0 0 0-.22-.22h-4.18a.22.22 0 0 0-.22.22m-16.77-60.89a1.13 1.13 0 1 1 1.13 1.14 1.14 1.14 0 0 1-1.13-1.14m3.45 1.87v-6.7H185a1.13 1.13 0 1 1-2.26 0h-1.18v6.71a.23.23 0 0 0 .22.23h4.19a.23.23 0 0 0 .22-.23m5.53-1.87a1.13 1.13 0 1 1 1.13 1.14 1.14 1.14 0 0 1-1.13-1.14m3.45 1.87v-6.71H194a1.13 1.13 0 1 1-2.26 0h-1.19v6.71a.23.23 0 0 0 .22.23h4.18a.23.23 0 0 0 .22-.23m5.53-1.87a1.13 1.13 0 1 1 1.13 1.14 1.14 1.14 0 0 1-1.13-1.14m3.45 1.87v-6.71h-1.19a1.13 1.13 0 1 1-2.26 0h-1.18v6.71a.23.23 0 0 0 .22.23h4.19a.23.23 0 0 0 .22-.23m-30.39-1.87a1.13 1.13 0 1 1 1.13 1.14 1.14 1.14 0 0 1-1.13-1.14m3.45 1.87v-6.71H176a1.13 1.13 0 1 1-2.26 0h-1.19v6.71a.23.23 0 0 0 .22.23H177a.23.23 0 0 0 .22-.23m-12.43-1.87a1.13 1.13 0 1 1 1.13 1.14 1.14 1.14 0 0 1-1.13-1.14m3.45 1.87v-6.71H167a1.13 1.13 0 1 1-2.26 0h-1.18v6.71a.23.23 0 0 0 .22.23H168a.23.23 0 0 0 .22-.23m-12.43-1.87a1.13 1.13 0 1 1 1.13 1.14 1.14 1.14 0 0 1-1.13-1.14m3.45 1.87v-6.71H158a1.13 1.13 0 1 1-2.26 0h-1.19v6.71a.23.23 0 0 0 .22.23H159a.23.23 0 0 0 .22-.23m-12.43-1.87a1.13 1.13 0 1 1 2.26 0 1.13 1.13 0 1 1-2.26 0m3.45 1.87v-6.71h-1.19a1.13 1.13 0 1 1-2.26 0h-1.18v6.71a.23.23 0 0 0 .22.23H150a.23.23 0 0 0 .22-.23m-12.43-1.87a1.13 1.13 0 1 1 2.26 0 1.13 1.13 0 1 1-2.26 0m3.45 1.87v-6.71h-1.19a1.13 1.13 0 1 1-2.26 0h-1.19v6.71a.23.23 0 0 0 .22.23H141a.23.23 0 0 0 .22-.23m-3.64 26.23a1.14 1.14 0 1 1 1.13-1.14 1.14 1.14 0 0 1-1.13 1.14m1.86-3.47h-6.66v1.2a1.14 1.14 0 0 1 .12 2.28h-.12v1.2h6.66a.23.23 0 0 0 .22-.23v-4.22a.23.23 0 0 0-.22-.23m-1.86-5.35a1.14 1.14 0 0 1 0-2.28 1.14 1.14 0 0 1 0 2.28m1.86-3.47h-6.66v1.2a1.14 1.14 0 0 1 .12 2.28h-.12V176h6.66a.23.23 0 0 0 .22-.22v-4.22a.23.23 0 0 0-.22-.22m-1.82-5.34a1.14 1.14 0 1 1 1.13-1.14 1.14 1.14 0 0 1-1.13 1.14m1.86-3.47h-6.66v1.2a1.14 1.14 0 0 1 .12 2.28h-.12v1.2h6.66a.23.23 0 0 0 .22-.22v-4.22a.23.23 0 0 0-.22-.22m-1.86 30a1.14 1.14 0 1 1 1.13-1.14 1.14 1.14 0 0 1-1.13 1.14m1.86-3.47h-6.66v1.2a1.14 1.14 0 0 1 .12 2.28h-.12v1.2h6.66a.23.23 0 0 0 .22-.23v-4.22a.23.23 0 0 0-.22-.23m-1.86 12.3a1.14 1.14 0 1 1 1.13-1.14 1.14 1.14 0 0 1-1.13 1.14m1.86-3.47h-6.66V199a1.14 1.14 0 0 1 .12 2.28h-.12v1.2h6.66a.23.23 0 0 0 .22-.23v-4.22a.23.23 0 0 0-.22-.23m-1.86 12.3a1.14 1.14 0 1 1 1.13-1.14 1.14 1.14 0 0 1-1.13 1.14m1.86-3.47h-6.66v1.2a1.14 1.14 0 0 1 .12 2.28h-.12v1.2h6.66a.23.23 0 0 0 .22-.23v-4.22a.23.23 0 0 0-.22-.23" transform="translate(-12.26 -7.09)"/><path class="cls-37" d="M205.51 159.64a.36.36 0 0 1 .36.36v53.81a.36.36 0 0 1-.36.36h-64.7a.36.36 0 0 1-.36-.36V160a.36.36 0 0 1 .36-.36h64.7z" transform="translate(-12.26 -7.09)"/><path class="cls-38" d="M140.53 213.82a.28.28 0 0 0 .28.28h64.69a.28.28 0 0 0 .28-.28V160a.28.28 0 0 0-.28-.28h-64.7a.28.28 0 0 0-.28.28zM205.95 160v53.81a.44.44 0 0 1-.44.44h-64.7a.44.44 0 0 1-.44-.44V160a.44.44 0 0 1 .44-.44h64.69a.44.44 0 0 1 .44.44" transform="translate(-12.26 -7.09)"/><path class="cls-26" d="M27.36 169v36.06h-6.31V169z" transform="translate(-12.26 -7.09)"/><path class="cls-16" d="M38.74 186.58v.9h-5.41v-.9zm0 2.93v.9h-5.41v-.9zm0 2.93v.9h-5.41v-.9zm0-8.79v.9h-5.41v-.9zm0-2.93v.9h-5.41v-.9z" transform="translate(-12.26 -7.09)"/><path class="cls-26" d="M36.38 175.76v22.53h-1.13v-22.53z" transform="translate(-12.26 -7.09)"/><path d="M35.93 175.76v22.53h-4.74v-22.53z" transform="translate(-12.26 -7.09)"/><path class="cls-16" d="M32.09 183.87v-2.25h1.13V178h3.38v-8.1H15v34.25h21.6V196h-3.38v-3.61h-1.13v-2.25h4.06v-6.31z" transform="translate(-12.26 -7.09)"/><path d="M26.23 177.79l-6.76.45v-3.15l6.76.45zm0 20.73l-6.76.45v-3.15l6.76.45z" transform="translate(-12.26 -7.09)"/><path class="cls-39" d="M15 203.25l-2.7-.9V171.7l2.7-.9z" transform="translate(-12.26 -7.09)"/><path class="cls-26" d="M15 170.8l-2.7-.9v-.9l2.7.9zm0 33.35l-2.7.9v-.9l2.7-.9z" transform="translate(-12.26 -7.09)"/><path id="rect3858" class="cls-43" d="M256.2 80.6h2.7v15.2h-2.7z"/><path id="rect3900" class="cls-43" d="M265.2 80.6h2.7v15.2h-2.7z"/><path id="rect3902" class="cls-43" d="M274.2 80.6h2.7v15.2h-2.7z"/><path id="rect2999" class="cls-44" d="M219.76 7.09v81h117v-81zm8.9 39.4a3.5 3.5 0 0 1 0 7 3.48 3.48 0 0 1-3.5-3.5 3.54 3.54 0 0 1 3.5-3.5zm99.2 0a3.5 3.5 0 1 1-3.5 3.5 3.48 3.48 0 0 1 3.5-3.5z" transform="translate(-12.26 -7.09)"/><path id="rect3006" class="cls-45" d="M226.6 1.1h78.8v78.8h-78.8z"/><path id="path3780" class="cls-46" d="M317.66 47.59a39.4 39.4 0 1 1-39.4-39.4 39.35 39.35 0 0 1 39.4 39.4z" transform="translate(-12.26 -7.09)"/><path id="path3824" class="cls-47" d="M263.56 34.09a21.47 21.47 0 0 1 5.3-4.1" transform="translate(-12.26 -7.09)"/><path id="path3824-2" data-name="path3824" class="cls-47" d="M290.36 59.19a21.47 21.47 0 0 1-5.3 4.1" transform="translate(-12.26 -7.09)"/><g class="cls-2"><path class="cls-3" d="M328.66 12.39a.2.2 0 0 1 0-.4h2.9v1.3a.68.68 0 0 1-.7.7h-.5a.68.68 0 0 1-.7-.7v-.9zm1.4 0v.9a.27.27 0 0 0 .3.3h.6a.27.27 0 0 0 .3-.3v-.9zM328.86 16.09v.6a.2.2 0 1 1-.4 0v-1.6a.2.2 0 1 1 .4 0v.6h2.3v-.6a.2.2 0 1 1 .4 0v1.6a.2.2 0 1 1-.4 0v-.6zM328.66 18.19a.2.2 0 0 1 0-.4h2.9v1.3a.58.58 0 0 1-.6.6h-.3a.58.58 0 0 1-.6-.6v-.4l-1.3.9c-.1 0-.1.1-.2.1a.22.22 0 0 1-.2-.2c0-.1 0-.1.1-.2l1.6-1.1v-.1h-1.4zm1.9 0v.9c0 .1 0 .3.2.3h.3c.2 0 .2-.2.2-.3v-.9zM329.26 25.39a.37.37 0 0 1-.3.1.47.47 0 0 1-.5-.5v-.9c0-.2 0-.3.1-.4a.52.52 0 0 1 .4-.2.2.2 0 0 1 0 .4c-.1 0-.1.1-.1.2v1l.1-.1 1.8-1.4a.37.37 0 0 1 .3-.1.52.52 0 0 1 .4.2.37.37 0 0 1 .1.3v.8c0 .2 0 .3-.1.4a.52.52 0 0 1-.4.2.2.2 0 0 1 0-.4.22.22 0 0 0 .2-.2V24a.1.1 0 1 0-.2 0zM328.46 27.19c0-.2 0-.2.1-.3l.1-.2c.1-.2.2-.2.4-.2h.7a.55.55 0 0 1 .5.2l.1.1c.2.2.2.3.2.4v.4c0 .2 0 .3-.1.4l-.1.2c-.1.2-.3.2-.5.2h-.3c-.2 0-.3 0-.3-.3v-1.2h-.1a.1.1 0 0 0-.1.1l-.1.1c-.1.1-.1.1-.1.3v.8c0 .1 0 .3-.2.3s-.2-.2-.2-.3zm1.2-.3V28h.4l.1-.1v-.7l-.1-.1a.35.35 0 0 0-.2-.1l-.2-.1zM329.86 29.69h-1.1c-.1 0-.3 0-.3-.2s.1-.2.3-.2h1.6c.1 0 .3 0 .3.2s-.1.2-.3.2l.2.3a.37.37 0 0 1 .1.3v.3a.76.76 0 0 1-.1.4c-.1.2-.3.2-.5.2h-1.2c-.1 0-.3 0-.3-.2s.1-.2.3-.2h1.2c.2 0 .3 0 .3-.3v-.2zM330.26 32.89c0-.1 0-.2-.1-.2s-.1 0-.1.1l-.4 1a.66.66 0 0 1-.5.4.58.58 0 0 1-.6-.6V33a.9.9 0 0 1 .1-.5c.1-.1.1-.2.2-.2a.22.22 0 0 1 .2.2c0 .1 0 .1-.1.1a.37.37 0 0 0-.1.3v.5c0 .1 0 .3.2.3a.22.22 0 0 0 .2-.2l.4-.9a.46.46 0 0 1 .5-.3.47.47 0 0 1 .5.5v.7c0 .2 0 .3-.1.4s-.1.2-.2.2a.22.22 0 0 1-.2-.2c0-.1 0-.1.1-.2s.1-.1.1-.2l-.1-.6zM329.86 35.09c.3 0 .3.1.5.2a.55.55 0 0 1 .2.5v.3a.59.59 0 0 1-.2.5c-.2.2-.2.2-.5.2h-.7c-.3 0-.3-.1-.5-.3a.55.55 0 0 1-.2-.5v-.3a.55.55 0 0 1 .2-.5c.2-.2.3-.3.5-.3h.7zm-.7.4c-.1 0-.1 0-.2.1s-.1.1-.1.3v.3a.37.37 0 0 0 .1.3c.1.1.1.1.2.1h.7c.1 0 .1 0 .2-.1s.1-.1.1-.3v-.3a.37.37 0 0 0-.1-.3c-.1-.1-.1-.1-.2-.1zM330.36 38c.1 0 .3 0 .3.2s-.1.2-.3.2h-.2l.2.3c.1.1.2.2.2.3v.3a.4.4 0 0 1-.2.4.76.76 0 0 1-.4.2c-.1 0-.3 0-.3-.2a.22.22 0 0 1 .2-.2h.2c.1 0 .1-.1.1-.2v-.1c0-.1 0-.1-.1-.2l-.4-.5h-1c-.1 0-.3 0-.3-.2s.1-.2.3-.2l1.7-.1z" transform="translate(-12.26 -7.09)"/></g><g class="cls-2"><path class="cls-3" d="M323.86 19.59a.2.2 0 0 1 0-.4h2.9v1.3a.58.58 0 0 1-.6.6h-.3a.58.58 0 0 1-.6-.6v-.4L324 21c-.1 0-.1.1-.2.1a.22.22 0 0 1-.2-.2c0-.1 0-.1.1-.2l1.6-1.1v-.1h-1.4zm1.9 0v.9c0 .1 0 .3.2.3h.3c.2 0 .2-.2.2-.3v-.9zM323.66 22.89c0-.2 0-.2.1-.3l.1-.2c.1-.2.2-.2.4-.2h.7a.55.55 0 0 1 .5.2l.1.1c.2.2.2.3.2.4v.4c0 .2 0 .3-.1.4l-.1.2c-.1.2-.3.2-.5.2h-.3c-.2 0-.3 0-.3-.3v-1.2h-.1a.1.1 0 0 0-.1.1l-.1.1c-.1.1-.1.1-.1.3v.8c0 .1 0 .3-.2.3s-.2-.2-.2-.3zm1.2-.4v1.1h.4l.1-.1v-.7l-.1-.1a.35.35 0 0 0-.2-.1l-.2-.1zM325.36 26.49h.2c.1 0 .3 0 .3.2a.22.22 0 0 1-.2.2h-.6l-1.3-.6a.22.22 0 0 1-.2-.2v-.2c0-.1.2-.2.2-.2l1.3-.6h.5a.22.22 0 0 1 .2.2c0 .2-.1.2-.3.2h-.2l-1.3.6zM326.76 30.79v1.1a.84.84 0 0 1-.9.9.86.86 0 0 1-.6-.3.91.91 0 0 1-.7.3c-.5 0-.8-.3-.8-.9v-1.1zm-2.7.4v.7c0 .3.1.5.4.5s.5-.1.5-.5v-.7zm1.3 0v.7c0 .3.1.5.4.5s.5-.1.5-.5v-.7z" transform="translate(-12.26 -7.09)"/></g><g class="cls-2"><path class="cls-3" d="M326.86 60.49v.7a.35.35 0 0 1-.4.4h-.9a.35.35 0 0 1-.4-.4v-.9a.37.37 0 0 1 .1-.3.2.2 0 1 1 .4 0v.1l-.1.1c0 .1-.1.1-.1.2v.9h1v-1.2h1.8v1.4a.2.2 0 1 1-.4 0v-1zM326.86 63.39v.7a.35.35 0 0 1-.4.4h-.9a.35.35 0 0 1-.4-.4v-.9a.37.37 0 0 1 .1-.3l.1-.2a.2.2 0 1 1 .4 0v.1l-.1.1c0 .1-.1.1-.1.2V64h1v-1h1.8v1.4a.2.2 0 1 1-.4 0v-1zM326.86 66.29V67a.35.35 0 0 1-.4.4h-.9a.35.35 0 0 1-.4-.4v-.9a.37.37 0 0 1 .1-.3l.1-.2a.2.2 0 1 1 .4 0v.1l-.1.1c0 .1-.1.1-.1.2v.9h1v-1.2h1.8v1.4a.2.2 0 0 1-.4 0v-1h-1.1zM327 69.79c0 .2-.1.2-.2.2s-.2-.1-.2-.2v-.9c0-.2.1-.2.2-.2s.2.1.2.2zM325.56 71.59V73a.2.2 0 1 1-.4 0v-1.8h1.3a.47.47 0 0 1 .5.5v1.1h1v-1.4a.2.2 0 0 1 .4 0v1.3a.37.37 0 0 1-.1.3c-.1.1-.2.1-.4.1h-.8a.6.6 0 0 1-.4-.1.37.37 0 0 1-.1-.3v-1.1zM328.26 75.49a.22.22 0 0 1-.2.2h-1.2a.35.35 0 0 1-.4.4h-1a.43.43 0 0 1-.4-.4v-1.2a.43.43 0 0 1 .4-.4h1a.35.35 0 0 1 .4.4h1.2a.22.22 0 0 1 .2.2zm-2.7.2h1v-1.2h-1zm1.3-.4h1v-.4h-1zM328.26 78.59a.43.43 0 0 1-.4.4h-2.3a.43.43 0 0 1-.4-.4v-1.2a.43.43 0 0 1 .4-.4h2.3a.43.43 0 0 1 .4.4zm-2.7 0h2.3v-1.2h-2.3zM325.56 80.29v1.4a.2.2 0 1 1-.4 0v-1.8h1.3a.47.47 0 0 1 .5.5v1.1h1v-1.4a.2.2 0 0 1 .4 0v1.3a.37.37 0 0 1-.1.3c-.1.1-.2.1-.4.1h-.8a.6.6 0 0 1-.4-.1.37.37 0 0 1-.1-.3v-1.1zM327.86 83.19a.2.2 0 0 1 0-.4h.2a.22.22 0 0 1 .2.2v1.8h-1.2a.37.37 0 0 1-.3-.1l-.5-.6c0-.1 0-.1-.2-.1h-.8a.2.2 0 0 1 0-.4h1c.1 0 .1 0 .2.1l.5.6c.1.1.1.1.3.1h.6z" transform="translate(-12.26 -7.09)"/></g><path class="cls-3" d="M227.26 67.89l-.7-.7c-.1-.1-.2-.3 0-.4s.3 0 .3.1a6.47 6.47 0 0 1 .8.9.75.75 0 0 0 .4-.7v-2h-1.3c-.1 0-.2-.1-.3-.2.1-.1.2-.2.3-.2h3.1c.2 0 .4.1.4.3v2.5c0 .3-.6.8-.9.9s-.7-.1-1-.5c-.1.1-.2.1-.3.2l1.1 1.1.9.9a.37.37 0 0 1 .1.3c0 .1-.2.1-.3.1h-3c-.2 0-.3 0-.3-.2s.2-.2.3-.2h1.3v-1.3c0-.2-.4-.5-.6-.5h-.7c-.2 0-.4 0-.4-.2s.2-.2.4-.2zm2.5-2.8h-1.2v2.3c0 .2.4.5.6.5s.6-.3.6-.5zm-1.2 5h.8l-.8-.8zM226.46 73.49h-.7v3c0 .2 0 .3-.2.3s-.2-.2-.2-.3v-3.1a.27.27 0 0 1 .3-.3h.8v-1.7c0-.4 0-.5.5-.5h2.9c.2 0 .4 0 .4.2s-.2.2-.4.2H227v1.8h1.9c.1 0 .2.1.3.2-.1.1-.2.2-.3.2H227v.8c0 .1-.1.2-.2.3-.1-.1-.2-.2-.2-.3a2 2 0 0 1-.14-.8zM228.06 58.79h-1.3c-.2 0-.3 0-.3-.2s.2-.2.3-.2h3c.3 0 .3.1.3.3v2.5c0 .3-.6.8-.9.9-.6.1-.8-.3-1.2-.7v-2.3c.1 0 .1-.09.1-.3zm1.7 0h-1.2v2.3c0 .2.4.5.6.5s.6-.3.6-.5z" transform="translate(-12.26 -7.09)"/><path class="cls-3" d="M228.06 78v-1.2a.35.35 0 0 0-.1-.2l-1.4-1.4a.49.49 0 0 1-.1-.3c.1-.2.2-.1.4 0l3.2 3.2a.37.37 0 0 1 .1.3c0 .1-.2.2-.3.2h-3.1c-.1 0-.2-.1-.3-.2.1-.2.2-.4.3-.4zm.5 0h.7a5.72 5.72 0 0 1-.7-.8zM228.06 63.89v-1.2c0-.1-.1-.2-.2-.3l-1.3-1.3c-.1-.1-.3-.2-.1-.4s.3 0 .4.1l3.1 3.1a.37.37 0 0 1 .1.3c0 .1-.2.1-.3.1h-3c-.2 0-.3 0-.3-.2s.2-.2.3-.2zm1.3-.1l-.8-.8v.8zM229.26 85.49v-1.1c0-.1.1-.2.2-.3.1.1.2.2.2.3v1.4c0 .1-.1.2-.1.3s-.2-.1-.3-.1l-1.2-1.2H228v1c0 .1-.1.2-.2.3-.1-.1-.2-.2-.2-.3v-1.3c0-.1.1-.2.1-.3s.2.1.3.1a13.1 13.1 0 0 1 1.26 1.2zM227.06 85.69v-1.3h-.8c-.1 0-.2-.1-.3-.2.1-.1.2-.2.3-.2h.9a.27.27 0 0 1 .3.3v1.5a.27.27 0 0 1-.3.3h-.9a.22.22 0 0 1-.2-.2c.1-.1.2-.1.2-.2zM228.06 81a.31.31 0 0 0-.1.2c-.5.5-1 1.1-1.6 1.6-.1.1-.2 0-.3 0v-.3c.2-.3.5-.5.7-.8l.8-.8a.37.37 0 0 1 .3-.1z" transform="translate(-12.26 -7.09)"/><path class="cls-3" d="M230.16 78.79a.31.31 0 0 0-.1.2c-.5.5-1 1-1.6 1.5-.1.1-.2 0-.3 0v-.3l1.6-1.6s.2-.1.2 0c.2 0 .2.1.2.2zM227.76 80.69c-.1-.1-.1-.1-.2-.1l-1.5-1.5c-.1-.1-.2-.3 0-.4s.3 0 .3.1l1.5 1.5a.37.37 0 0 1 .1.3.31.31 0 0 0-.2.1zM228.06 81c.1-.1.1-.2.2-.2a.37.37 0 0 1 .3.1l1.2 1.2.4.4c.1.1 0 .2 0 .3h-.3l-1.5-1.5zM229.76 85.09v-.8a.22.22 0 0 1 .2-.2l.2.2v1.5a.22.22 0 0 1-.2.2l-.2-.2z" transform="translate(-12.26 -7.09)"/><path class="cls-48" d="M134 141.38c5-16.11 28.22-14.1 41.15-12.55a441 441 0 0 0 50.1 3.58c11.44.07 28.67 2.06 37.88-6.56 7.16-6.7 8.15-19.36 8.23-28.55a1.5 1.5 0 0 0-3 0c-.11 12.24-2.05 27-15.8 30.55-7.5 1.91-15.75 1.53-23.44 1.56q-12.58 0-25.14-.73c-8.36-.52-16.69-1.34-25-2.38s-16.52-2.16-24.8-1.09c-9.8 1.26-19.9 5.18-23.06 15.36-.57 1.85 2.32 2.64 2.89.8z" transform="translate(-12.26 -7.09)"/><path class="cls-49" d="M277.48 97.32c-.26 12.7.64 25.44 1.2 38.12.8 18.16 1.52 36.32 1.62 54.49.09 17.18-.14 34.54-2.47 51.59-1.26 9.22-2.83 24.86-11.63 30.47-6.36 4.06-15.59 5.11-22.83 6.45a369.22 369.22 0 0 1-40.15 4.94c-31.16 2.29-63.33 2.3-94-4-24-4.91-57.53-16.47-55.54-46.59.13-1.93-2.87-1.92-3 0-1.75 25.75 21.66 39.4 43.32 45.91 30.57 9.21 63.91 9.9 95.57 8.49a434.51 434.51 0 0 0 44.26-4.13c9.87-1.46 20.13-3 29.54-6.5 8.83-3.27 12.29-11.2 14.62-19.87 4.16-15.5 4.8-32.07 5.2-48 .86-34.8-2-69.45-2.65-104.21 0-2.38-.06-4.75 0-7.13 0-1.93-3-1.93-3 0z" transform="translate(-12.26 -7.09)"/><path d="M73.57 233.22c2.11 14.06 15.38 25.89 28 30.91 14 5.55 29.59 4.83 44.4 4.81 24.33 0 48.67-.18 73-.81 11.94-.31 23.9-.68 35.81-1.56 7.5-.56 16.3-.54 22.62-5.17 7.5-5.5 10.77-15.23 12.6-24 2.47-11.7 2.83-23.8 2.8-35.72 0-11.63-.77-23.25-.48-34.88.57-23.09-2.49-46-3.06-69.11 0-1.93-3-1.93-3 0 .48 19.1 2.69 38.11 3.09 57.21.24 11.26 0 22.51.24 33.77a310.15 310.15 0 0 1-.53 33.91c-.87 10.29-2.4 21.73-8.15 30.58-4.89 7.52-12 9.05-20.36 9.87-10.24 1-20.55 1.38-30.83 1.73-24.08.82-48.17 1-72.26 1.1-12.07 0-24.34.58-36.36-.53-18.48-1.71-41.6-12.25-44.7-33-.29-1.9-3.18-1.09-2.89.8z" transform="translate(-12.26 -7.09)"/></svg>