<svg id="svg2" xmlns="http://www.w3.org/2000/svg" viewBox="0 0 120 120"><style>.st0,.st1,.st2{fill:none;stroke:#e6c739;stroke-width:6.3}.st1,.st2{stroke:#d2382b}.st2{stroke:#323232}.st3{opacity:.95;fill:#ccc;enable-background:new}.st4{fill:#2ca02c}.st5,.st6{fill:#dbe3e2;stroke:#000;stroke-width:.18;stroke-linecap:round}.st6{opacity:.95;fill:url(#path3780_1_);stroke-opacity:.4837;enable-background:new}.st7{opacity:.6652;fill:none;stroke:#fff;stroke-width:22.5;stroke-opacity:.6685}.st7,.st8{enable-background:new}.st9{fill:#fff}</style><path id="rect3858" class="st3" d="M50.2 85.7h2.7v15.2h-2.7z"/><path id="rect3900" class="st3" d="M59.2 85.7h2.7v15.2h-2.7z"/><path id="rect3902" class="st3" d="M68.2 85.7h2.7v15.2h-2.7z"/><path id="rect2999" class="st4" d="M1.5 5.1v81h117v-81H1.5zm8.9 39.4c1.9 0 3.5 1.6 3.5 3.5s-1.6 3.5-3.5 3.5S6.9 50 6.9 48c0-1.9 1.6-3.5 3.5-3.5zm99.2 0c1.9 0 3.5 1.6 3.5 3.5s-1.6 3.5-3.5 3.5-3.5-1.6-3.5-3.5 1.5-3.5 3.5-3.5z"/><path id="rect3006" class="st5" d="M20.6 6.2h78.8V85H20.6z"/><radialGradient id="path3780_1_" cx="64.5" cy="1407.6" r="39.4" gradientTransform="translate(-4.5 -1362)" gradientUnits="userSpaceOnUse"><stop offset="0" stop-color="#fff"/><stop offset="1" stop-color="silver" stop-opacity=".446"/></radialGradient><path id="path3780" class="st6" d="M99.4 45.6C99.4 67.4 81.8 85 60 85S20.6 67.4 20.6 45.6 38.2 6.2 60 6.2s39.4 17.6 39.4 39.4z"/><path id="path3824" class="st7" d="M45.3 32.1c1.5-1.6 3.3-3 5.3-4.1"/><path id="path3824_1_" class="st7" d="M72.1 57.2c-1.5 1.6-3.3 3-5.3 4.1"/><g class="st8"><path class="st9" d="M110.4 10.4c-.1 0-.2-.1-.2-.2s.1-.2.2-.2h2.9v1.3c0 .2 0 .3-.2.5s-.3.2-.5.2h-.5c-.2 0-.3 0-.5-.2s-.2-.3-.2-.5v-.9h-1zm1.4 0v.9c0 .2.1.3.3.3h.6c.2 0 .3-.1.3-.3v-.9h-1.2zM110.6 14.1v.6c0 .1-.1.2-.2.2s-.2-.1-.2-.2v-1.6c0-.1.1-.2.2-.2s.2.1.2.2v.6h2.3v-.6c0-.1.1-.2.2-.2s.2.1.2.2v1.6c0 .1-.1.2-.2.2s-.2-.1-.2-.2v-.6h-2.3zM110.4 16.2c-.1 0-.2-.1-.2-.2s.1-.2.2-.2h2.9v1.3c0 .3-.2.6-.6.6h-.3c-.4 0-.6-.3-.6-.6v-.4l-1.3.9c-.1 0-.1.1-.2.1s-.2-.1-.2-.2 0-.1.1-.2l1.6-1.1v-.1h-1.4v.1zm1.9 0v.9c0 .1 0 .3.2.3h.3c.2 0 .2-.2.2-.3v-.9h-.7zM111 23.4c-.1.1-.2.1-.3.1-.3 0-.5-.2-.5-.5v-.9c0-.2 0-.3.1-.4s.2-.2.4-.2c.1 0 .2.1.2.2s-.1.2-.2.2-.1.1-.1.2v1l.1-.1 1.8-1.4c.1-.1.2-.1.3-.1.2 0 .3.1.4.2s.1.2.1.3v.8c0 .2 0 .3-.1.4s-.2.2-.4.2c-.1 0-.2-.1-.2-.2s.1-.2.2-.2.2-.1.2-.2V22s0-.1-.1-.1c0 0-.1 0-.1.1l-1.8 1.4zM110.2 25.2c0-.2 0-.2.1-.3l.1-.2c.1-.2.2-.2.4-.2h.7c.2 0 .3 0 .5.2l.1.1c.2.2.2.3.2.4v.4c0 .2 0 .3-.1.4l-.1.2c-.1.2-.3.2-.5.2h-.3c-.2 0-.3 0-.3-.3v-1.2h-.1s-.1 0-.1.1l-.1.1c-.1.1-.1.1-.1.3v.8c0 .1 0 .3-.2.3s-.2-.2-.2-.3v-1zm1.2-.3V26h.4l.1-.1v-.5-.2l-.1-.1s-.1-.1-.2-.1l-.2-.1zM111.6 27.7h-1.1c-.1 0-.3 0-.3-.2s.1-.2.3-.2h1.6c.1 0 .3 0 .3.2s-.1.2-.3.2l.2.3c.1.1.1.2.1.3v.3c0 .1 0 .2-.1.4s-.3.2-.5.2h-1.2c-.1 0-.3 0-.3-.2s.1-.2.3-.2h1.2c.2 0 .3 0 .3-.3v-.2l-.5-.6zM112 30.9c0-.1 0-.2-.1-.2s-.1 0-.1.1l-.4 1c-.1.2-.3.4-.5.4-.4 0-.6-.3-.6-.6V31c0-.2 0-.3.1-.5.1-.1.1-.2.2-.2s.2.1.2.2 0 .1-.1.1c-.1.1-.1.2-.1.3v.5c0 .1 0 .3.2.3.1 0 .2-.1.2-.2l.4-.9c.1-.2.2-.3.5-.3s.5.2.5.5v.7c0 .2 0 .3-.1.4s-.1.2-.2.2-.2-.1-.2-.2 0-.1.1-.2.1-.1.1-.2l-.1-.6zM111.6 33.1c.3 0 .3.1.5.2.2.2.2.3.2.5v.3c0 .3-.1.4-.2.5-.2.2-.2.2-.5.2h-.7c-.3 0-.3-.1-.5-.3s-.2-.3-.2-.5v-.3c0-.2 0-.3.2-.5s.3-.3.5-.3h.7v.2zm-.7.4c-.1 0-.1 0-.2.1s-.1.1-.1.3v.3c0 .1 0 .2.1.3s.1.1.2.1h.7c.1 0 .1 0 .2-.1s.1-.1.1-.3v-.3c0-.1 0-.2-.1-.3s-.1-.1-.2-.1h-.7zM112.1 36c.1 0 .3 0 .3.2s-.1.2-.3.2h-.2l.2.3c.1.1.2.2.2.3v.3c0 .1 0 .3-.2.4-.1.1-.3.2-.4.2s-.3 0-.3-.2c0-.1.1-.2.2-.2h.2c.1 0 .1-.1.1-.2v-.1c0-.1 0-.1-.1-.2l-.4-.5h-1c-.1 0-.3 0-.3-.2s.1-.2.3-.2l1.7-.1z"/></g><g class="st8"><path class="st9" d="M105.6 17.6c-.1 0-.2-.1-.2-.2s.1-.2.2-.2h2.9v1.3c0 .3-.2.6-.6.6h-.3c-.4 0-.6-.3-.6-.6v-.4l-1.3.9c-.1 0-.1.1-.2.1s-.2-.1-.2-.2 0-.1.1-.2l1.6-1.1v-.1h-1.4v.1zm1.9 0v.9c0 .1 0 .3.2.3h.3c.2 0 .2-.2.2-.3v-.9h-.7zM105.4 20.9c0-.2 0-.2.1-.3l.1-.2c.1-.2.2-.2.4-.2h.7c.2 0 .3 0 .5.2l.1.1c.2.2.2.3.2.4v.4c0 .2 0 .3-.1.4l-.1.2c-.1.2-.3.2-.5.2h-.3c-.2 0-.3 0-.3-.3v-1.2h-.1s-.1 0-.1.1l-.1.1c-.1.1-.1.1-.1.3v.8c0 .1 0 .3-.2.3s-.2-.2-.2-.3v-1zm1.2-.4v1.1h.4l.1-.1V21v-.2l-.1-.1s-.1-.1-.2-.1l-.2-.1zM107.1 24.5h.2c.1 0 .3 0 .3.2 0 .1-.1.2-.2.2H106.8l-1.3-.6c-.1 0-.2-.1-.2-.2v-.2c0-.1.2-.2.2-.2l1.3-.6h.5c.1 0 .2.1.2.2 0 .2-.1.2-.3.2h-.2l-1.3.6 1.4.4zM108.5 28.8v1.1c0 .6-.4.9-.9.9-.2 0-.4-.1-.6-.3-.2.2-.4.3-.7.3-.5 0-.8-.3-.8-.9v-1.1h3zm-2.7.4v.7c0 .3.1.5.4.5s.5-.1.5-.5v-.7h-.9zm1.3 0v.7c0 .3.1.5.4.5s.5-.1.5-.5v-.7h-.9z"/></g><g class="st8"><path class="st9" d="M108.6 58.5v.7c0 .1 0 .2-.1.3s-.2.1-.3.1h-.9c-.1 0-.2 0-.3-.1-.1-.1-.1-.2-.1-.3v-.9c0-.1 0-.2.1-.3 0-.1.1-.2.2-.2s.2.1.2.2v.1l-.1.1c0 .1-.1.1-.1.2v.9h1v-1.2h1.8v1.4c0 .1-.1.2-.2.2s-.2-.1-.2-.2v-1h-1zM108.6 61.4v.7c0 .1 0 .2-.1.3s-.2.1-.3.1h-.9c-.1 0-.2 0-.3-.1-.1-.1-.1-.2-.1-.3v-.9c0-.1 0-.2.1-.3l.1-.2c0-.1.1-.2.2-.2s.2.1.2.2v.1l-.1.1c0 .1-.1.1-.1.2v.9h1v-1h1.8v1.4c0 .1-.1.2-.2.2s-.2-.1-.2-.2v-1h-1.1zM108.6 64.3v.7c0 .1 0 .2-.1.3-.1.1-.2.1-.3.1h-.9c-.1 0-.2 0-.3-.1-.1-.1-.1-.2-.1-.3v-.9c0-.1 0-.2.1-.3l.1-.2c0-.1.1-.2.2-.2s.2.1.2.2v.1l-.1.1c0 .1-.1.1-.1.2v.9h1v-1.2h1.8v1.4c0 .1-.1.2-.2.2s-.2-.1-.2-.2v-1h-1.1v.2zM108.7 67.8c0 .2-.1.2-.2.2-.2 0-.2-.1-.2-.2v-.9c0-.2.1-.2.2-.2.2 0 .2.1.2.2v.9zM107.3 69.6V71c0 .1-.1.2-.2.2s-.2-.1-.2-.2v-1.8h1.3c.3 0 .5.2.5.5v1.1h1v-1.4c0-.1.1-.2.2-.2s.2.1.2.2v1.3c0 .1 0 .2-.1.3-.1.1-.2.1-.4.1h-.8c-.1 0-.3 0-.4-.1s-.1-.2-.1-.3v-1.1h-1zM110 73.5c0 .1-.1.2-.2.2h-1.2c0 .1 0 .2-.1.3-.1.1-.2.1-.3.1h-1c-.2 0-.4-.2-.4-.4v-1.2c0-.2.2-.4.4-.4h1c.1 0 .2 0 .3.1.1.1.1.2.1.3h1.2c.1 0 .2.1.2.2v.8zm-2.7.2h1v-1.2h-1v1.2zm1.3-.4h1v-.4h-1v.4zM110 76.6c0 .2-.2.4-.4.4h-2.3c-.2 0-.4-.2-.4-.4v-1.2c0-.2.2-.4.4-.4h2.3c.2 0 .4.2.4.4v1.2zm-2.7 0h2.3v-1.2h-2.3v1.2zM107.3 78.3v1.4c0 .1-.1.2-.2.2s-.2-.1-.2-.2v-1.8h1.3c.3 0 .5.2.5.5v1.1h1v-1.4c0-.1.1-.2.2-.2s.2.1.2.2v1.3c0 .1 0 .2-.1.3-.1.1-.2.1-.4.1h-.8c-.1 0-.3 0-.4-.1s-.1-.2-.1-.3v-1.1h-1zM109.6 81.2c-.1 0-.2-.1-.2-.2s.1-.2.2-.2h.2c.1 0 .2.1.2.2v1.8h-1.2c-.1 0-.2 0-.3-.1l-.5-.6c0-.1 0-.1-.2-.1h-.8c-.1 0-.2-.1-.2-.2s.1-.2.2-.2h1c.1 0 .1 0 .2.1l.5.6c.1.1.1.1.3.1h.6v-1.2z"/></g><path class="st9" d="M9 65.9l-.7-.7c-.1-.1-.2-.3 0-.4.1 0 .3 0 .3.1.3.3.6.6.8.9.3-.2.4-.4.4-.7v-2H8.5c-.1 0-.2-.1-.3-.2.1-.1.2-.2.3-.2h3.1c.2 0 .4.1.4.3v2.5c0 .3-.6.8-.9.9-.4.1-.7-.1-1-.5-.1.1-.2.1-.3.2l1.1 1.1.9.9c.1.1.1.2.1.3 0 .1-.2.1-.3.1h-3c-.2 0-.3 0-.3-.2s.2-.2.3-.2h1.3v-1.3c0-.2-.4-.5-.6-.5h-.7c-.2 0-.4 0-.4-.2s.2-.2.4-.2H9zm2.5-2.8h-1.2v2.3c0 .2.4.5.6.5.2 0 .6-.3.6-.5v-2.3zm-1.2 5h.8l-.8-.8v.8zM8.2 71.5h-.7v3c0 .2 0 .3-.2.3-.1 0-.2-.2-.2-.3v-3.1c0-.2.1-.3.3-.3h.8v-1.7c0-.4 0-.5.5-.5h2.9c.2 0 .4 0 .4.2s-.2.2-.4.2H8.7v1.8H10.6c.1 0 .2.1.3.2-.1.1-.2.2-.3.2H8.7v.8c0 .1-.1.2-.2.3-.1-.1-.2-.2-.2-.3-.1-.2-.1-.5-.1-.8zM9.8 56.8H8.5c-.2 0-.3 0-.3-.2s.2-.2.3-.2h3c.3 0 .3.1.3.3v2.5c0 .3-.6.8-.9.9-.6.1-.8-.3-1.2-.7v-.3-2c.1 0 .1-.1.1-.3zm1.7 0h-1.2v2.3c0 .2.4.5.6.5.2 0 .6-.3.6-.5v-2.3z"/><path class="st9" d="M9.8 76v-1.2c0-.1-.1-.2-.1-.2l-1.4-1.4c-.1-.1-.1-.3-.1-.3.1-.2.2-.1.4 0l3.2 3.2c.1.1.1.2.1.3 0 .1-.2.2-.3.2H8.5c-.1 0-.2-.1-.3-.2.1-.2.2-.4.3-.4h1.3zm.5 0h.7c-.2-.2-.5-.5-.7-.8v.8zM9.8 61.9v-1.2c0-.1-.1-.2-.2-.3l-1.3-1.3c-.1-.1-.3-.2-.1-.4s.3 0 .4.1l3.1 3.1c.1.1.1.2.1.3s-.2.1-.3.1h-3c-.2 0-.3 0-.3-.2s.2-.2.3-.2h1.3zm1.3-.1l-.8-.8v.8h.8zM11 83.5v-1.1c0-.1.1-.2.2-.3.1.1.2.2.2.3v1.4c0 .1-.1.2-.1.3-.1 0-.2-.1-.3-.1l-1.2-1.2h-.1v1c0 .1-.1.2-.2.3-.1-.1-.2-.2-.2-.3v-1.3c0-.1.1-.2.1-.3.1 0 .2.1.3.1.4.3.8.7 1.3 1.2zM8.8 83.7v-1.3H8c-.1 0-.2-.1-.3-.2.1-.1.2-.2.3-.2h.9c.2 0 .3.1.3.3v1.5c0 .2-.1.3-.3.3H8c-.1 0-.2-.1-.2-.2.1-.1.2-.1.2-.2h.8zM9.8 79c-.1.1-.1.2-.1.2-.5.5-1 1.1-1.6 1.6-.1.1-.2 0-.3 0v-.3c.2-.3.5-.5.7-.8l.8-.8c.1-.1.2-.1.3-.1l.2.2z"/><path class="st9" d="M11.9 76.8c-.1.1-.1.2-.1.2-.5.5-1 1-1.6 1.5-.1.1-.2 0-.3 0v-.3l1.6-1.6s.2-.1.2 0c.2 0 .2.1.2.2zM9.5 78.7c-.1-.1-.1-.1-.2-.1l-1.5-1.5c-.1-.1-.2-.3 0-.4.1 0 .3 0 .3.1l1.5 1.5c.1.1.1.2.1.3 0 0-.1 0-.2.1zM9.8 79c.1-.1.1-.2.2-.2s.2 0 .3.1l1.2 1.2.4.4c.1.1 0 .2 0 .3h-.3l-1.5-1.5-.3-.3zM11.5 83.1v-.8c0-.1.1-.2.2-.2l.2.2v1.5c0 .1-.1.2-.2.2l-.2-.2v-.7z"/><g class="st8"><path d="M62.3 112.8l-4 1.3v-.6l2-.6c.5-.2 1-.3 1.5-.4-.5-.1-1-.3-1.5-.5l-2-.7v-.6l4 1.4v.7zM62.2 107.5c.1.2.2.6.2 1.1 0 1.1-.7 2-2 2s-2.1-.9-2.1-2.1c0-.5.1-.8.2-1l.4.1c-.1.2-.2.5-.2.8 0 .9.6 1.6 1.7 1.6 1 0 1.6-.6 1.6-1.6 0-.3-.1-.6-.2-.9h.4zM62.2 104.1c.1.2.2.6.2 1.1 0 1.1-.7 2-2 2s-2.1-.9-2.1-2.1c0-.5.1-.8.2-1l.4.1c-.1.2-.2.5-.2.8 0 .9.6 1.6 1.7 1.6 1 0 1.6-.6 1.6-1.6 0-.3-.1-.6-.2-.9h.4z"/></g><g class="st8"><path d="M71.1 111.3c.1.2.2.7.2 1.2 0 .6-.2 1.1-.5 1.5-.3.3-.9.6-1.5.6-1.2 0-2.1-.8-2.1-2.2 0-.5.1-.8.2-1l.4.1c-.1.2-.2.5-.2.9 0 1 .6 1.6 1.6 1.6s1.6-.6 1.6-1.6c0-.3 0-.6-.1-.7h-1.2v.8h-.4v-1.3l2 .1zM71.3 110.5h-4v-.5l2-1.3c.5-.3.9-.5 1.3-.7-.5 0-1 .1-1.7.1h-1.7v-.5h4v.5l-2.1 1.3c-.5.3-.9.6-1.3.8h3.4l.1.3zM67.3 106.6c0-.3-.1-.7-.1-1.1 0-.8.2-1.3.5-1.6.3-.4.8-.6 1.5-.6s1.2.2 1.6.6.6 1 .6 1.8v.9h-4.1zm3.6-.5v-.5c0-1.1-.6-1.7-1.7-1.7-1 0-1.6.5-1.6 1.6 0 .3 0 .5.1.6h3.2z"/></g><g class="st8"><path d="M51.2 110.6c1.4 0 2.1.8 2.1 1.9s-.8 1.8-2.1 1.8-2.1-.8-2.1-1.9c.1-1.1.9-1.8 2.1-1.8zm.1 3.1c.9 0 1.6-.5 1.6-1.3s-.8-1.3-1.7-1.3c-.8 0-1.6.4-1.6 1.3s.8 1.3 1.7 1.3zM49.2 109.4h2.4c.9 0 1.3-.4 1.3-.9 0-.6-.4-1-1.3-1h-2.4v-.5h2.4c1.2 0 1.8.7 1.8 1.5s-.5 1.5-1.7 1.5h-2.4l-.1-.6zM49.7 105.2v1.2h-.4v-3h.4v1.2h3.6v.5h-3.6v.1z"/></g></svg>